Dekko-Regular.ufo
<glyph name="exclam" format="1">
  <advance width="216"/>
  <unicode hex="0021"/>
  <outline>
    <contour>
      <point x="111" y="227" type="curve" smooth="yes"/>
      <point x="135" y="227"/>
      <point x="141" y="294"/>
      <point x="143" y="322" type="curve" smooth="yes"/>
      <point x="152" y="467"/>
      <point x="163" y="586"/>
      <point x="163" y="623" type="curve" smooth="yes"/>
      <point x="163" y="660"/>
      <point x="152" y="676"/>
      <point x="128" y="676" type="curve" smooth="yes"/>
      <point x="106" y="676"/>
      <point x="91" y="650"/>
      <point x="90" y="613" type="curve"/>
      <point x="98" y="499" type="line"/>
      <point x="98" y="474"/>
      <point x="96" y="437"/>
      <point x="94" y="407" type="curve" smooth="yes"/>
      <point x="85" y="272" type="line"/>
      <point x="85" y="249"/>
      <point x="91" y="227"/>
    </contour>
    <contour>
      <point x="61" y="49" type="curve" smooth="yes"/>
      <point x="61" y="9"/>
      <point x="62" y="-13"/>
      <point x="95" y="-13" type="curve" smooth="yes"/>
      <point x="127" y="-13"/>
      <point x="135" y="25"/>
      <point x="135" y="43" type="curve" smooth="yes"/>
      <point x="135" y="78"/>
      <point x="134" y="111"/>
      <point x="105" y="111" type="curve" smooth="yes"/>
      <point x="79" y="111"/>
      <point x="61" y="89"/>
    </contour>
  </outline>
</glyph>
<glyph name="numbersign" format="1">
  <advance width="574"/>
  <unicode hex="0023"/>
  <outline>
    <contour>
      <point x="112" y="158" type="curve" smooth="yes"/>
      <point x="125" y="158"/>
      <point x="147" y="158"/>
      <point x="184" y="161" type="curve"/>
      <point x="184" y="122" type="line" smooth="yes"/>
      <point x="184" y="71"/>
      <point x="182" y="17"/>
      <point x="224" y="17" type="curve" smooth="yes"/>
      <point x="247" y="17"/>
      <point x="255" y="33"/>
      <point x="255" y="64" type="curve" smooth="yes"/>
      <point x="255" y="86"/>
      <point x="247" y="100"/>
      <point x="247" y="113" type="curve" smooth="yes"/>
      <point x="247" y="133"/>
      <point x="245" y="157"/>
      <point x="244" y="176" type="curve"/>
      <point x="345" y="186" type="line"/>
      <point x="345" y="173"/>
      <point x="344" y="159"/>
      <point x="344" y="144" type="curve" smooth="yes"/>
      <point x="344" y="106"/>
      <point x="349" y="69"/>
      <point x="379" y="69" type="curve" smooth="yes"/>
      <point x="392" y="69"/>
      <point x="407" y="87"/>
      <point x="408" y="109" type="curve" smooth="yes"/>
      <point x="408" y="118"/>
      <point x="407" y="129"/>
      <point x="406" y="138" type="curve"/>
      <point x="406" y="169"/>
      <point x="406" y="179"/>
      <point x="405" y="186" type="curve"/>
      <point x="432" y="186"/>
      <point x="443" y="179"/>
      <point x="464" y="179" type="curve" smooth="yes"/>
      <point x="488" y="179"/>
      <point x="503" y="196"/>
      <point x="503" y="231" type="curve" smooth="yes"/>
      <point x="503" y="268"/>
      <point x="491" y="277"/>
      <point x="434" y="277" type="curve" smooth="yes"/>
      <point x="428" y="277"/>
      <point x="415" y="277"/>
      <point x="401" y="276" type="curve"/>
      <point x="401" y="357" type="line"/>
      <point x="422" y="357" type="line" smooth="yes"/>
      <point x="436" y="357"/>
      <point x="448" y="352"/>
      <point x="459" y="349" type="curve"/>
      <point x="484" y="349"/>
      <point x="499" y="374"/>
      <point x="499" y="400" type="curve" smooth="yes"/>
      <point x="499" y="427"/>
      <point x="489" y="448"/>
      <point x="469" y="448" type="curve" smooth="yes"/>
      <point x="450" y="448"/>
      <point x="431" y="438"/>
      <point x="398" y="436" type="curve"/>
      <point x="396" y="534" type="line"/>
      <point x="396" y="578"/>
      <point x="392" y="610"/>
      <point x="365" y="610" type="curve" smooth="yes"/>
      <point x="340" y="610"/>
      <point x="338" y="581"/>
      <point x="338" y="546" type="curve" smooth="yes"/>
      <point x="340" y="428" type="line"/>
      <point x="334" y="428" type="line" smooth="yes"/>
      <point x="295" y="425"/>
      <point x="286" y="419"/>
      <point x="244" y="419" type="curve"/>
      <point x="244" y="450" type="line" smooth="yes"/>
      <point x="244" y="492"/>
      <point x="241" y="534"/>
      <point x="216" y="534" type="curve" smooth="yes"/>
      <point x="183" y="534"/>
      <point x="180" y="495"/>
      <point x="180" y="461" type="curve" smooth="yes"/>
      <point x="180" y="420"/>
      <point x="181" y="415"/>
      <point x="181" y="412" type="curve"/>
      <point x="78" y="412" type="line" smooth="yes"/>
      <point x="62" y="412"/>
      <point x="39" y="399"/>
      <point x="39" y="367" type="curve" smooth="yes"/>
      <point x="39" y="331"/>
      <point x="86" y="322"/>
      <point x="92" y="322" type="curve" smooth="yes"/>
      <point x="182" y="322" type="line"/>
      <point x="183" y="296"/>
      <point x="182" y="273"/>
      <point x="182" y="251" type="curve"/>
      <point x="123" y="248" type="line"/>
      <point x="118" y="251"/>
      <point x="110" y="252"/>
      <point x="98" y="252" type="curve" smooth="yes"/>
      <point x="78" y="252"/>
      <point x="64" y="219"/>
      <point x="64" y="203" type="curve" smooth="yes"/>
      <point x="64" y="163"/>
      <point x="91" y="158"/>
    </contour>
    <contour>
      <point x="241" y="254" type="line"/>
      <point x="241" y="266" type="line" smooth="yes"/>
      <point x="241" y="284"/>
      <point x="242" y="319"/>
      <point x="242" y="337" type="curve"/>
      <point x="279" y="343"/>
      <point x="307" y="347"/>
      <point x="337" y="348" type="curve" smooth="yes"/>
      <point x="343" y="348" type="line"/>
      <point x="343" y="324"/>
      <point x="345" y="290"/>
      <point x="345" y="266" type="curve"/>
    </contour>
  </outline>
</glyph>
<glyph name="dollar" format="1">
  <advance width="507"/>
  <unicode hex="0024"/>
  <outline>
    <contour>
      <point x="277" y="695" type="move" name="top"/>
    </contour>
    <contour>
      <point x="114" y="93" type="curve" smooth="yes"/>
      <point x="114" y="8"/>
      <point x="187" y="-5"/>
      <point x="229" y="-6" type="curve"/>
      <point x="229" y="-63"/>
      <point x="232" y="-82"/>
      <point x="233" y="-88" type="curve" smooth="yes"/>
      <point x="239" y="-122"/>
      <point x="252" y="-134"/>
      <point x="275" y="-134" type="curve" smooth="yes"/>
      <point x="289" y="-134"/>
      <point x="306" y="-117"/>
      <point x="306" y="-85" type="curve" smooth="yes"/>
      <point x="306" y="-60"/>
      <point x="298" y="-25"/>
      <point x="295" y="4" type="curve"/>
      <point x="357" y="24"/>
      <point x="433" y="71"/>
      <point x="433" y="158" type="curve" smooth="yes"/>
      <point x="433" y="337"/>
      <point x="156" y="272"/>
      <point x="156" y="361" type="curve" smooth="yes"/>
      <point x="156" y="418"/>
      <point x="237" y="471"/>
      <point x="282" y="471" type="curve" smooth="yes"/>
      <point x="322" y="471"/>
      <point x="348" y="458"/>
      <point x="348" y="416" type="curve" smooth="yes"/>
      <point x="348" y="393"/>
      <point x="349" y="373"/>
      <point x="367" y="373" type="curve" smooth="yes"/>
      <point x="396" y="373"/>
      <point x="399" y="421"/>
      <point x="399" y="455" type="curve" smooth="yes"/>
      <point x="399" y="509"/>
      <point x="357" y="559"/>
      <point x="294" y="559" type="curve" smooth="yes"/>
      <point x="284" y="559" type="line"/>
      <point x="287" y="587"/>
      <point x="291" y="615"/>
      <point x="293" y="637" type="curve"/>
      <point x="293" y="662"/>
      <point x="291" y="684"/>
      <point x="270" y="684" type="curve" smooth="yes"/>
      <point x="231" y="684"/>
      <point x="221" y="603"/>
      <point x="218" y="543" type="curve"/>
      <point x="151" y="514"/>
      <point x="94" y="448"/>
      <point x="94" y="352" type="curve" smooth="yes"/>
      <point x="94" y="182"/>
      <point x="370" y="228"/>
      <point x="370" y="153" type="curve" smooth="yes"/>
      <point x="370" y="123"/>
      <point x="300" y="83"/>
      <point x="245" y="83" type="curve" smooth="yes"/>
      <point x="199" y="83"/>
      <point x="184" y="84"/>
      <point x="156" y="139" type="curve" smooth="yes"/>
      <point x="151" y="149"/>
      <point x="146" y="155"/>
      <point x="145" y="155" type="curve" smooth="yes"/>
      <point x="128" y="155"/>
      <point x="114" y="110"/>
    </contour>
  </outline>
</glyph>
<glyph name="ampersand" format="1">
  <advance width="440"/>
  <unicode hex="0026"/>
  <outline>
    <contour>
      <point x="66" y="108" type="curve" smooth="yes"/>
      <point x="66" y="55"/>
      <point x="76" y="-2"/>
      <point x="145" y="-2" type="curve" smooth="yes"/>
      <point x="183" y="-2"/>
      <point x="243" y="37"/>
      <point x="248" y="40" type="curve"/>
      <point x="282" y="3" type="line" smooth="yes"/>
      <point x="290" y="-6"/>
      <point x="301" y="-12"/>
      <point x="306" y="-12" type="curve" smooth="yes"/>
      <point x="322" y="-12"/>
      <point x="340" y="-4"/>
      <point x="340" y="20" type="curve" smooth="yes"/>
      <point x="340" y="53"/>
      <point x="318" y="72"/>
      <point x="306" y="89" type="curve"/>
      <point x="336" y="125"/>
      <point x="390" y="174"/>
      <point x="390" y="233" type="curve" smooth="yes"/>
      <point x="390" y="259"/>
      <point x="386" y="283"/>
      <point x="357" y="283" type="curve" smooth="yes"/>
      <point x="324" y="283"/>
      <point x="329" y="210"/>
      <point x="304" y="189" type="curve"/>
      <point x="259" y="140" type="line"/>
      <point x="241" y="166"/>
      <point x="197" y="266"/>
      <point x="192" y="304" type="curve"/>
      <point x="206" y="346"/>
      <point x="216" y="366"/>
      <point x="216" y="392" type="curve" smooth="yes"/>
      <point x="216" y="431"/>
      <point x="208" y="454"/>
      <point x="180" y="454" type="curve" smooth="yes"/>
      <point x="139" y="454"/>
      <point x="116" y="401"/>
      <point x="116" y="356" type="curve" smooth="yes"/>
      <point x="116" y="340"/>
      <point x="123" y="325"/>
      <point x="123" y="309" type="curve" smooth="yes"/>
      <point x="123" y="294"/>
      <point x="112" y="283"/>
      <point x="104" y="265" type="curve" smooth="yes"/>
      <point x="83" y="219"/>
      <point x="66" y="164"/>
    </contour>
    <contour>
      <point x="127" y="121" type="curve" smooth="yes"/>
      <point x="127" y="153"/>
      <point x="138" y="188"/>
      <point x="148" y="224" type="curve"/>
      <point x="168" y="194"/>
      <point x="192" y="134"/>
      <point x="210" y="104" type="curve"/>
      <point x="193" y="95"/>
      <point x="161" y="86"/>
      <point x="154" y="86" type="curve" smooth="yes"/>
      <point x="139" y="86"/>
      <point x="127" y="100"/>
    </contour>
  </outline>
</glyph>
<glyph name="quotesingle" format="1">
  <advance width="197"/>
  <unicode hex="0027"/>
  <outline>
    <contour>
      <point x="106" y="314" type="curve" smooth="yes"/>
      <point x="120" y="314"/>
      <point x="137" y="331"/>
      <point x="137" y="363" type="curve" smooth="yes"/>
      <point x="137" y="394"/>
      <point x="125" y="440"/>
      <point x="125" y="474" type="curve" smooth="yes"/>
      <point x="125" y="518"/>
      <point x="133" y="567"/>
      <point x="135" y="601" type="curve"/>
      <point x="135" y="626"/>
      <point x="133" y="648"/>
      <point x="112" y="648" type="curve" smooth="yes"/>
      <point x="60" y="648"/>
      <point x="60" y="503"/>
      <point x="60" y="455" type="curve" smooth="yes"/>
      <point x="60" y="387"/>
      <point x="63" y="366"/>
      <point x="64" y="360" type="curve" smooth="yes"/>
      <point x="70" y="326"/>
      <point x="83" y="314"/>
    </contour>
  </outline>
</glyph>
<glyph name="parenright" format="1">
  <advance width="255"/>
  <unicode hex="0029"/>
  <outline>
    <contour>
      <point x="43" y="-24" type="curve" smooth="yes"/>
      <point x="43" y="-49"/>
      <point x="64" y="-67"/>
      <point x="83" y="-67" type="curve" smooth="yes"/>
      <point x="95" y="-67"/>
      <point x="110" y="-46"/>
      <point x="126" y="-27" type="curve" smooth="yes"/>
      <point x="133" y="-18" type="line" smooth="yes"/>
      <point x="180" y="37"/>
      <point x="218" y="143"/>
      <point x="218" y="239" type="curve" smooth="yes"/>
      <point x="218" y="361"/>
      <point x="192" y="493"/>
      <point x="126" y="575" type="curve"/>
      <point x="126" y="575"/>
      <point x="107" y="592"/>
      <point x="95" y="592" type="curve" smooth="yes"/>
      <point x="76" y="592"/>
      <point x="61" y="584"/>
      <point x="61" y="549" type="curve" smooth="yes"/>
      <point x="61" y="529"/>
      <point x="90" y="490"/>
      <point x="105" y="467" type="curve" smooth="yes"/>
      <point x="140" y="414"/>
      <point x="154" y="289"/>
      <point x="154" y="231" type="curve" smooth="yes"/>
      <point x="154" y="168"/>
      <point x="116" y="77"/>
      <point x="77" y="38" type="curve" smooth="yes"/>
      <point x="61" y="22"/>
      <point x="43" y="2"/>
    </contour>
  </outline>
</glyph>
<glyph name="asterisk" format="1">
  <advance width="513"/>
  <unicode hex="002A"/>
  <outline>
    <contour>
      <point x="210" y="145" type="curve" smooth="yes"/>
      <point x="231" y="145"/>
      <point x="262" y="274"/>
      <point x="274" y="331" type="curve"/>
      <point x="278" y="331"/>
      <point x="278" y="329"/>
      <point x="281" y="329" type="curve"/>
      <point x="329" y="315"/>
      <point x="380" y="277"/>
      <point x="398" y="277" type="curve" smooth="yes"/>
      <point x="419" y="277"/>
      <point x="431" y="306"/>
      <point x="431" y="332" type="curve" smooth="yes"/>
      <point x="431" y="351"/>
      <point x="423" y="386"/>
      <point x="404" y="386" type="curve" smooth="yes"/>
      <point x="398" y="386"/>
      <point x="389" y="383"/>
      <point x="384" y="383" type="curve" smooth="yes"/>
      <point x="377" y="383"/>
      <point x="354" y="392"/>
      <point x="350" y="394" type="curve"/>
      <point x="419" y="426" type="line" smooth="yes"/>
      <point x="429" y="430"/>
      <point x="455" y="441"/>
      <point x="455" y="472" type="curve" smooth="yes"/>
      <point x="455" y="508"/>
      <point x="430" y="518"/>
      <point x="422" y="518" type="curve" smooth="yes"/>
      <point x="400" y="518"/>
      <point x="339" y="476"/>
      <point x="304" y="449" type="curve"/>
      <point x="314" y="488"/>
      <point x="355" y="586"/>
      <point x="355" y="611" type="curve" smooth="yes"/>
      <point x="355" y="634"/>
      <point x="334" y="647"/>
      <point x="322" y="647" type="curve" smooth="yes"/>
      <point x="288" y="647"/>
      <point x="254" y="485"/>
      <point x="240" y="438" type="curve"/>
      <point x="188" y="450"/>
      <point x="150" y="510"/>
      <point x="111" y="510" type="curve" smooth="yes"/>
      <point x="96" y="510"/>
      <point x="73" y="500"/>
      <point x="73" y="462" type="curve" smooth="yes"/>
      <point x="73" y="444"/>
      <point x="78" y="427"/>
      <point x="92" y="422" type="curve"/>
      <point x="175" y="384" type="line"/>
      <point x="164" y="379"/>
      <point x="152" y="376"/>
      <point x="90" y="351" type="curve" smooth="yes"/>
      <point x="77" y="346"/>
      <point x="64" y="336"/>
      <point x="64" y="308" type="curve" smooth="yes"/>
      <point x="64" y="287"/>
      <point x="83" y="260"/>
      <point x="106" y="260" type="curve" smooth="yes"/>
      <point x="108" y="260"/>
      <point x="114" y="261"/>
      <point x="119" y="264" type="curve" smooth="yes"/>
      <point x="207" y="315" type="line"/>
      <point x="199" y="296"/>
      <point x="166" y="214"/>
      <point x="166" y="199" type="curve" smooth="yes"/>
      <point x="166" y="164"/>
      <point x="188" y="145"/>
    </contour>
  </outline>
</glyph>
<glyph name="plus" format="1">
  <advance width="449"/>
  <unicode hex="002B"/>
  <outline>
    <contour>
      <point x="189" y="100" type="curve" smooth="yes"/>
      <point x="189" y="62"/>
      <point x="204" y="54"/>
      <point x="223" y="54" type="curve" smooth="yes"/>
      <point x="244" y="54"/>
      <point x="262" y="56"/>
      <point x="262" y="113" type="curve"/>
      <point x="259" y="196" type="line"/>
      <point x="260" y="205"/>
      <point x="273" y="207"/>
      <point x="288" y="207" type="curve" smooth="yes"/>
      <point x="306" y="207"/>
      <point x="326" y="204"/>
      <point x="334" y="204" type="curve" smooth="yes"/>
      <point x="357" y="204"/>
      <point x="384" y="208"/>
      <point x="384" y="254" type="curve" smooth="yes"/>
      <point x="384" y="262" type="line" smooth="yes"/>
      <point x="384" y="282"/>
      <point x="379" y="310"/>
      <point x="355" y="310" type="curve" smooth="yes"/>
      <point x="348" y="310"/>
      <point x="336" y="304"/>
      <point x="330" y="300" type="curve"/>
      <point x="319" y="295"/>
      <point x="294" y="295"/>
      <point x="263" y="295" type="curve"/>
      <point x="262" y="303"/>
      <point x="261" y="316"/>
      <point x="261" y="317" type="curve" smooth="yes"/>
      <point x="262" y="342"/>
      <point x="265" y="390"/>
      <point x="265" y="390" type="curve"/>
      <point x="265" y="415"/>
      <point x="265" y="431"/>
      <point x="243" y="431" type="curve" smooth="yes"/>
      <point x="202" y="431"/>
      <point x="197" y="383"/>
      <point x="197" y="336" type="curve" smooth="yes"/>
      <point x="197" y="320"/>
      <point x="198" y="304"/>
      <point x="198" y="290" type="curve"/>
      <point x="117" y="296" type="line"/>
      <point x="93" y="296"/>
      <point x="65" y="286"/>
      <point x="65" y="240" type="curve" smooth="yes"/>
      <point x="65" y="219"/>
      <point x="74" y="200"/>
      <point x="90" y="200" type="curve" smooth="yes"/>
      <point x="196" y="200" type="line"/>
      <point x="195" y="165"/>
      <point x="189" y="132"/>
    </contour>
  </outline>
</glyph>
<glyph name="period" format="1">
  <advance width="166"/>
  <unicode hex="002E"/>
  <outline>
    <contour>
      <point x="37" y="53" type="curve" smooth="yes"/>
      <point x="37" y="12"/>
      <point x="49" y="-8"/>
      <point x="79" y="-8" type="curve" smooth="yes"/>
      <point x="100" y="-8"/>
      <point x="123" y="22"/>
      <point x="123" y="53" type="curve" smooth="yes"/>
      <point x="123" y="80"/>
      <point x="102" y="116"/>
      <point x="81" y="116" type="curve" smooth="yes"/>
      <point x="51" y="116"/>
      <point x="37" y="88"/>
    </contour>
  </outline>
</glyph>
<glyph name="slash" format="1">
  <advance width="285"/>
  <unicode hex="002F"/>
  <outline>
    <contour>
      <point x="14" y="-37" type="curve"/>
      <point x="14" y="-74"/>
      <point x="44" y="-84"/>
      <point x="59" y="-84" type="curve" smooth="yes"/>
      <point x="71" y="-84"/>
      <point x="86" y="-57"/>
      <point x="86" y="-33" type="curve"/>
      <point x="175" y="332"/>
      <point x="213" y="476"/>
      <point x="259" y="604" type="curve" smooth="yes"/>
      <point x="261" y="608"/>
      <point x="263" y="616"/>
      <point x="263" y="620" type="curve" smooth="yes"/>
      <point x="263" y="650"/>
      <point x="251" y="665"/>
      <point x="233" y="665" type="curve" smooth="yes"/>
      <point x="220" y="665"/>
      <point x="203" y="635"/>
      <point x="197" y="617" type="curve" smooth="yes"/>
      <point x="139" y="442"/>
      <point x="64" y="158"/>
    </contour>
  </outline>
</glyph>
<glyph name="zero" format="1">
  <advance width="545"/>
  <unicode hex="0030"/>
  <outline>
    <contour>
      <point x="58" y="255" type="curve" smooth="yes"/>
      <point x="58" y="111"/>
      <point x="147" y="-5"/>
      <point x="266" y="-5" type="curve" smooth="yes"/>
      <point x="387" y="-5"/>
      <point x="480" y="104"/>
      <point x="480" y="268" type="curve" smooth="yes"/>
      <point x="480" y="442"/>
      <point x="412" y="545"/>
      <point x="278" y="545" type="curve" smooth="yes"/>
      <point x="162" y="545"/>
      <point x="58" y="461"/>
    </contour>
    <contour>
      <point x="264" y="82" type="curve" smooth="yes"/>
      <point x="185" y="82"/>
      <point x="124" y="175"/>
      <point x="124" y="270" type="curve" smooth="yes"/>
      <point x="124" y="394"/>
      <point x="197" y="453"/>
      <point x="286" y="453" type="curve" smooth="yes"/>
      <point x="366" y="453"/>
      <point x="417" y="386"/>
      <point x="417" y="272" type="curve" smooth="yes"/>
      <point x="417" y="146"/>
      <point x="351" y="82"/>
    </contour>
  </outline>
</glyph>
<glyph name="one" format="1">
  <advance width="219"/>
  <unicode hex="0031"/>
  <outline>
    <contour>
      <point x="113" y="-2" type="curve" smooth="yes"/>
      <point x="128" y="-2"/>
      <point x="142" y="17"/>
      <point x="142" y="41" type="curve" smooth="yes"/>
      <point x="142" y="59"/>
      <point x="140" y="84"/>
      <point x="137" y="104" type="curve"/>
      <point x="136" y="249"/>
      <point x="151" y="401"/>
      <point x="154" y="518" type="curve"/>
      <point x="154" y="554"/>
      <point x="122" y="567"/>
      <point x="113" y="567" type="curve" smooth="yes"/>
      <point x="97" y="567"/>
      <point x="75" y="537"/>
      <point x="75" y="514" type="curve" smooth="yes"/>
      <point x="75" y="487"/>
      <point x="85" y="478"/>
      <point x="91" y="464" type="curve"/>
      <point x="88" y="349"/>
      <point x="72" y="185"/>
      <point x="72" y="94" type="curve" smooth="yes"/>
      <point x="72" y="39"/>
      <point x="78" y="-2"/>
    </contour>
  </outline>
</glyph>
<glyph name="three" format="1">
  <advance width="444"/>
  <unicode hex="0033"/>
  <outline>
    <contour>
      <point x="43" y="39" type="curve" smooth="yes"/>
      <point x="43" y="20"/>
      <point x="48" y="-3"/>
      <point x="71" y="-3" type="curve" smooth="yes"/>
      <point x="261" y="-3"/>
      <point x="372" y="13"/>
      <point x="372" y="198" type="curve" smooth="yes"/>
      <point x="372" y="244"/>
      <point x="340" y="300"/>
      <point x="305" y="319" type="curve"/>
      <point x="356" y="377"/>
      <point x="381" y="438"/>
      <point x="381" y="469" type="curve" smooth="yes"/>
      <point x="381" y="536"/>
      <point x="350" y="565"/>
      <point x="288" y="565" type="curve" smooth="yes"/>
      <point x="245" y="565"/>
      <point x="121" y="539"/>
      <point x="121" y="468" type="curve" smooth="yes"/>
      <point x="121" y="450"/>
      <point x="140" y="435"/>
      <point x="152" y="435" type="curve" smooth="yes"/>
      <point x="158" y="435"/>
      <point x="162" y="438"/>
      <point x="167" y="441" type="curve" smooth="yes"/>
      <point x="192" y="459"/>
      <point x="239" y="477"/>
      <point x="273" y="477" type="curve" smooth="yes"/>
      <point x="283" y="477"/>
      <point x="306" y="476"/>
      <point x="315" y="476" type="curve"/>
      <point x="313" y="428"/>
      <point x="258" y="376"/>
      <point x="219" y="347" type="curve"/>
      <point x="183" y="335"/>
      <point x="127" y="311"/>
      <point x="127" y="265" type="curve" smooth="yes"/>
      <point x="127" y="238"/>
      <point x="140" y="224"/>
      <point x="164" y="224" type="curve" smooth="yes"/>
      <point x="187" y="224"/>
      <point x="204" y="242"/>
      <point x="228" y="242" type="curve" smooth="yes"/>
      <point x="269" y="242"/>
      <point x="308" y="213"/>
      <point x="308" y="183" type="curve" smooth="yes"/>
      <point x="308" y="92"/>
      <point x="199" y="87"/>
      <point x="148" y="87" type="curve" smooth="yes"/>
      <point x="87" y="87"/>
      <point x="107" y="101"/>
      <point x="67" y="101" type="curve" smooth="yes"/>
      <point x="51" y="101"/>
      <point x="43" y="59"/>
    </contour>
  </outline>
</glyph>
<glyph name="five" format="1">
  <advance width="463"/>
  <unicode hex="0035"/>
  <outline>
    <contour>
      <point x="56" y="62" type="curve" smooth="yes"/>
      <point x="56" y="-2"/>
      <point x="142" y="-12"/>
      <point x="185" y="-12" type="curve" smooth="yes"/>
      <point x="292" y="-12"/>
      <point x="373" y="47"/>
      <point x="373" y="173" type="curve" smooth="yes"/>
      <point x="373" y="275"/>
      <point x="337" y="361"/>
      <point x="219" y="361" type="curve" smooth="yes"/>
      <point x="198" y="361"/>
      <point x="181" y="353"/>
      <point x="162" y="353" type="curve"/>
      <point x="166" y="482" type="line"/>
      <point x="173" y="482"/>
      <point x="185" y="483"/>
      <point x="201" y="483" type="curve" smooth="yes"/>
      <point x="244" y="483"/>
      <point x="310" y="481"/>
      <point x="336" y="478" type="curve"/>
      <point x="350" y="478"/>
      <point x="362" y="465"/>
      <point x="379" y="465" type="curve" smooth="yes"/>
      <point x="396" y="465"/>
      <point x="411" y="483"/>
      <point x="411" y="512" type="curve" smooth="yes"/>
      <point x="411" y="538"/>
      <point x="403" y="569"/>
      <point x="376" y="569" type="curve" smooth="yes"/>
      <point x="323" y="569"/>
      <point x="269" y="562"/>
      <point x="216" y="562" type="curve" smooth="yes"/>
      <point x="188" y="562"/>
      <point x="159" y="562"/>
      <point x="131" y="559" type="curve"/>
      <point x="88" y="537"/>
      <point x="103" y="352"/>
      <point x="91" y="281" type="curve" smooth="yes"/>
      <point x="90" y="277"/>
      <point x="90" y="273"/>
      <point x="90" y="269" type="curve" smooth="yes"/>
      <point x="90" y="236"/>
      <point x="117" y="232"/>
      <point x="140" y="232" type="curve"/>
      <point x="159" y="243"/>
      <point x="185" y="260"/>
      <point x="217" y="260" type="curve" smooth="yes"/>
      <point x="284" y="260"/>
      <point x="312" y="186"/>
      <point x="312" y="167" type="curve" smooth="yes"/>
      <point x="312" y="97"/>
      <point x="249" y="81"/>
      <point x="171" y="81" type="curve" smooth="yes"/>
      <point x="122" y="81"/>
      <point x="115" y="110"/>
      <point x="91" y="110" type="curve" smooth="yes"/>
      <point x="74" y="110"/>
      <point x="56" y="85"/>
    </contour>
  </outline>
</glyph>
<glyph name="seven" format="1">
  <advance width="383"/>
  <unicode hex="0037"/>
  <outline>
    <contour>
      <point x="114" y="45" type="curve" smooth="yes"/>
      <point x="114" y="20"/>
      <point x="118" y="-5"/>
      <point x="141" y="-5" type="curve" smooth="yes"/>
      <point x="176" y="-5"/>
      <point x="182" y="28"/>
      <point x="187" y="62" type="curve"/>
      <point x="192" y="105"/>
      <point x="221" y="173"/>
      <point x="234" y="199" type="curve"/>
      <point x="327" y="424"/>
      <point x="347" y="497"/>
      <point x="347" y="521" type="curve" smooth="yes"/>
      <point x="347" y="544"/>
      <point x="340" y="571"/>
      <point x="321" y="571" type="curve" smooth="yes"/>
      <point x="317" y="571"/>
      <point x="309" y="568"/>
      <point x="305" y="566" type="curve"/>
      <point x="266" y="566"/>
      <point x="235" y="566"/>
      <point x="209" y="566" type="curve" smooth="yes"/>
      <point x="106" y="566"/>
      <point x="92" y="567"/>
      <point x="69" y="567" type="curve" smooth="yes"/>
      <point x="49" y="567"/>
      <point x="38" y="545"/>
      <point x="38" y="527" type="curve" smooth="yes"/>
      <point x="38" y="479"/>
      <point x="84" y="475"/>
      <point x="108" y="475" type="curve"/>
      <point x="271" y="479" type="line"/>
      <point x="236" y="399"/>
      <point x="118" y="84"/>
      <point x="116" y="67" type="curve" smooth="yes"/>
      <point x="114" y="52"/>
      <point x="114" y="48"/>
    </contour>
  </outline>
</glyph>
<glyph name="eight" format="1">
  <advance width="401"/>
  <unicode hex="0038"/>
  <outline>
    <contour>
      <point x="61" y="98" type="curve" smooth="yes"/>
      <point x="61" y="4"/>
      <point x="117" y="-12"/>
      <point x="176" y="-12" type="curve" smooth="yes"/>
      <point x="249" y="-12"/>
      <point x="289" y="34"/>
      <point x="289" y="114" type="curve" smooth="yes"/>
      <point x="289" y="158"/>
      <point x="264" y="252"/>
      <point x="241" y="294" type="curve"/>
      <point x="268" y="314"/>
      <point x="307" y="363"/>
      <point x="326" y="387" type="curve"/>
      <point x="349" y="398"/>
      <point x="362" y="418"/>
      <point x="362" y="452" type="curve" smooth="yes"/>
      <point x="362" y="505"/>
      <point x="332" y="571"/>
      <point x="282" y="571" type="curve" smooth="yes"/>
      <point x="211" y="571"/>
      <point x="94" y="536"/>
      <point x="94" y="417" type="curve" smooth="yes"/>
      <point x="94" y="375"/>
      <point x="114" y="338"/>
      <point x="136" y="309" type="curve"/>
      <point x="84" y="264"/>
      <point x="61" y="162"/>
    </contour>
    <contour>
      <point x="195" y="362" type="curve" smooth="yes"/>
      <point x="188" y="362"/>
      <point x="161" y="408"/>
      <point x="161" y="417" type="curve" smooth="yes"/>
      <point x="162" y="460"/>
      <point x="233" y="479"/>
      <point x="267" y="479" type="curve" smooth="yes"/>
      <point x="282" y="479"/>
      <point x="302" y="478"/>
      <point x="306" y="469" type="curve"/>
      <point x="276" y="441"/>
      <point x="226" y="362"/>
    </contour>
    <contour>
      <point x="124" y="124" type="curve" smooth="yes"/>
      <point x="124" y="148"/>
      <point x="156" y="242"/>
      <point x="182" y="242" type="curve" smooth="yes"/>
      <point x="200" y="242"/>
      <point x="223" y="125"/>
      <point x="223" y="106" type="curve" smooth="yes"/>
      <point x="223" y="89"/>
      <point x="194" y="84"/>
      <point x="169" y="84" type="curve" smooth="yes"/>
      <point x="137" y="84"/>
      <point x="124" y="92"/>
    </contour>
  </outline>
</glyph>
<glyph name="colon" format="1">
  <advance width="166"/>
  <unicode hex="003A"/>
  <outline>
    <contour>
      <point x="91" y="284" type="curve" smooth="yes"/>
      <point x="110" y="284"/>
      <point x="126" y="305"/>
      <point x="126" y="348" type="curve" smooth="yes"/>
      <point x="126" y="389"/>
      <point x="106" y="414"/>
      <point x="99" y="414" type="curve" smooth="yes"/>
      <point x="77" y="414"/>
      <point x="40" y="385"/>
      <point x="40" y="353" type="curve" smooth="yes"/>
      <point x="40" y="299"/>
      <point x="58" y="284"/>
    </contour>
    <contour>
      <point x="37" y="53" type="curve" smooth="yes"/>
      <point x="37" y="12"/>
      <point x="49" y="-8"/>
      <point x="79" y="-8" type="curve" smooth="yes"/>
      <point x="100" y="-8"/>
      <point x="123" y="22"/>
      <point x="123" y="53" type="curve" smooth="yes"/>
      <point x="123" y="80"/>
      <point x="102" y="116"/>
      <point x="81" y="116" type="curve" smooth="yes"/>
      <point x="51" y="116"/>
      <point x="37" y="88"/>
    </contour>
  </outline>
</glyph>
<glyph name="question" format="1">
  <advance width="414"/>
  <unicode hex="003F"/>
  <outline>
    <contour>
      <point x="165" y="142" type="curve" smooth="yes"/>
      <point x="189" y="142"/>
      <point x="191" y="163"/>
      <point x="191" y="185" type="curve" smooth="yes"/>
      <point x="191" y="215"/>
      <point x="236" y="243"/>
      <point x="264" y="262" type="curve"/>
      <point x="338" y="302"/>
      <point x="369" y="359"/>
      <point x="369" y="448" type="curve" smooth="yes"/>
      <point x="369" y="555"/>
      <point x="306" y="610"/>
      <point x="219" y="610" type="curve" smooth="yes"/>
      <point x="187" y="610"/>
      <point x="88" y="573"/>
      <point x="88" y="513" type="curve" smooth="yes"/>
      <point x="88" y="483"/>
      <point x="100" y="477"/>
      <point x="111" y="477" type="curve" smooth="yes"/>
      <point x="152" y="479"/>
      <point x="170" y="526"/>
      <point x="218" y="526" type="curve" smooth="yes"/>
      <point x="263" y="526"/>
      <point x="317" y="502"/>
      <point x="317" y="439" type="curve" smooth="yes"/>
      <point x="317" y="319"/>
      <point x="111" y="313"/>
      <point x="111" y="200" type="curve" smooth="yes"/>
      <point x="111" y="169"/>
      <point x="139" y="142"/>
    </contour>
    <contour>
      <point x="97" y="45" type="curve" smooth="yes"/>
      <point x="97" y="3"/>
      <point x="132" y="-5"/>
      <point x="148" y="-5" type="curve" smooth="yes"/>
      <point x="178" y="-5"/>
      <point x="193" y="16"/>
      <point x="193" y="56" type="curve" smooth="yes"/>
      <point x="193" y="97"/>
      <point x="167" y="107"/>
      <point x="147" y="107" type="curve" smooth="yes"/>
      <point x="125" y="107"/>
      <point x="97" y="76"/>
    </contour>
  </outline>
</glyph>
<glyph name="at" format="1">
  <advance width="801"/>
  <unicode hex="0040"/>
  <outline>
    <contour>
      <point x="80" y="137" type="curve" smooth="yes"/>
      <point x="80" y="-165"/>
      <point x="275" y="-201"/>
      <point x="431" y="-201" type="curve" smooth="yes"/>
      <point x="499" y="-201"/>
      <point x="672" y="-175"/>
      <point x="672" y="-125" type="curve" smooth="yes"/>
      <point x="672" y="-90"/>
      <point x="632" y="-91"/>
      <point x="636" y="-91" type="curve" smooth="yes"/>
      <point x="600" y="-91"/>
      <point x="533" y="-130"/>
      <point x="442" y="-130" type="curve" smooth="yes"/>
      <point x="229" y="-130"/>
      <point x="127" y="-64"/>
      <point x="127" y="134" type="curve" smooth="yes"/>
      <point x="127" y="347"/>
      <point x="281" y="480"/>
      <point x="445" y="480" type="curve" smooth="yes"/>
      <point x="576" y="480"/>
      <point x="671" y="386"/>
      <point x="671" y="247" type="curve" smooth="yes"/>
      <point x="671" y="163"/>
      <point x="665" y="59"/>
      <point x="602" y="59" type="curve" smooth="yes"/>
      <point x="576" y="59" type="line" smooth="yes"/>
      <point x="559" y="59"/>
      <point x="543" y="60"/>
      <point x="534" y="68" type="curve"/>
      <point x="544" y="146" type="line"/>
      <point x="544" y="258"/>
      <point x="504" y="369"/>
      <point x="421" y="369" type="curve" smooth="yes"/>
      <point x="341" y="369"/>
      <point x="276" y="238"/>
      <point x="276" y="136" type="curve" smooth="yes"/>
      <point x="276" y="52"/>
      <point x="310" y="-8"/>
      <point x="382" y="-8" type="curve" smooth="yes"/>
      <point x="400" y="-8"/>
      <point x="439" y="11"/>
      <point x="472" y="61" type="curve"/>
      <point x="511" y="9"/>
      <point x="553" y="-7"/>
      <point x="587" y="-7" type="curve" smooth="yes"/>
      <point x="691" y="-7"/>
      <point x="721" y="128"/>
      <point x="721" y="247" type="curve" smooth="yes"/>
      <point x="721" y="462"/>
      <point x="595" y="566"/>
      <point x="451" y="566" type="curve" smooth="yes"/>
      <point x="259" y="566"/>
      <point x="80" y="385"/>
    </contour>
    <contour>
      <point x="334" y="129" type="curve" smooth="yes"/>
      <point x="335" y="192"/>
      <point x="361" y="284"/>
      <point x="424" y="284" type="curve" smooth="yes"/>
      <point x="454" y="284"/>
      <point x="493" y="264"/>
      <point x="493" y="231" type="curve" smooth="yes"/>
      <point x="493" y="200"/>
      <point x="470" y="79"/>
      <point x="386" y="79" type="curve" smooth="yes"/>
      <point x="342" y="79"/>
      <point x="334" y="108"/>
    </contour>
  </outline>
</glyph>
<glyph name="B" format="1">
  <advance width="474"/>
  <unicode hex="0042"/>
  <outline>
    <contour>
      <point x="220" y="656" type="move" name="top"/>
    </contour>
    <contour>
      <point x="66" y="39" type="curve" smooth="yes"/>
      <point x="66" y="7"/>
      <point x="101" y="-9"/>
      <point x="119" y="-9" type="curve" smooth="yes"/>
      <point x="130" y="-9"/>
      <point x="139" y="0"/>
      <point x="148" y="0" type="curve" smooth="yes"/>
      <point x="156" y="0"/>
      <point x="160" y="-2"/>
      <point x="165" y="-2" type="curve" smooth="yes"/>
      <point x="304" y="-2"/>
      <point x="430" y="65"/>
      <point x="430" y="219" type="curve" smooth="yes"/>
      <point x="430" y="303"/>
      <point x="384" y="355"/>
      <point x="318" y="380" type="curve"/>
      <point x="331" y="400"/>
      <point x="347" y="430"/>
      <point x="347" y="473" type="curve" smooth="yes"/>
      <point x="347" y="529"/>
      <point x="290" y="561"/>
      <point x="252" y="561" type="curve" smooth="yes"/>
      <point x="213" y="561"/>
      <point x="158" y="554"/>
      <point x="112" y="539" type="curve" smooth="yes"/>
      <point x="79" y="528"/>
      <point x="72" y="432"/>
      <point x="72" y="368" type="curve"/>
      <point x="69" y="64"/>
      <point x="66" y="51"/>
    </contour>
    <contour>
      <point x="136" y="376" type="curve"/>
      <point x="139" y="448" type="line" smooth="yes"/>
      <point x="140" y="469"/>
      <point x="207" y="475"/>
      <point x="226" y="475" type="curve" smooth="yes"/>
      <point x="262" y="475"/>
      <point x="285" y="469"/>
      <point x="285" y="459" type="curve" smooth="yes"/>
      <point x="285" y="439"/>
      <point x="256" y="416"/>
      <point x="238" y="405" type="curve"/>
      <point x="156" y="376"/>
      <point x="148" y="376"/>
    </contour>
    <contour>
      <point x="139" y="90" type="curve"/>
      <point x="135" y="124"/>
      <point x="135" y="158"/>
      <point x="135" y="192" type="curve" smooth="yes"/>
      <point x="135" y="206"/>
      <point x="135" y="219"/>
      <point x="135" y="232" type="curve" smooth="yes"/>
      <point x="135" y="243"/>
      <point x="136" y="266"/>
      <point x="136" y="277" type="curve"/>
      <point x="188" y="283"/>
      <point x="212" y="311"/>
      <point x="241" y="311" type="curve" smooth="yes"/>
      <point x="300" y="311"/>
      <point x="369" y="281"/>
      <point x="369" y="225" type="curve" smooth="yes"/>
      <point x="369" y="94"/>
      <point x="230" y="98"/>
    </contour>
  </outline>
</glyph>
<glyph name="D" format="1">
  <advance width="516"/>
  <unicode hex="0044"/>
  <outline>
    <contour>
      <point x="236" y="688" type="move" name="top"/>
    </contour>
    <contour>
      <point x="105" y="-8" type="curve" smooth="yes"/>
      <point x="108" y="-8"/>
      <point x="119" y="-3"/>
      <point x="131" y="2" type="curve"/>
      <point x="152" y="-2"/>
      <point x="189" y="-3"/>
      <point x="206" y="-3" type="curve" smooth="yes"/>
      <point x="315" y="-3"/>
      <point x="489" y="79"/>
      <point x="489" y="261" type="curve" smooth="yes"/>
      <point x="489" y="443"/>
      <point x="319" y="560"/>
      <point x="206" y="560" type="curve" smooth="yes"/>
      <point x="139" y="560" type="line" smooth="yes"/>
      <point x="110" y="560"/>
      <point x="73" y="549"/>
      <point x="72" y="482" type="curve" smooth="yes"/>
      <point x="65" y="104" type="line" smooth="yes"/>
      <point x="64" y="63"/>
      <point x="72" y="-8"/>
    </contour>
    <contour>
      <point x="142" y="90" type="curve"/>
      <point x="133" y="144"/>
      <point x="132" y="235"/>
      <point x="132" y="304" type="curve" smooth="yes"/>
      <point x="132" y="382" type="line" smooth="yes"/>
      <point x="132" y="411"/>
      <point x="134" y="445"/>
      <point x="139" y="473" type="curve"/>
      <point x="158" y="476"/>
      <point x="199" y="477"/>
      <point x="215" y="477" type="curve" smooth="yes"/>
      <point x="313" y="477"/>
      <point x="420" y="375"/>
      <point x="420" y="248" type="curve" smooth="yes"/>
      <point x="420" y="132"/>
      <point x="303" y="87"/>
      <point x="222" y="87" type="curve" smooth="yes"/>
      <point x="168" y="87" type="line" smooth="yes"/>
      <point x="156" y="87"/>
      <point x="144" y="88"/>
    </contour>
  </outline>
</glyph>
<glyph name="E" format="1">
  <advance width="454"/>
  <unicode hex="0045"/>
  <outline>
    <contour>
      <point x="251" y="688" type="move" name="top"/>
    </contour>
    <contour>
      <point x="72" y="53" type="line" smooth="yes"/>
      <point x="71" y="18"/>
      <point x="88" y="-6"/>
      <point x="111" y="-6" type="curve" smooth="yes"/>
      <point x="144" y="-6"/>
      <point x="173" y="-1"/>
      <point x="201" y="-1" type="curve" smooth="yes"/>
      <point x="300" y="-1"/>
      <point x="318" y="-10"/>
      <point x="369" y="-10" type="curve" smooth="yes"/>
      <point x="394" y="-10"/>
      <point x="418" y="1"/>
      <point x="418" y="38" type="curve" smooth="yes"/>
      <point x="418" y="64"/>
      <point x="413" y="92"/>
      <point x="387" y="92" type="curve" smooth="yes"/>
      <point x="299" y="92"/>
      <point x="217" y="99"/>
      <point x="137" y="99" type="curve"/>
      <point x="134" y="247" type="line"/>
      <point x="137" y="248"/>
      <point x="141" y="248"/>
      <point x="150" y="248" type="curve" smooth="yes"/>
      <point x="168" y="248"/>
      <point x="208" y="247"/>
      <point x="309" y="247" type="curve" smooth="yes"/>
      <point x="331" y="247"/>
      <point x="339" y="281"/>
      <point x="339" y="292" type="curve" smooth="yes"/>
      <point x="339" y="325"/>
      <point x="324" y="338"/>
      <point x="305" y="338" type="curve" smooth="yes"/>
      <point x="133" y="336" type="line"/>
      <point x="133" y="368"/>
      <point x="135" y="440"/>
      <point x="135" y="470" type="curve"/>
      <point x="164" y="469"/>
      <point x="232" y="468"/>
      <point x="411" y="467" type="curve" smooth="yes"/>
      <point x="428" y="467"/>
      <point x="442" y="495"/>
      <point x="442" y="517" type="curve" smooth="yes"/>
      <point x="442" y="556"/>
      <point x="429" y="558"/>
      <point x="389" y="558" type="curve" smooth="yes"/>
      <point x="331" y="558"/>
      <point x="226" y="556"/>
      <point x="168" y="556" type="curve" smooth="yes"/>
      <point x="147" y="556"/>
      <point x="130" y="564"/>
      <point x="110" y="564" type="curve" smooth="yes"/>
      <point x="74" y="564"/>
      <point x="74" y="516"/>
      <point x="74" y="482" type="curve" smooth="yes"/>
      <point x="74" y="411"/>
      <point x="75" y="344"/>
      <point x="76" y="317" type="curve"/>
      <point x="72" y="307"/>
      <point x="70" y="296"/>
      <point x="70" y="291" type="curve" smooth="yes"/>
      <point x="70" y="278"/>
      <point x="75" y="267"/>
      <point x="75" y="257" type="curve" smooth="yes"/>
    </contour>
  </outline>
</glyph>
<glyph name="I" format="1">
  <advance width="310"/>
  <unicode hex="0049"/>
  <outline>
    <contour>
      <point x="173" y="695" type="move" name="top"/>
    </contour>
    <contour>
      <point x="49" y="45" type="curve" smooth="yes"/>
      <point x="49" y="9"/>
      <point x="93" y="0"/>
      <point x="109" y="0" type="curve" smooth="yes"/>
      <point x="224" y="0" type="line" smooth="yes"/>
      <point x="240" y="0"/>
      <point x="262" y="17"/>
      <point x="262" y="42" type="curve" smooth="yes"/>
      <point x="262" y="64"/>
      <point x="255" y="82"/>
      <point x="242" y="92" type="curve"/>
      <point x="225" y="92"/>
      <point x="217" y="91"/>
      <point x="189" y="91" type="curve"/>
      <point x="185" y="127"/>
      <point x="184" y="169"/>
      <point x="184" y="207" type="curve" smooth="yes"/>
      <point x="184" y="339"/>
      <point x="190" y="432"/>
      <point x="193" y="470" type="curve"/>
      <point x="226" y="470" type="line" smooth="yes"/>
      <point x="236" y="470"/>
      <point x="239" y="462"/>
      <point x="247" y="462" type="curve" smooth="yes"/>
      <point x="264" y="462"/>
      <point x="296" y="479"/>
      <point x="296" y="518" type="curve" smooth="yes"/>
      <point x="296" y="532"/>
      <point x="277" y="564"/>
      <point x="262" y="564" type="curve" smooth="yes"/>
      <point x="253" y="564"/>
      <point x="230" y="557"/>
      <point x="220" y="557" type="curve" smooth="yes"/>
      <point x="180" y="557"/>
      <point x="161" y="556"/>
      <point x="117" y="556" type="curve" smooth="yes"/>
      <point x="75" y="556"/>
      <point x="63" y="541"/>
      <point x="63" y="506" type="curve" smooth="yes"/>
      <point x="63" y="504" type="line" smooth="yes"/>
      <point x="63" y="464"/>
      <point x="87" y="463"/>
      <point x="107" y="463" type="curve" smooth="yes"/>
      <point x="132" y="463" type="line"/>
      <point x="125" y="378"/>
      <point x="120" y="200"/>
      <point x="120" y="114" type="curve" smooth="yes"/>
      <point x="120" y="93" type="line"/>
      <point x="81" y="96" type="line"/>
      <point x="63" y="96"/>
      <point x="49" y="70"/>
    </contour>
  </outline>
</glyph>
<glyph name="J" format="1">
  <advance width="364"/>
  <unicode hex="004A"/>
  <outline>
    <contour>
      <point x="287" y="688" type="move" name="top"/>
    </contour>
    <contour>
      <point x="30" y="65" type="curve" smooth="yes"/>
      <point x="30" y="4"/>
      <point x="92" y="-8"/>
      <point x="119" y="-8" type="curve" smooth="yes"/>
      <point x="190" y="-8"/>
      <point x="251" y="27"/>
      <point x="296" y="114" type="curve" smooth="yes"/>
      <point x="306" y="134"/>
      <point x="316" y="260"/>
      <point x="316" y="320" type="curve" smooth="yes"/>
      <point x="316" y="362"/>
      <point x="318" y="406"/>
      <point x="318" y="445" type="curve" smooth="yes"/>
      <point x="318" y="510"/>
      <point x="313" y="560"/>
      <point x="288" y="560" type="curve" smooth="yes"/>
      <point x="259" y="560"/>
      <point x="249" y="524"/>
      <point x="249" y="493" type="curve" smooth="yes"/>
      <point x="249" y="377"/>
      <point x="246" y="284"/>
      <point x="246" y="179" type="curve" smooth="yes"/>
      <point x="246" y="127"/>
      <point x="184" y="83"/>
      <point x="131" y="83" type="curve" smooth="yes"/>
      <point x="98" y="83"/>
      <point x="89" y="119"/>
      <point x="67" y="119" type="curve" smooth="yes"/>
      <point x="43" y="119"/>
      <point x="30" y="87"/>
    </contour>
  </outline>
</glyph>
<glyph name="M" format="1">
  <advance width="586"/>
  <unicode hex="004D"/>
  <outline>
    <contour>
      <point x="317" y="656" type="move" name="top"/>
    </contour>
    <contour>
      <point x="65" y="54" type="curve" smooth="yes"/>
      <point x="65" y="24"/>
      <point x="72" y="-2"/>
      <point x="107" y="-2" type="curve" smooth="yes"/>
      <point x="128" y="-2"/>
      <point x="136" y="25"/>
      <point x="136" y="67" type="curve" smooth="yes"/>
      <point x="136" y="68"/>
      <point x="135" y="71"/>
      <point x="130" y="102" type="curve"/>
      <point x="130" y="186"/>
      <point x="131" y="288"/>
      <point x="135" y="342" type="curve"/>
      <point x="176" y="240" type="line" smooth="yes"/>
      <point x="190" y="206"/>
      <point x="244" y="87"/>
      <point x="269" y="87" type="curve" smooth="yes"/>
      <point x="313" y="86"/>
      <point x="362" y="194"/>
      <point x="410" y="281" type="curve" smooth="yes"/>
      <point x="427" y="312" type="line" smooth="yes"/>
      <point x="439" y="333"/>
      <point x="447" y="354"/>
      <point x="458" y="370" type="curve"/>
      <point x="454" y="122" type="line" smooth="yes"/>
      <point x="454" y="99"/>
      <point x="438" y="72"/>
      <point x="438" y="43" type="curve" smooth="yes"/>
      <point x="438" y="0"/>
      <point x="482" y="-9"/>
      <point x="484" y="-9" type="curve" smooth="yes"/>
      <point x="490" y="-9"/>
      <point x="510" y="1"/>
      <point x="511" y="28" type="curve" smooth="yes"/>
      <point x="519" y="320" type="line" smooth="yes"/>
      <point x="521" y="383"/>
      <point x="526" y="439"/>
      <point x="526" y="503" type="curve" smooth="yes"/>
      <point x="526" y="535"/>
      <point x="513" y="555"/>
      <point x="489" y="555" type="curve" smooth="yes"/>
      <point x="476" y="555"/>
      <point x="459" y="533"/>
      <point x="455" y="511" type="curve"/>
      <point x="411" y="419"/>
      <point x="329" y="271"/>
      <point x="310" y="240" type="curve" smooth="yes"/>
      <point x="291" y="208"/>
      <point x="282" y="201"/>
      <point x="274" y="201" type="curve"/>
      <point x="261" y="218"/>
      <point x="219" y="320"/>
      <point x="202" y="359" type="curve" smooth="yes"/>
      <point x="171" y="429"/>
      <point x="154" y="477"/>
      <point x="151" y="506" type="curve" smooth="yes"/>
      <point x="151" y="511" type="line" smooth="yes"/>
      <point x="151" y="533"/>
      <point x="139" y="559"/>
      <point x="121" y="559" type="curve" smooth="yes"/>
      <point x="66" y="559"/>
      <point x="74" y="425"/>
      <point x="68" y="111" type="curve" smooth="yes"/>
      <point x="68" y="95"/>
      <point x="65" y="74"/>
    </contour>
  </outline>
</glyph>
<glyph name="N" format="1">
  <advance width="494"/>
  <unicode hex="004E"/>
  <outline>
    <contour>
      <point x="254" y="695" type="move" name="top"/>
    </contour>
    <contour>
      <point x="70" y="70" type="line" smooth="yes"/>
      <point x="69" y="30"/>
      <point x="74" y="-3"/>
      <point x="110" y="-3" type="curve" smooth="yes"/>
      <point x="134" y="-3"/>
      <point x="143" y="26"/>
      <point x="143" y="83" type="curve" smooth="yes"/>
      <point x="143" y="114"/>
      <point x="135" y="85"/>
      <point x="135" y="209" type="curve" smooth="yes"/>
      <point x="135" y="230"/>
      <point x="135" y="305"/>
      <point x="136" y="337" type="curve"/>
      <point x="183" y="226"/>
      <point x="257" y="100"/>
      <point x="329" y="10" type="curve"/>
      <point x="333" y="2"/>
      <point x="347" y="-13"/>
      <point x="359" y="-13" type="curve" smooth="yes"/>
      <point x="407" y="-13"/>
      <point x="410" y="39"/>
      <point x="412" y="86" type="curve" smooth="yes"/>
      <point x="412" y="98" type="line"/>
      <point x="426" y="248"/>
      <point x="438" y="374"/>
      <point x="438" y="517" type="curve" smooth="yes"/>
      <point x="438" y="566"/>
      <point x="428" y="570"/>
      <point x="405" y="570" type="curve" smooth="yes"/>
      <point x="376" y="570"/>
      <point x="371" y="544"/>
      <point x="369" y="472" type="curve" smooth="yes"/>
      <point x="359" y="107"/>
      <point x="356" y="111"/>
      <point x="352" y="111" type="curve" smooth="yes"/>
      <point x="340" y="111"/>
      <point x="191" y="324"/>
      <point x="162" y="469" type="curve" smooth="yes"/>
      <point x="152" y="516"/>
      <point x="139" y="558"/>
      <point x="104" y="558" type="curve" smooth="yes"/>
      <point x="85" y="558"/>
      <point x="75" y="518"/>
      <point x="75" y="500" type="curve" smooth="yes"/>
      <point x="75" y="435"/>
      <point x="77" y="415"/>
      <point x="77" y="399" type="curve" smooth="yes"/>
      <point x="77" y="358"/>
      <point x="77" y="323"/>
      <point x="72" y="225" type="curve"/>
    </contour>
  </outline>
</glyph>
<glyph name="W" format="1">
  <advance width="574"/>
  <unicode hex="0057"/>
  <outline>
    <contour>
      <point x="298" y="688" type="move" name="top"/>
    </contour>
    <contour>
      <point x="119" y="37" type="curve" smooth="yes"/>
      <point x="123" y="10"/>
      <point x="134" y="-10"/>
      <point x="160" y="-10" type="curve" smooth="yes"/>
      <point x="176" y="-10"/>
      <point x="207" y="67"/>
      <point x="212" y="83" type="curve" smooth="yes"/>
      <point x="236" y="161"/>
      <point x="264" y="259"/>
      <point x="284" y="317" type="curve"/>
      <point x="300" y="235"/>
      <point x="298" y="265"/>
      <point x="330" y="94" type="curve" smooth="yes"/>
      <point x="339" y="44"/>
      <point x="345" y="-2"/>
      <point x="374" y="-2" type="curve" smooth="yes"/>
      <point x="413" y="-2"/>
      <point x="437" y="100"/>
      <point x="449" y="153" type="curve" smooth="yes"/>
      <point x="493" y="352"/>
      <point x="522" y="423"/>
      <point x="555" y="477" type="curve" smooth="yes"/>
      <point x="565" y="492"/>
      <point x="575" y="500"/>
      <point x="575" y="521" type="curve" smooth="yes"/>
      <point x="575" y="543"/>
      <point x="560" y="573"/>
      <point x="539" y="573" type="curve" smooth="yes"/>
      <point x="515" y="573"/>
      <point x="499" y="516"/>
      <point x="488" y="488" type="curve" smooth="yes"/>
      <point x="467" y="433"/>
      <point x="434" y="337"/>
      <point x="410" y="247" type="curve" smooth="yes"/>
      <point x="383" y="148" type="line"/>
      <point x="376" y="199"/>
      <point x="363" y="247"/>
      <point x="354" y="310" type="curve" smooth="yes"/>
      <point x="341" y="404"/>
      <point x="328" y="499"/>
      <point x="304" y="499" type="curve" smooth="yes"/>
      <point x="276" y="499"/>
      <point x="222" y="316"/>
      <point x="186" y="207" type="curve" smooth="yes"/>
      <point x="167" y="149" type="line"/>
      <point x="162" y="164"/>
      <point x="159" y="181"/>
      <point x="159" y="194" type="curve" smooth="yes"/>
      <point x="159" y="271"/>
      <point x="133" y="314"/>
      <point x="113" y="407" type="curve" smooth="yes"/>
      <point x="102" y="458"/>
      <point x="99" y="560"/>
      <point x="64" y="560" type="curve" smooth="yes"/>
      <point x="44" y="560"/>
      <point x="32" y="523"/>
      <point x="32" y="507" type="curve" smooth="yes"/>
      <point x="32" y="491"/>
      <point x="36" y="467"/>
      <point x="41" y="445" type="curve" smooth="yes"/>
      <point x="70" y="302"/>
      <point x="100" y="168"/>
    </contour>
  </outline>
</glyph>
<glyph name="X" format="1">
  <advance width="353"/>
  <unicode hex="0058"/>
  <outline>
    <contour>
      <point x="182" y="688" type="move" name="top"/>
    </contour>
    <contour>
      <point x="38" y="58" type="curve" smooth="yes"/>
      <point x="38" y="21"/>
      <point x="51" y="-9"/>
      <point x="79" y="-9" type="curve" smooth="yes"/>
      <point x="108" y="-9"/>
      <point x="112" y="25"/>
      <point x="112" y="59" type="curve" smooth="yes"/>
      <point x="112" y="80"/>
      <point x="154" y="152"/>
      <point x="164" y="181" type="curve"/>
      <point x="210" y="65"/>
      <point x="238" y="-13"/>
      <point x="299" y="-13" type="curve" smooth="yes"/>
      <point x="318" y="-13"/>
      <point x="322" y="3"/>
      <point x="322" y="28" type="curve" smooth="yes"/>
      <point x="322" y="79"/>
      <point x="295" y="80"/>
      <point x="279" y="110" type="curve" smooth="yes"/>
      <point x="257" y="152"/>
      <point x="202" y="258"/>
      <point x="202" y="280" type="curve"/>
      <point x="229" y="347"/>
      <point x="288" y="437"/>
      <point x="318" y="521" type="curve" smooth="yes"/>
      <point x="320" y="526"/>
      <point x="321" y="532"/>
      <point x="321" y="537" type="curve" smooth="yes"/>
      <point x="321" y="553"/>
      <point x="312" y="565"/>
      <point x="300" y="565" type="curve" smooth="yes"/>
      <point x="256" y="565"/>
      <point x="236" y="483"/>
      <point x="172" y="360" type="curve"/>
      <point x="147" y="404"/>
      <point x="97" y="555"/>
      <point x="59" y="560" type="curve"/>
      <point x="47" y="560"/>
      <point x="34" y="531"/>
      <point x="34" y="513" type="curve" smooth="yes"/>
      <point x="34" y="466"/>
      <point x="86" y="377"/>
      <point x="96" y="356" type="curve" smooth="yes"/>
      <point x="115" y="314"/>
      <point x="128" y="297"/>
      <point x="134" y="285" type="curve"/>
      <point x="118" y="247" type="line" smooth="yes"/>
      <point x="99" y="203"/>
      <point x="38" y="83"/>
    </contour>
  </outline>
</glyph>
<glyph name="Y" format="1">
  <advance width="366"/>
  <unicode hex="0059"/>
  <outline>
    <contour>
      <point x="207" y="688" type="move" name="top"/>
    </contour>
    <contour>
      <point x="94" y="34" type="curve" smooth="yes"/>
      <point x="94" y="10"/>
      <point x="124" y="-13"/>
      <point x="134" y="-13" type="curve" smooth="yes"/>
      <point x="144" y="-13"/>
      <point x="157" y="16"/>
      <point x="160" y="27" type="curve"/>
      <point x="200" y="135"/>
      <point x="323" y="373"/>
      <point x="362" y="465" type="curve" smooth="yes"/>
      <point x="381" y="509"/>
      <point x="390" y="518"/>
      <point x="390" y="527" type="curve" smooth="yes"/>
      <point x="390" y="547"/>
      <point x="382" y="565"/>
      <point x="368" y="565" type="curve" smooth="yes"/>
      <point x="325" y="565"/>
      <point x="283" y="449"/>
      <point x="236" y="353" type="curve" smooth="yes"/>
      <point x="196" y="271" type="line"/>
      <point x="165" y="320"/>
      <point x="74" y="506"/>
      <point x="56" y="535" type="curve" smooth="yes"/>
      <point x="45" y="554"/>
      <point x="39" y="558"/>
      <point x="29" y="558" type="curve" smooth="yes"/>
      <point x="15" y="558"/>
      <point x="3" y="539"/>
      <point x="3" y="519" type="curve" smooth="yes"/>
      <point x="3" y="460"/>
      <point x="130" y="240"/>
      <point x="148" y="213" type="curve" smooth="yes"/>
      <point x="151" y="208"/>
      <point x="153" y="199"/>
      <point x="153" y="196" type="curve" smooth="yes"/>
      <point x="153" y="195"/>
      <point x="143" y="176"/>
      <point x="138" y="167" type="curve" smooth="yes"/>
      <point x="114" y="123"/>
      <point x="95" y="67"/>
    </contour>
  </outline>
</glyph>
<glyph name="underscore" format="1">
  <advance width="452"/>
  <unicode hex="005F"/>
  <outline>
    <contour>
      <point x="-2" y="-65" type="line" smooth="yes"/>
      <point x="-19" y="-65"/>
      <point x="-31" y="-89"/>
      <point x="-31" y="-107" type="curve" smooth="yes"/>
      <point x="-31" y="-114" type="line" smooth="yes"/>
      <point x="-31" y="-126"/>
      <point x="-28" y="-141"/>
      <point x="-6" y="-141" type="curve" smooth="yes"/>
      <point x="462" y="-141" type="line" smooth="yes"/>
      <point x="479" y="-141"/>
      <point x="492" y="-138"/>
      <point x="492" y="-106" type="curve" smooth="yes"/>
      <point x="492" y="-75"/>
      <point x="479" y="-65"/>
      <point x="462" y="-65" type="curve" smooth="yes"/>
    </contour>
  </outline>
</glyph>
<glyph name="a" format="1">
  <advance width="469"/>
  <unicode hex="0061"/>
  <outline>
    <contour>
      <point x="241" y="695" type="move" name="top"/>
    </contour>
    <contour>
      <point x="21" y="172" type="curve" smooth="yes"/>
      <point x="21" y="70"/>
      <point x="111" y="-10"/>
      <point x="188" y="-10" type="curve" smooth="yes"/>
      <point x="248" y="-10"/>
      <point x="298" y="35"/>
      <point x="338" y="86" type="curve"/>
      <point x="338" y="39"/>
      <point x="379" y="-6"/>
      <point x="415" y="-6" type="curve" smooth="yes"/>
      <point x="453" y="-6"/>
      <point x="481" y="31"/>
      <point x="481" y="62" type="curve" smooth="yes"/>
      <point x="481" y="89"/>
      <point x="474" y="100"/>
      <point x="455" y="100" type="curve"/>
      <point x="446" y="97"/>
      <point x="434" y="78"/>
      <point x="422" y="78" type="curve" smooth="yes"/>
      <point x="402" y="78"/>
      <point x="391" y="91"/>
      <point x="391" y="128" type="curve" smooth="yes"/>
      <point x="391" y="183"/>
      <point x="404" y="217"/>
      <point x="404" y="262" type="curve" smooth="yes"/>
      <point x="404" y="348"/>
      <point x="331" y="442"/>
      <point x="239" y="442" type="curve" smooth="yes"/>
      <point x="119" y="442"/>
      <point x="21" y="304"/>
    </contour>
    <contour>
      <point x="83" y="175" type="curve" smooth="yes"/>
      <point x="83" y="258"/>
      <point x="147" y="353"/>
      <point x="246" y="353" type="curve" smooth="yes"/>
      <point x="284" y="353"/>
      <point x="346" y="305"/>
      <point x="346" y="276" type="curve"/>
      <point x="334" y="194"/>
      <point x="320" y="78"/>
      <point x="203" y="78" type="curve" smooth="yes"/>
      <point x="146" y="78"/>
      <point x="83" y="117"/>
    </contour>
  </outline>
</glyph>
<glyph name="b" format="1">
  <advance width="433"/>
  <unicode hex="0062"/>
  <outline>
    <contour>
      <point x="256" y="695" type="move" name="top"/>
    </contour>
    <contour>
      <point x="83" y="-6" type="curve" smooth="yes"/>
      <point x="98" y="-6"/>
      <point x="105" y="6"/>
      <point x="118" y="6" type="curve"/>
      <point x="138" y="-1"/>
      <point x="160" y="-5"/>
      <point x="181" y="-5" type="curve" smooth="yes"/>
      <point x="258" y="-5"/>
      <point x="394" y="54"/>
      <point x="394" y="226" type="curve" smooth="yes"/>
      <point x="394" y="368"/>
      <point x="336" y="441"/>
      <point x="223" y="441" type="curve" smooth="yes"/>
      <point x="185" y="441"/>
      <point x="149" y="424"/>
      <point x="116" y="405" type="curve"/>
      <point x="116" y="514"/>
      <point x="120" y="572"/>
      <point x="120" y="638" type="curve" smooth="yes"/>
      <point x="120" y="660"/>
      <point x="100" y="674"/>
      <point x="89" y="674" type="curve" smooth="yes"/>
      <point x="63" y="674"/>
      <point x="56" y="655"/>
      <point x="56" y="630" type="curve" smooth="yes"/>
      <point x="49" y="131" type="line"/>
      <point x="49" y="91" type="line" smooth="yes"/>
      <point x="49" y="32"/>
      <point x="52" y="-6"/>
    </contour>
    <contour>
      <point x="122" y="90" type="curve"/>
      <point x="118" y="99"/>
      <point x="115" y="115"/>
      <point x="115" y="210" type="curve" smooth="yes"/>
      <point x="115" y="236"/>
      <point x="115" y="268"/>
      <point x="116" y="307" type="curve"/>
      <point x="134" y="332"/>
      <point x="179" y="353"/>
      <point x="211" y="353" type="curve" smooth="yes"/>
      <point x="255" y="353"/>
      <point x="329" y="314"/>
      <point x="329" y="254" type="curve" smooth="yes"/>
      <point x="329" y="220"/>
      <point x="322" y="170"/>
      <point x="310" y="149" type="curve" smooth="yes"/>
      <point x="287" y="111"/>
      <point x="223" y="82"/>
      <point x="181" y="82" type="curve" smooth="yes"/>
      <point x="162" y="82"/>
      <point x="134" y="83"/>
    </contour>
  </outline>
</glyph>
<glyph name="c" format="1">
  <advance width="402"/>
  <unicode hex="0063"/>
  <outline>
    <contour>
      <point x="202" y="695" type="move" name="top"/>
    </contour>
    <contour>
      <point x="34" y="167" type="curve" smooth="yes"/>
      <point x="34" y="33"/>
      <point x="113" y="-5"/>
      <point x="208" y="-5" type="curve" smooth="yes"/>
      <point x="240" y="-5"/>
      <point x="267" y="-1"/>
      <point x="299" y="-1" type="curve" smooth="yes"/>
      <point x="326" y="-1" type="line" smooth="yes"/>
      <point x="340" y="-1"/>
      <point x="364" y="27"/>
      <point x="364" y="49" type="curve" smooth="yes"/>
      <point x="364" y="91"/>
      <point x="338" y="104"/>
      <point x="328" y="104" type="curve"/>
      <point x="302" y="97"/>
      <point x="290" y="83"/>
      <point x="259" y="83" type="curve" smooth="yes"/>
      <point x="146" y="83"/>
      <point x="95" y="104"/>
      <point x="95" y="194" type="curve" smooth="yes"/>
      <point x="95" y="271"/>
      <point x="149" y="347"/>
      <point x="227" y="347" type="curve" smooth="yes"/>
      <point x="312" y="347"/>
      <point x="310" y="269"/>
      <point x="341" y="269" type="curve" smooth="yes"/>
      <point x="357" y="269"/>
      <point x="362" y="303"/>
      <point x="362" y="319" type="curve" smooth="yes"/>
      <point x="362" y="389"/>
      <point x="307" y="439"/>
      <point x="243" y="439" type="curve" smooth="yes"/>
      <point x="108" y="439"/>
      <point x="34" y="316"/>
    </contour>
  </outline>
</glyph>
<glyph name="k" format="1">
  <advance width="410"/>
  <unicode hex="006B"/>
  <outline>
    <contour>
      <point x="244" y="695" type="move" name="top"/>
    </contour>
    <contour>
      <point x="59" y="42" type="curve" smooth="yes"/>
      <point x="59" y="26"/>
      <point x="68" y="-7"/>
      <point x="94" y="-7" type="curve" smooth="yes"/>
      <point x="117" y="-7"/>
      <point x="131" y="23"/>
      <point x="131" y="45" type="curve" smooth="yes"/>
      <point x="131" y="75"/>
      <point x="129" y="111"/>
      <point x="129" y="138" type="curve"/>
      <point x="218" y="244" type="line"/>
      <point x="296" y="32"/>
      <point x="303" y="22"/>
      <point x="303" y="22" type="curve"/>
      <point x="309" y="-3"/>
      <point x="319" y="-13"/>
      <point x="333" y="-13" type="curve" smooth="yes"/>
      <point x="354" y="-13"/>
      <point x="374" y="9"/>
      <point x="374" y="39" type="curve" smooth="yes"/>
      <point x="374" y="51"/>
      <point x="360" y="85"/>
      <point x="360" y="85" type="curve"/>
      <point x="337" y="135"/>
      <point x="340" y="116"/>
      <point x="316" y="171" type="curve" smooth="yes"/>
      <point x="297" y="212"/>
      <point x="284" y="257"/>
      <point x="266" y="299" type="curve"/>
      <point x="307" y="337"/>
      <point x="374" y="391"/>
      <point x="374" y="423" type="curve" smooth="yes"/>
      <point x="374" y="428" type="line" smooth="yes"/>
      <point x="374" y="457"/>
      <point x="366" y="470"/>
      <point x="340" y="470" type="curve" smooth="yes"/>
      <point x="329" y="470"/>
      <point x="317" y="458"/>
      <point x="308" y="446" type="curve" smooth="yes"/>
      <point x="129" y="212" type="line"/>
      <point x="129" y="219" type="line" smooth="yes"/>
      <point x="129" y="365"/>
      <point x="146" y="493"/>
      <point x="146" y="630" type="curve" smooth="yes"/>
      <point x="146" y="661"/>
      <point x="126" y="678"/>
      <point x="115" y="678" type="curve" smooth="yes"/>
      <point x="100" y="678"/>
      <point x="81" y="658"/>
      <point x="80" y="632" type="curve" smooth="yes"/>
      <point x="67" y="165" type="line" smooth="yes"/>
      <point x="66" y="139"/>
      <point x="61" y="124"/>
      <point x="60" y="80" type="curve" smooth="yes"/>
      <point x="60" y="69"/>
      <point x="59" y="51"/>
    </contour>
  </outline>
</glyph>
<glyph name="m" format="1">
  <advance width="687"/>
  <unicode hex="006D"/>
  <outline>
    <contour>
      <point x="334" y="695" type="move" name="top"/>
    </contour>
    <contour>
      <point x="51" y="57" type="line" smooth="yes"/>
      <point x="51" y="7"/>
      <point x="66" y="-6"/>
      <point x="91" y="-6" type="curve" smooth="yes"/>
      <point x="100" y="-6"/>
      <point x="125" y="11"/>
      <point x="126" y="41" type="curve"/>
      <point x="118" y="147" type="line" smooth="yes"/>
      <point x="116" y="177"/>
      <point x="114" y="211"/>
      <point x="114" y="243" type="curve" smooth="yes"/>
      <point x="114" y="261" type="line" smooth="yes"/>
      <point x="114" y="322"/>
      <point x="135" y="348"/>
      <point x="203" y="348" type="curve" smooth="yes"/>
      <point x="255" y="348"/>
      <point x="288" y="283"/>
      <point x="287" y="231" type="curve" smooth="yes"/>
      <point x="285" y="93" type="line" smooth="yes"/>
      <point x="285" y="84"/>
      <point x="280" y="49"/>
      <point x="280" y="47" type="curve" smooth="yes"/>
      <point x="280" y="4"/>
      <point x="304" y="-4"/>
      <point x="325" y="-4" type="curve" smooth="yes"/>
      <point x="343" y="-4"/>
      <point x="356" y="22"/>
      <point x="356" y="52" type="curve" smooth="yes"/>
      <point x="356" y="55"/>
      <point x="352" y="78"/>
      <point x="352" y="80" type="curve" smooth="yes"/>
      <point x="357" y="267" type="line"/>
      <point x="373" y="309"/>
      <point x="429" y="337"/>
      <point x="462" y="337" type="curve" smooth="yes"/>
      <point x="531" y="337"/>
      <point x="569" y="276"/>
      <point x="569" y="226" type="curve" smooth="yes"/>
      <point x="569" y="201"/>
      <point x="568" y="179"/>
      <point x="568" y="154" type="curve" smooth="yes"/>
      <point x="568" y="105"/>
      <point x="549" y="93"/>
      <point x="549" y="46" type="curve" smooth="yes"/>
      <point x="549" y="23"/>
      <point x="567" y="-10"/>
      <point x="592" y="-10" type="curve" smooth="yes"/>
      <point x="622" y="-10"/>
      <point x="635" y="88"/>
      <point x="635" y="186" type="curve" smooth="yes"/>
      <point x="635" y="353"/>
      <point x="568" y="422"/>
      <point x="465" y="422" type="curve" smooth="yes"/>
      <point x="420" y="422"/>
      <point x="346" y="385"/>
      <point x="333" y="319" type="curve"/>
      <point x="333" y="405"/>
      <point x="245" y="436"/>
      <point x="204" y="436" type="curve" smooth="yes"/>
      <point x="164" y="436"/>
      <point x="123" y="403"/>
      <point x="110" y="368" type="curve"/>
      <point x="110" y="377" type="line" smooth="yes"/>
      <point x="110" y="416"/>
      <point x="97" y="425"/>
      <point x="83" y="425" type="curve" smooth="yes"/>
      <point x="53" y="425"/>
      <point x="51" y="364"/>
      <point x="51" y="258" type="curve" smooth="yes"/>
      <point x="51" y="240"/>
      <point x="51" y="221"/>
      <point x="51" y="200" type="curve" smooth="yes"/>
      <point x="51" y="171"/>
      <point x="52" y="133"/>
      <point x="52" y="83" type="curve" smooth="yes"/>
      <point x="52" y="76"/>
      <point x="51" y="69"/>
      <point x="51" y="62" type="curve" smooth="yes"/>
    </contour>
  </outline>
</glyph>
<glyph name="r" format="1">
  <advance width="371"/>
  <unicode hex="0072"/>
  <outline>
    <contour>
      <point x="220" y="695" type="move" name="top"/>
    </contour>
    <contour>
      <point x="58" y="54" type="curve" smooth="yes"/>
      <point x="58" y="16"/>
      <point x="66" y="-2"/>
      <point x="96" y="-2" type="curve" smooth="yes"/>
      <point x="122" y="-2"/>
      <point x="131" y="33"/>
      <point x="131" y="45" type="curve" smooth="yes"/>
      <point x="126" y="186" type="line"/>
      <point x="126" y="203" type="line" smooth="yes"/>
      <point x="126" y="306"/>
      <point x="161" y="360"/>
      <point x="256" y="360" type="curve" smooth="yes"/>
      <point x="266" y="360" type="line" smooth="yes"/>
      <point x="327" y="360"/>
      <point x="304" y="324"/>
      <point x="335" y="324" type="curve" smooth="yes"/>
      <point x="355" y="324"/>
      <point x="366" y="345"/>
      <point x="366" y="374" type="curve" smooth="yes"/>
      <point x="366" y="439"/>
      <point x="301" y="447"/>
      <point x="266" y="447" type="curve" smooth="yes"/>
      <point x="222" y="447"/>
      <point x="152" y="425"/>
      <point x="133" y="363" type="curve"/>
      <point x="134" y="372"/>
      <point x="134" y="379"/>
      <point x="134" y="386" type="curve" smooth="yes"/>
      <point x="134" y="426"/>
      <point x="119" y="437"/>
      <point x="108" y="437" type="curve" smooth="yes"/>
      <point x="86" y="437"/>
      <point x="75" y="417"/>
      <point x="73" y="388" type="curve" smooth="yes"/>
      <point x="58" y="192"/>
      <point x="59" y="180"/>
      <point x="59" y="144" type="curve" smooth="yes"/>
      <point x="59" y="116" type="line" smooth="yes"/>
      <point x="59" y="103"/>
      <point x="58" y="84"/>
    </contour>
  </outline>
</glyph>
<glyph name="s" format="1">
  <advance width="421"/>
  <unicode hex="0073"/>
  <outline>
    <contour>
      <point x="209" y="695" type="move" name="top"/>
    </contour>
    <contour>
      <point x="69" y="70" type="curve" smooth="yes"/>
      <point x="69" y="-5"/>
      <point x="148" y="-14"/>
      <point x="187" y="-14" type="curve" smooth="yes"/>
      <point x="241" y="-14"/>
      <point x="377" y="19"/>
      <point x="377" y="113" type="curve" smooth="yes"/>
      <point x="377" y="270"/>
      <point x="111" y="213"/>
      <point x="111" y="284" type="curve" smooth="yes"/>
      <point x="111" y="325"/>
      <point x="185" y="364"/>
      <point x="230" y="364" type="curve" smooth="yes"/>
      <point x="271" y="364"/>
      <point x="296" y="356"/>
      <point x="296" y="325" type="curve" smooth="yes"/>
      <point x="296" y="302"/>
      <point x="298" y="286"/>
      <point x="313" y="286" type="curve" smooth="yes"/>
      <point x="344" y="286"/>
      <point x="344" y="337"/>
      <point x="344" y="368" type="curve" smooth="yes"/>
      <point x="344" y="413"/>
      <point x="303" y="454"/>
      <point x="241" y="454" type="curve" smooth="yes"/>
      <point x="153" y="454"/>
      <point x="49" y="390"/>
      <point x="49" y="279" type="curve" smooth="yes"/>
      <point x="49" y="126"/>
      <point x="315" y="150"/>
      <point x="315" y="108" type="curve" smooth="yes"/>
      <point x="315" y="99"/>
      <point x="248" y="75"/>
      <point x="197" y="75" type="curve" smooth="yes"/>
      <point x="152" y="75"/>
      <point x="134" y="79"/>
      <point x="110" y="110" type="curve" smooth="yes"/>
      <point x="106" y="115"/>
      <point x="100" y="119"/>
      <point x="99" y="119" type="curve" smooth="yes"/>
      <point x="84" y="119"/>
      <point x="69" y="86"/>
    </contour>
  </outline>
</glyph>
<glyph name="t" format="1">
  <advance width="369"/>
  <unicode hex="0074"/>
  <outline>
    <contour>
      <point x="167" y="768" type="move" name="top"/>
    </contour>
    <contour>
      <point x="228" y="-5" type="curve" smooth="yes"/>
      <point x="261" y="-5"/>
      <point x="319" y="49"/>
      <point x="319" y="89" type="curve" smooth="yes"/>
      <point x="319" y="108"/>
      <point x="315" y="118"/>
      <point x="299" y="118" type="curve" smooth="yes"/>
      <point x="295" y="118"/>
      <point x="258" y="85"/>
      <point x="225" y="85" type="curve" smooth="yes"/>
      <point x="180" y="85"/>
      <point x="173" y="151"/>
      <point x="173" y="222" type="curve" smooth="yes"/>
      <point x="173" y="267"/>
      <point x="175" y="325"/>
      <point x="175" y="348" type="curve"/>
      <point x="317" y="346" type="line" smooth="yes"/>
      <point x="330" y="346"/>
      <point x="348" y="360"/>
      <point x="348" y="388" type="curve" smooth="yes"/>
      <point x="348" y="406"/>
      <point x="342" y="437"/>
      <point x="322" y="437" type="curve" smooth="yes"/>
      <point x="273" y="437"/>
      <point x="224" y="435"/>
      <point x="176" y="435" type="curve"/>
      <point x="179" y="453" type="line" smooth="yes"/>
      <point x="181" y="468"/>
      <point x="186" y="494"/>
      <point x="186" y="553" type="curve" smooth="yes"/>
      <point x="186" y="578"/>
      <point x="170" y="595"/>
      <point x="159" y="595" type="curve" smooth="yes"/>
      <point x="119" y="595"/>
      <point x="115" y="472"/>
      <point x="114" y="436" type="curve"/>
      <point x="94" y="437"/>
      <point x="77" y="438"/>
      <point x="60" y="438" type="curve" smooth="yes"/>
      <point x="40" y="438"/>
      <point x="21" y="417"/>
      <point x="21" y="390" type="curve" smooth="yes"/>
      <point x="21" y="362"/>
      <point x="49" y="346"/>
      <point x="60" y="346" type="curve" smooth="yes"/>
      <point x="79" y="346"/>
      <point x="94" y="348"/>
      <point x="109" y="348" type="curve"/>
      <point x="123" y="224"/>
      <point x="83" y="-5"/>
    </contour>
  </outline>
</glyph>
<glyph name="u" format="1">
  <advance width="431"/>
  <unicode hex="0075"/>
  <outline>
    <contour>
      <point x="212" y="695" type="move" name="top"/>
    </contour>
    <contour>
      <point x="193" y="-13" type="curve" smooth="yes"/>
      <point x="240" y="-13"/>
      <point x="295" y="37"/>
      <point x="311" y="107" type="curve"/>
      <point x="310" y="92"/>
      <point x="310" y="79"/>
      <point x="310" y="68" type="curve" smooth="yes"/>
      <point x="310" y="3"/>
      <point x="320" y="-5"/>
      <point x="345" y="-5" type="curve" smooth="yes"/>
      <point x="365" y="-5"/>
      <point x="374" y="4"/>
      <point x="375" y="39" type="curve" smooth="yes"/>
      <point x="381" y="405" type="line" smooth="yes"/>
      <point x="381" y="429"/>
      <point x="366" y="441"/>
      <point x="354" y="441" type="curve" smooth="yes"/>
      <point x="342" y="441"/>
      <point x="321" y="432"/>
      <point x="321" y="402" type="curve" smooth="yes"/>
      <point x="319" y="274" type="line" smooth="yes"/>
      <point x="318" y="246"/>
      <point x="316" y="219"/>
      <point x="313" y="176" type="curve"/>
      <point x="285" y="130"/>
      <point x="251" y="75"/>
      <point x="189" y="75" type="curve" smooth="yes"/>
      <point x="113" y="75"/>
      <point x="102" y="187"/>
      <point x="102" y="238" type="curve" smooth="yes"/>
      <point x="102" y="301"/>
      <point x="124" y="369"/>
      <point x="124" y="408" type="curve" smooth="yes"/>
      <point x="124" y="428"/>
      <point x="118" y="441"/>
      <point x="99" y="441" type="curve" smooth="yes"/>
      <point x="53" y="441"/>
      <point x="40" y="309"/>
      <point x="40" y="227" type="curve" smooth="yes"/>
      <point x="40" y="141"/>
      <point x="56" y="-13"/>
    </contour>
  </outline>
</glyph>
<glyph name="y" format="1">
  <advance width="405"/>
  <unicode hex="0079"/>
  <outline>
    <contour>
      <point x="224" y="695" type="move" name="top"/>
    </contour>
    <contour>
      <point x="124" y="-17" type="line"/>
      <point x="98" y="-63"/>
      <point x="66" y="-147"/>
      <point x="65" y="-180" type="curve" smooth="yes"/>
      <point x="65" y="-201"/>
      <point x="96" y="-230"/>
      <point x="111" y="-230" type="curve" smooth="yes"/>
      <point x="131" y="-230"/>
      <point x="143" y="-200"/>
      <point x="143" y="-176" type="curve" smooth="yes"/>
      <point x="143" y="-93"/>
      <point x="256" y="104"/>
      <point x="303" y="201" type="curve" smooth="yes"/>
      <point x="337" y="272"/>
      <point x="368" y="312"/>
      <point x="385" y="340" type="curve" smooth="yes"/>
      <point x="413" y="384"/>
      <point x="419" y="393"/>
      <point x="419" y="409" type="curve" smooth="yes"/>
      <point x="419" y="424"/>
      <point x="412" y="445"/>
      <point x="399" y="445" type="curve" smooth="yes"/>
      <point x="377" y="445"/>
      <point x="353" y="428"/>
      <point x="338" y="399" type="curve" smooth="yes"/>
      <point x="201" y="132" type="line"/>
      <point x="177" y="184"/>
      <point x="121" y="326"/>
      <point x="93" y="407" type="curve" smooth="yes"/>
      <point x="86" y="426"/>
      <point x="80" y="445"/>
      <point x="65" y="445" type="curve" smooth="yes"/>
      <point x="47" y="445"/>
      <point x="30" y="425"/>
      <point x="29" y="394" type="curve" smooth="yes"/>
      <point x="29" y="385"/>
      <point x="33" y="367"/>
      <point x="39" y="352" type="curve" smooth="yes"/>
      <point x="64" y="289"/>
      <point x="129" y="126"/>
      <point x="161" y="56" type="curve"/>
    </contour>
  </outline>
</glyph>
<glyph name="z" format="1">
  <advance width="380"/>
  <unicode hex="007A"/>
  <outline>
    <contour>
      <point x="200" y="695" type="move" name="top"/>
    </contour>
    <contour>
      <point x="83" y="47" type="curve" smooth="yes"/>
      <point x="83" y="-4"/>
      <point x="126" y="-4"/>
      <point x="160" y="-4" type="curve" smooth="yes"/>
      <point x="204" y="-4"/>
      <point x="243" y="-1"/>
      <point x="281" y="-1" type="curve" smooth="yes"/>
      <point x="296" y="-1"/>
      <point x="309" y="-6"/>
      <point x="323" y="-6" type="curve" smooth="yes"/>
      <point x="350" y="-6"/>
      <point x="367" y="22"/>
      <point x="367" y="45" type="curve" smooth="yes"/>
      <point x="367" y="66"/>
      <point x="358" y="111"/>
      <point x="337" y="111" type="curve" smooth="yes"/>
      <point x="336" y="111"/>
      <point x="332" y="110"/>
      <point x="330" y="109" type="curve" smooth="yes"/>
      <point x="299" y="91"/>
      <point x="246" y="80"/>
      <point x="205" y="80" type="curve" smooth="yes"/>
      <point x="192" y="80"/>
      <point x="180" y="81"/>
      <point x="170" y="84" type="curve"/>
      <point x="258" y="238"/>
      <point x="300" y="296"/>
      <point x="317" y="378" type="curve"/>
      <point x="317" y="399"/>
      <point x="311" y="439"/>
      <point x="287" y="439" type="curve" smooth="yes"/>
      <point x="261" y="439"/>
      <point x="233" y="432"/>
      <point x="206" y="432" type="curve" smooth="yes"/>
      <point x="66" y="432" type="line" smooth="yes"/>
      <point x="49" y="432"/>
      <point x="42" y="397"/>
      <point x="42" y="379" type="curve" smooth="yes"/>
      <point x="42" y="335"/>
      <point x="64" y="338"/>
      <point x="87" y="338" type="curve" smooth="yes"/>
      <point x="135" y="338"/>
      <point x="180" y="347"/>
      <point x="228" y="347" type="curve" smooth="yes"/>
      <point x="236" y="347"/>
      <point x="241" y="347"/>
      <point x="243" y="346" type="curve"/>
      <point x="213" y="265"/>
      <point x="83" y="79"/>
    </contour>
  </outline>
</glyph>
<glyph name="bar" format="1">
  <advance width="274"/>
  <unicode hex="007C"/>
  <outline>
    <contour>
      <point x="102" y="-16" type="curve" smooth="yes"/>
      <point x="102" y="-70"/>
      <point x="102" y="-124"/>
      <point x="102" y="-172" type="curve"/>
      <point x="103" y="-214"/>
      <point x="119" y="-228"/>
      <point x="147" y="-228" type="curve" smooth="yes"/>
      <point x="159" y="-228"/>
      <point x="173" y="-211"/>
      <point x="173" y="-178" type="curve" smooth="yes"/>
      <point x="173" y="-151" type="line" smooth="yes"/>
      <point x="176" y="500"/>
      <point x="182" y="585"/>
      <point x="182" y="615" type="curve" smooth="yes"/>
      <point x="182" y="639"/>
      <point x="176" y="658"/>
      <point x="157" y="658" type="curve" smooth="yes"/>
      <point x="138" y="658"/>
      <point x="128" y="638"/>
      <point x="125" y="617" type="curve" smooth="yes"/>
      <point x="113" y="549"/>
      <point x="106" y="295"/>
      <point x="104" y="224" type="curve" smooth="yes"/>
      <point x="102" y="149"/>
      <point x="102" y="65"/>
    </contour>
  </outline>
</glyph>
<glyph name="asciitilde" format="1">
  <advance width="574"/>
  <unicode hex="007E"/>
  <outline>
    <contour>
      <point x="116" y="220" type="curve" smooth="yes"/>
      <point x="134" y="220"/>
      <point x="159" y="292"/>
      <point x="193" y="292" type="curve" smooth="yes"/>
      <point x="255" y="292"/>
      <point x="302" y="217"/>
      <point x="381" y="217" type="curve" smooth="yes"/>
      <point x="431" y="217"/>
      <point x="498" y="296"/>
      <point x="498" y="338" type="curve" smooth="yes"/>
      <point x="498" y="354"/>
      <point x="492" y="368"/>
      <point x="477" y="368" type="curve" smooth="yes"/>
      <point x="453" y="368"/>
      <point x="425" y="310"/>
      <point x="391" y="310" type="curve" smooth="yes"/>
      <point x="331" y="310"/>
      <point x="291" y="382"/>
      <point x="204" y="382" type="curve" smooth="yes"/>
      <point x="162" y="382"/>
      <point x="88" y="310"/>
      <point x="88" y="258" type="curve" smooth="yes"/>
      <point x="88" y="235"/>
      <point x="101" y="220"/>
    </contour>
  </outline>
</glyph>
<glyph name="cent" format="1">
  <advance width="466"/>
  <unicode hex="00A2"/>
  <outline>
    <contour>
      <point x="215" y="46" type="line" smooth="yes"/>
      <point x="215" y="7"/>
      <point x="219" y="-9"/>
      <point x="260" y="-9" type="curve" smooth="yes"/>
      <point x="273" y="-9"/>
      <point x="288" y="8"/>
      <point x="288" y="33" type="curve" smooth="yes"/>
      <point x="288" y="38"/>
      <point x="286" y="49"/>
      <point x="285" y="66" type="curve"/>
      <point x="307" y="69"/>
      <point x="331" y="72"/>
      <point x="361" y="72" type="curve" smooth="yes"/>
      <point x="371" y="72"/>
      <point x="398" y="98"/>
      <point x="398" y="122" type="curve" smooth="yes"/>
      <point x="398" y="162"/>
      <point x="369" y="175"/>
      <point x="362" y="175" type="curve" smooth="yes"/>
      <point x="356" y="175"/>
      <point x="352" y="171"/>
      <point x="345" y="168" type="curve" smooth="yes"/>
      <point x="330" y="160" type="line"/>
      <point x="317" y="149"/>
      <point x="306" y="148"/>
      <point x="295" y="148" type="curve" smooth="yes"/>
      <point x="281" y="148" type="line"/>
      <point x="280" y="168"/>
      <point x="280" y="191"/>
      <point x="280" y="217" type="curve" smooth="yes"/>
      <point x="280" y="284"/>
      <point x="285" y="347"/>
      <point x="290" y="410" type="curve"/>
      <point x="333" y="394"/>
      <point x="347" y="340"/>
      <point x="364" y="340" type="curve" smooth="yes"/>
      <point x="378" y="340"/>
      <point x="392" y="363"/>
      <point x="392" y="383" type="curve" smooth="yes"/>
      <point x="392" y="440"/>
      <point x="333" y="488"/>
      <point x="294" y="499" type="curve"/>
      <point x="295" y="511"/>
      <point x="295" y="522"/>
      <point x="295" y="534" type="curve" smooth="yes"/>
      <point x="295" y="557"/>
      <point x="285" y="573"/>
      <point x="268" y="573" type="curve" smooth="yes"/>
      <point x="250" y="573"/>
      <point x="238" y="542"/>
      <point x="230" y="496" type="curve"/>
      <point x="128" y="470"/>
      <point x="71" y="361"/>
      <point x="71" y="232" type="curve" smooth="yes"/>
      <point x="71" y="115"/>
      <point x="135" y="72"/>
      <point x="215" y="65" type="curve"/>
    </contour>
    <contour>
      <point x="214" y="153" type="curve"/>
      <point x="164" y="163"/>
      <point x="134" y="190"/>
      <point x="134" y="260" type="curve" smooth="yes"/>
      <point x="134" y="320"/>
      <point x="167" y="382"/>
      <point x="220" y="405" type="curve"/>
      <point x="214" y="321"/>
      <point x="214" y="225"/>
    </contour>
  </outline>
</glyph>
<glyph name="sterling" format="1">
  <advance width="500"/>
  <unicode hex="00A3"/>
  <outline>
    <contour>
      <point x="87" y="42" type="curve" smooth="yes"/>
      <point x="87" y="19"/>
      <point x="95" y="1"/>
      <point x="120" y="1" type="curve" smooth="yes"/>
      <point x="238" y="2"/>
      <point x="307" y="2"/>
      <point x="351" y="2" type="curve" smooth="yes"/>
      <point x="429" y="2" type="line" smooth="yes"/>
      <point x="450" y="2"/>
      <point x="458" y="33"/>
      <point x="458" y="49" type="curve" smooth="yes"/>
      <point x="458" y="84"/>
      <point x="452" y="102"/>
      <point x="427" y="102" type="curve"/>
      <point x="215" y="94" type="line"/>
      <point x="236" y="148"/>
      <point x="233" y="206"/>
      <point x="241" y="252" type="curve"/>
      <point x="330" y="246"/>
      <point x="332" y="245"/>
      <point x="333" y="245" type="curve" smooth="yes"/>
      <point x="347" y="245"/>
      <point x="379" y="246"/>
      <point x="379" y="294" type="curve" smooth="yes"/>
      <point x="379" y="331"/>
      <point x="363" y="337"/>
      <point x="350" y="337" type="curve" smooth="yes"/>
      <point x="241" y="337" type="line"/>
      <point x="244" y="415"/>
      <point x="261" y="483"/>
      <point x="337" y="483" type="curve" smooth="yes"/>
      <point x="380" y="483"/>
      <point x="401" y="454"/>
      <point x="413" y="454" type="curve" smooth="yes"/>
      <point x="431" y="454"/>
      <point x="434" y="487"/>
      <point x="434" y="500" type="curve" smooth="yes"/>
      <point x="434" y="548"/>
      <point x="361" y="571"/>
      <point x="340" y="571" type="curve" smooth="yes"/>
      <point x="237" y="571"/>
      <point x="184" y="486"/>
      <point x="174" y="338" type="curve"/>
      <point x="132" y="337" type="line" smooth="yes"/>
      <point x="115" y="336"/>
      <point x="99" y="316"/>
      <point x="99" y="291" type="curve" smooth="yes"/>
      <point x="99" y="270"/>
      <point x="114" y="245"/>
      <point x="132" y="245" type="curve"/>
      <point x="170" y="250" type="line"/>
      <point x="170" y="246" type="line" smooth="yes"/>
      <point x="169" y="194"/>
      <point x="157" y="119"/>
      <point x="108" y="97" type="curve"/>
      <point x="100" y="92"/>
      <point x="87" y="71"/>
    </contour>
  </outline>
</glyph>
<glyph name="yen" format="1">
  <advance width="484"/>
  <unicode hex="00A5"/>
  <outline>
    <contour>
      <point x="134" y="90" type="curve" smooth="yes"/>
      <point x="169" y="90"/>
      <point x="191" y="92"/>
      <point x="211" y="94" type="curve"/>
      <point x="211" y="49" type="line" smooth="yes"/>
      <point x="211" y="7"/>
      <point x="226" y="-8"/>
      <point x="255" y="-8" type="curve" smooth="yes"/>
      <point x="271" y="-8"/>
      <point x="282" y="12"/>
      <point x="283" y="51" type="curve"/>
      <point x="282" y="97" type="line"/>
      <point x="290" y="97" type="line" smooth="yes"/>
      <point x="305" y="97"/>
      <point x="325" y="94"/>
      <point x="335" y="94" type="curve" smooth="yes"/>
      <point x="370" y="94"/>
      <point x="380" y="97"/>
      <point x="380" y="141" type="curve" smooth="yes"/>
      <point x="380" y="177"/>
      <point x="371" y="190"/>
      <point x="318" y="190" type="curve" smooth="yes"/>
      <point x="307" y="190"/>
      <point x="294" y="189"/>
      <point x="281" y="189" type="curve"/>
      <point x="281" y="253" type="line"/>
      <point x="308" y="251"/>
      <point x="331" y="247"/>
      <point x="355" y="247" type="curve" smooth="yes"/>
      <point x="369" y="247"/>
      <point x="387" y="258"/>
      <point x="387" y="291" type="curve" smooth="yes"/>
      <point x="387" y="334"/>
      <point x="370" y="337"/>
      <point x="346" y="337" type="curve" smooth="yes"/>
      <point x="334" y="337"/>
      <point x="322" y="336"/>
      <point x="311" y="334" type="curve"/>
      <point x="397" y="468" type="line" smooth="yes"/>
      <point x="413" y="493"/>
      <point x="435" y="531"/>
      <point x="435" y="538" type="curve" smooth="yes"/>
      <point x="435" y="557"/>
      <point x="422" y="574"/>
      <point x="410" y="574" type="curve" smooth="yes"/>
      <point x="390" y="574"/>
      <point x="319" y="473"/>
      <point x="249" y="364" type="curve"/>
      <point x="214" y="379"/>
      <point x="140" y="564"/>
      <point x="105" y="564" type="curve" smooth="yes"/>
      <point x="90" y="564"/>
      <point x="76" y="539"/>
      <point x="76" y="521" type="curve" smooth="yes"/>
      <point x="76" y="482"/>
      <point x="110" y="433"/>
      <point x="144" y="385" type="curve" smooth="yes"/>
      <point x="182" y="331" type="line"/>
      <point x="124" y="335" type="line"/>
      <point x="109" y="335"/>
      <point x="95" y="305"/>
      <point x="95" y="285" type="curve" smooth="yes"/>
      <point x="95" y="244"/>
      <point x="139" y="240"/>
      <point x="149" y="240" type="curve" smooth="yes"/>
      <point x="157" y="240"/>
      <point x="173" y="241"/>
      <point x="211" y="246" type="curve"/>
      <point x="211" y="184" type="line"/>
      <point x="155" y="182"/>
      <point x="106" y="191"/>
      <point x="106" y="138" type="curve" smooth="yes"/>
      <point x="106" y="120"/>
      <point x="108" y="90"/>
    </contour>
  </outline>
</glyph>
<glyph name="section" format="1">
  <advance width="387"/>
  <unicode hex="00A7"/>
  <outline>
    <contour>
      <point x="41" y="18" type="curve" smooth="yes"/>
      <point x="41" y="-57"/>
      <point x="132" y="-66"/>
      <point x="169" y="-66" type="curve" smooth="yes"/>
      <point x="221" y="-66"/>
      <point x="337" y="-30"/>
      <point x="337" y="63" type="curve" smooth="yes"/>
      <point x="337" y="108"/>
      <point x="311" y="136"/>
      <point x="280" y="153" type="curve"/>
      <point x="310" y="173"/>
      <point x="334" y="213"/>
      <point x="334" y="252" type="curve" smooth="yes"/>
      <point x="334" y="416"/>
      <point x="103" y="402"/>
      <point x="103" y="443" type="curve"/>
      <point x="104" y="452"/>
      <point x="146" y="481"/>
      <point x="192" y="481" type="curve" smooth="yes"/>
      <point x="259" y="481"/>
      <point x="278" y="440"/>
      <point x="295" y="440" type="curve" smooth="yes"/>
      <point x="311" y="440"/>
      <point x="319" y="470"/>
      <point x="319" y="484" type="curve"/>
      <point x="319" y="485" type="line"/>
      <point x="319" y="558"/>
      <point x="243" y="567"/>
      <point x="203" y="567" type="curve" smooth="yes"/>
      <point x="154" y="567"/>
      <point x="40" y="534"/>
      <point x="40" y="443" type="curve" smooth="yes"/>
      <point x="40" y="399"/>
      <point x="62" y="360"/>
      <point x="98" y="348" type="curve"/>
      <point x="62" y="324"/>
      <point x="38" y="281"/>
      <point x="38" y="236" type="curve" smooth="yes"/>
      <point x="38" y="120"/>
      <point x="160" y="96"/>
      <point x="203" y="90" type="curve" smooth="yes"/>
      <point x="244" y="84"/>
      <point x="274" y="78"/>
      <point x="274" y="65" type="curve" smooth="yes"/>
      <point x="274" y="49"/>
      <point x="231" y="23"/>
      <point x="178" y="23" type="curve" smooth="yes"/>
      <point x="95" y="23"/>
      <point x="89" y="71"/>
      <point x="74" y="71" type="curve" smooth="yes"/>
      <point x="49" y="71"/>
      <point x="41" y="36"/>
    </contour>
    <contour>
      <point x="103" y="236" type="curve" smooth="yes"/>
      <point x="103" y="273"/>
      <point x="149" y="308"/>
      <point x="184" y="308" type="curve" smooth="yes"/>
      <point x="228" y="308"/>
      <point x="269" y="296"/>
      <point x="269" y="257" type="curve" smooth="yes"/>
      <point x="269" y="255" type="line" smooth="yes"/>
      <point x="269" y="220"/>
      <point x="224" y="186"/>
      <point x="190" y="186" type="curve" smooth="yes"/>
      <point x="148" y="186"/>
      <point x="103" y="198"/>
    </contour>
  </outline>
</glyph>
<glyph name="logicalnot" format="1">
  <advance width="642"/>
  <unicode hex="00AC"/>
  <outline>
    <contour>
      <point x="142" y="260" type="curve" smooth="yes"/>
      <point x="162" y="260" type="line" smooth="yes"/>
      <point x="511" y="257"/>
      <point x="526" y="257"/>
      <point x="526" y="250" type="curve" smooth="yes"/>
      <point x="526" y="155"/>
      <point x="521" y="134"/>
      <point x="521" y="118" type="curve" smooth="yes"/>
      <point x="521" y="91"/>
      <point x="537" y="71"/>
      <point x="556" y="71" type="curve" smooth="yes"/>
      <point x="571" y="71"/>
      <point x="594" y="99"/>
      <point x="594" y="124" type="curve" smooth="yes"/>
      <point x="590" y="320" type="line" smooth="yes"/>
      <point x="590" y="333"/>
      <point x="585" y="355"/>
      <point x="570" y="355" type="curve" smooth="yes"/>
      <point x="536" y="355"/>
      <point x="504" y="345"/>
      <point x="472" y="345" type="curve" smooth="yes"/>
      <point x="396" y="345"/>
      <point x="277" y="353"/>
      <point x="200" y="353" type="curve" smooth="yes"/>
      <point x="129" y="353"/>
      <point x="104" y="353"/>
      <point x="104" y="311" type="curve" smooth="yes"/>
      <point x="104" y="285"/>
      <point x="120" y="260"/>
    </contour>
  </outline>
</glyph>
<glyph name="macron" format="1">
  <advance width="413"/>
  <unicode hex="00AF"/>
  <outline>
    <contour>
      <point x="210" y="656" type="move" name="_top"/>
    </contour>
    <contour>
      <point x="87" y="497" type="curve" smooth="yes"/>
      <point x="314" y="497" type="line" smooth="yes"/>
      <point x="318" y="497"/>
      <point x="323" y="496"/>
      <point x="326" y="496" type="curve" smooth="yes"/>
      <point x="338" y="496"/>
      <point x="346" y="501"/>
      <point x="346" y="535" type="curve" smooth="yes"/>
      <point x="346" y="570"/>
      <point x="336" y="584"/>
      <point x="319" y="584" type="curve" smooth="yes"/>
      <point x="234" y="584"/>
      <point x="158" y="587"/>
      <point x="83" y="587" type="curve" smooth="yes"/>
      <point x="69" y="587"/>
      <point x="54" y="554"/>
      <point x="54" y="532" type="curve" smooth="yes"/>
      <point x="54" y="513"/>
      <point x="64" y="497"/>
    </contour>
  </outline>
</glyph>
<glyph name="one.superior" format="1">
  <advance width="222"/>
  <unicode hex="00B9"/>
  <outline>
    <contour>
      <point x="125" y="201" type="curve" smooth="yes"/>
      <point x="141" y="201"/>
      <point x="154" y="223"/>
      <point x="154" y="258" type="curve" smooth="yes"/>
      <point x="154" y="312"/>
      <point x="142" y="363"/>
      <point x="142" y="415" type="curve" smooth="yes"/>
      <point x="142" y="484"/>
      <point x="151" y="549"/>
      <point x="159" y="611" type="curve"/>
      <point x="159" y="619" type="line" smooth="yes"/>
      <point x="159" y="642"/>
      <point x="147" y="659"/>
      <point x="130" y="659" type="curve" smooth="yes"/>
      <point x="78" y="659"/>
      <point x="78" y="444"/>
      <point x="78" y="365" type="curve" smooth="yes"/>
      <point x="78" y="231"/>
      <point x="86" y="201"/>
    </contour>
  </outline>
</glyph>
<glyph name="ordmasculine" format="1">
  <advance width="443"/>
  <unicode hex="00BA"/>
  <outline>
    <contour>
      <point x="185" y="757" type="move" name="top"/>
    </contour>
    <contour>
      <point x="218" y="277" type="curve" smooth="yes"/>
      <point x="293" y="277"/>
      <point x="362" y="363"/>
      <point x="362" y="468" type="curve" smooth="yes"/>
      <point x="362" y="582"/>
      <point x="312" y="665"/>
      <point x="226" y="665" type="curve" smooth="yes"/>
      <point x="151" y="665"/>
      <point x="70" y="602"/>
      <point x="70" y="468" type="curve" smooth="yes"/>
      <point x="70" y="387"/>
      <point x="139" y="277"/>
    </contour>
    <contour>
      <point x="213" y="360" type="curve" smooth="yes"/>
      <point x="170" y="360"/>
      <point x="130" y="427"/>
      <point x="130" y="476" type="curve" smooth="yes"/>
      <point x="130" y="535"/>
      <point x="185" y="581"/>
      <point x="234" y="581" type="curve" smooth="yes"/>
      <point x="274" y="581"/>
      <point x="304" y="529"/>
      <point x="304" y="472" type="curve" smooth="yes"/>
      <point x="304" y="411"/>
      <point x="261" y="360"/>
    </contour>
    <contour>
      <point x="176" y="140" type="curve" smooth="yes"/>
      <point x="176" y="99"/>
      <point x="206" y="92"/>
      <point x="231" y="92" type="curve" smooth="yes"/>
      <point x="255" y="92"/>
      <point x="282" y="128"/>
      <point x="282" y="147" type="curve" smooth="yes"/>
      <point x="282" y="184"/>
      <point x="240" y="202"/>
      <point x="226" y="202" type="curve" smooth="yes"/>
      <point x="195" y="202"/>
      <point x="176" y="183"/>
    </contour>
  </outline>
</glyph>
<glyph name="guillemotright" format="1">
  <advance width="628"/>
  <unicode hex="00BB"/>
  <outline>
    <contour>
      <point x="235" y="656" type="move" name="_top"/>
    </contour>
    <component base="guilsinglleft" xScale="-1.0" yScale="-1.0" xOffset="403" yOffset="445"/>
    <component base="guilsinglleft" xScale="-1.0" yScale="-1.0" xOffset="628" yOffset="455"/>
  </outline>
</glyph>
<glyph name="AE" format="1">
  <advance width="764"/>
  <unicode hex="00C6"/>
  <outline>
    <contour>
      <point x="502" y="688" type="move" name="top"/>
    </contour>
    <contour>
      <point x="12" y="31" type="curve" smooth="yes"/>
      <point x="12" y="4"/>
      <point x="37" y="-17"/>
      <point x="48" y="-17" type="curve" smooth="yes"/>
      <point x="68" y="-17"/>
      <point x="81" y="3"/>
      <point x="91" y="18" type="curve"/>
      <point x="112" y="58" type="line"/>
      <point x="140" y="106"/>
      <point x="166" y="159"/>
      <point x="191" y="212" type="curve"/>
      <point x="221" y="212"/>
      <point x="285" y="210"/>
      <point x="350" y="210" type="curve"/>
      <point x="348" y="54" type="line" smooth="yes"/>
      <point x="347" y="20"/>
      <point x="363" y="-4"/>
      <point x="385" y="-4" type="curve" smooth="yes"/>
      <point x="454" y="-4"/>
      <point x="509" y="4"/>
      <point x="553" y="4" type="curve" smooth="yes"/>
      <point x="601" y="4"/>
      <point x="614" y="-10"/>
      <point x="652" y="-10" type="curve" smooth="yes"/>
      <point x="669" y="-10"/>
      <point x="691" y="1"/>
      <point x="691" y="38" type="curve" smooth="yes"/>
      <point x="691" y="63"/>
      <point x="687" y="95"/>
      <point x="640" y="95" type="curve" smooth="yes"/>
      <point x="587" y="95"/>
      <point x="510" y="92"/>
      <point x="457" y="92" type="curve" smooth="yes"/>
      <point x="414" y="92" type="line"/>
      <point x="414" y="210" type="line"/>
      <point x="427" y="210" type="line" smooth="yes"/>
      <point x="500" y="210"/>
      <point x="565" y="207"/>
      <point x="586" y="208" type="curve" smooth="yes"/>
      <point x="598" y="208"/>
      <point x="611" y="231"/>
      <point x="611" y="257" type="curve" smooth="yes"/>
      <point x="611" y="275"/>
      <point x="598" y="306"/>
      <point x="579" y="306" type="curve" smooth="yes"/>
      <point x="579" y="306"/>
      <point x="537" y="300"/>
      <point x="521" y="300" type="curve" smooth="yes"/>
      <point x="413" y="300" type="line"/>
      <point x="413" y="334" type="line" smooth="yes"/>
      <point x="412" y="388"/>
      <point x="411" y="445"/>
      <point x="412" y="460" type="curve" smooth="yes"/>
      <point x="412" y="462"/>
      <point x="413" y="466"/>
      <point x="413" y="468" type="curve"/>
      <point x="685" y="466" type="line" smooth="yes"/>
      <point x="701" y="466"/>
      <point x="715" y="492"/>
      <point x="715" y="514" type="curve" smooth="yes"/>
      <point x="715" y="559"/>
      <point x="699" y="561"/>
      <point x="651" y="561" type="curve"/>
      <point x="447" y="557" type="line"/>
      <point x="444" y="556"/>
      <point x="440" y="556"/>
      <point x="437" y="556" type="curve" smooth="yes"/>
      <point x="412" y="556"/>
      <point x="394" y="575"/>
      <point x="380" y="575" type="curve" smooth="yes"/>
      <point x="368" y="575"/>
      <point x="361" y="568"/>
      <point x="357" y="558" type="curve"/>
      <point x="312" y="560"/>
      <point x="235" y="563"/>
      <point x="214" y="563" type="curve" smooth="yes"/>
      <point x="195" y="563"/>
      <point x="170" y="558"/>
      <point x="170" y="530" type="curve" smooth="yes"/>
      <point x="170" y="498"/>
      <point x="200" y="490"/>
      <point x="208" y="490" type="curve" smooth="yes"/>
      <point x="212" y="490"/>
      <point x="224" y="489"/>
      <point x="240" y="488" type="curve"/>
      <point x="151" y="322"/>
      <point x="137" y="229"/>
      <point x="17" y="57" type="curve"/>
      <point x="12" y="47"/>
      <point x="12" y="37"/>
    </contour>
    <contour>
      <point x="232" y="301" type="curve"/>
      <point x="264" y="372"/>
      <point x="294" y="437"/>
      <point x="322" y="483" type="curve"/>
      <point x="335" y="483" type="line" smooth="yes"/>
      <point x="341" y="483"/>
      <point x="347" y="483"/>
      <point x="351" y="487" type="curve"/>
      <point x="351" y="464" type="line"/>
      <point x="350" y="454"/>
      <point x="350" y="443"/>
      <point x="350" y="432" type="curve" smooth="yes"/>
      <point x="350" y="396"/>
      <point x="352" y="357"/>
      <point x="352" y="329" type="curve" smooth="yes"/>
      <point x="352" y="300" type="line"/>
      <point x="288" y="300"/>
      <point x="236" y="301"/>
    </contour>
  </outline>
</glyph>
<glyph name="Eth" format="1">
  <advance width="541"/>
  <unicode hex="00D0"/>
  <outline>
    <contour>
      <point x="53" y="224" type="curve" smooth="yes"/>
      <point x="82" y="224"/>
      <point x="106" y="230"/>
      <point x="130" y="230" type="curve" smooth="yes"/>
      <point x="163" y="230"/>
      <point x="192" y="222"/>
      <point x="222" y="222" type="curve" smooth="yes"/>
      <point x="233" y="222"/>
      <point x="264" y="238"/>
      <point x="264" y="271" type="curve" smooth="yes"/>
      <point x="264" y="300"/>
      <point x="252" y="319"/>
      <point x="233" y="319" type="curve" smooth="yes"/>
      <point x="178" y="319"/>
      <point x="123" y="315"/>
      <point x="70" y="315" type="curve" smooth="yes"/>
      <point x="52" y="315"/>
      <point x="60" y="319"/>
      <point x="49" y="319" type="curve" smooth="yes"/>
      <point x="30" y="319"/>
      <point x="17" y="297"/>
      <point x="17" y="271" type="curve" smooth="yes"/>
      <point x="17" y="229"/>
      <point x="36" y="224"/>
    </contour>
    <component base="D"/>
  </outline>
</glyph>
<glyph name="divide" format="1">
  <advance width="405"/>
  <unicode hex="00F7"/>
  <outline>
    <contour>
      <point x="209" y="340" type="curve" smooth="yes"/>
      <point x="226" y="340"/>
      <point x="243" y="363"/>
      <point x="243" y="405" type="curve" smooth="yes"/>
      <point x="243" y="446"/>
      <point x="222" y="469"/>
      <point x="215" y="469" type="curve" smooth="yes"/>
      <point x="194" y="469"/>
      <point x="159" y="442"/>
      <point x="159" y="409" type="curve" smooth="yes"/>
      <point x="159" y="356"/>
      <point x="177" y="340"/>
    </contour>
    <contour>
      <point x="129" y="195" type="curve"/>
      <point x="212" y="202"/>
      <point x="246" y="204"/>
      <point x="268" y="204" type="curve" smooth="yes"/>
      <point x="282" y="204"/>
      <point x="290" y="203"/>
      <point x="304" y="203" type="curve"/>
      <point x="317" y="202"/>
      <point x="340" y="211"/>
      <point x="340" y="248" type="curve" smooth="yes"/>
      <point x="340" y="297"/>
      <point x="311" y="297"/>
      <point x="286" y="297" type="curve"/>
      <point x="170" y="289" type="line"/>
      <point x="93" y="294" type="line"/>
      <point x="81" y="294"/>
      <point x="65" y="264"/>
      <point x="65" y="243" type="curve" smooth="yes"/>
      <point x="65" y="200"/>
      <point x="120" y="195"/>
    </contour>
    <contour>
      <point x="155" y="94" type="curve" smooth="yes"/>
      <point x="155" y="59"/>
      <point x="166" y="38"/>
      <point x="194" y="38" type="curve" smooth="yes"/>
      <point x="217" y="38"/>
      <point x="239" y="71"/>
      <point x="239" y="98" type="curve" smooth="yes"/>
      <point x="239" y="126"/>
      <point x="219" y="164"/>
      <point x="196" y="164" type="curve" smooth="yes"/>
      <point x="166" y="164"/>
      <point x="155" y="132"/>
    </contour>
  </outline>
</glyph>
<glyph name="oslash" format="1">
  <advance width="445"/>
  <unicode hex="00F8"/>
  <outline>
    <contour>
      <point x="49" y="13" type="curve" smooth="yes"/>
      <point x="49" y="-12"/>
      <point x="63" y="-30"/>
      <point x="89" y="-30" type="curve" smooth="yes"/>
      <point x="106" y="-30"/>
      <point x="129" y="10"/>
      <point x="133" y="18" type="curve"/>
      <point x="155" y="7"/>
      <point x="197" y="-10"/>
      <point x="219" y="-10" type="curve" smooth="yes"/>
      <point x="314" y="-10"/>
      <point x="406" y="80"/>
      <point x="406" y="212" type="curve" smooth="yes"/>
      <point x="406" y="273"/>
      <point x="392" y="326"/>
      <point x="371" y="364" type="curve"/>
      <point x="399" y="386"/>
      <point x="408" y="394"/>
      <point x="408" y="418" type="curve" smooth="yes"/>
      <point x="408" y="441"/>
      <point x="400" y="454"/>
      <point x="381" y="454" type="curve" smooth="yes"/>
      <point x="363" y="454"/>
      <point x="336" y="427"/>
      <point x="325" y="414" type="curve"/>
      <point x="300" y="432"/>
      <point x="267" y="442"/>
      <point x="230" y="442" type="curve" smooth="yes"/>
      <point x="136" y="442"/>
      <point x="36" y="380"/>
      <point x="36" y="212" type="curve" smooth="yes"/>
      <point x="36" y="169"/>
      <point x="57" y="111"/>
      <point x="79" y="74" type="curve"/>
      <point x="69" y="59"/>
      <point x="49" y="42"/>
    </contour>
    <contour>
      <point x="122" y="135" type="line"/>
      <point x="118" y="142"/>
      <point x="94" y="184"/>
      <point x="94" y="221" type="curve" smooth="yes"/>
      <point x="94" y="313"/>
      <point x="169" y="356"/>
      <point x="241" y="356" type="curve" smooth="yes"/>
      <point x="258" y="356"/>
      <point x="265" y="356"/>
      <point x="272" y="352" type="curve"/>
      <point x="237" y="303" type="line" smooth="yes"/>
      <point x="209" y="264"/>
      <point x="176" y="218"/>
      <point x="158" y="187" type="curve"/>
    </contour>
    <contour>
      <point x="171" y="86" type="curve"/>
      <point x="212" y="145"/>
      <point x="276" y="246"/>
      <point x="320" y="306" type="curve"/>
      <point x="338" y="289"/>
      <point x="346" y="244"/>
      <point x="346" y="213" type="curve" smooth="yes"/>
      <point x="345" y="125"/>
      <point x="280" y="75"/>
      <point x="215" y="75" type="curve" smooth="yes"/>
      <point x="199" y="75"/>
      <point x="183" y="80"/>
    </contour>
  </outline>
</glyph>
<glyph name="thorn" format="1">
  <advance width="446"/>
  <unicode hex="00FE"/>
  <outline>
    <contour>
      <point x="111" y="15" type="curve"/>
      <point x="134" y="-3"/>
      <point x="157" y="-5"/>
      <point x="169" y="-5" type="curve" smooth="yes"/>
      <point x="260" y="-5"/>
      <point x="394" y="54"/>
      <point x="394" y="226" type="curve" smooth="yes"/>
      <point x="394" y="368"/>
      <point x="339" y="441"/>
      <point x="217" y="441" type="curve" smooth="yes"/>
      <point x="185" y="441"/>
      <point x="143" y="428"/>
      <point x="118" y="398" type="curve"/>
      <point x="118" y="430"/>
      <point x="122" y="553"/>
      <point x="122" y="631" type="curve" smooth="yes"/>
      <point x="122" y="658"/>
      <point x="103" y="671"/>
      <point x="90" y="671" type="curve" smooth="yes"/>
      <point x="62" y="671"/>
      <point x="59" y="649"/>
      <point x="58" y="610" type="curve" smooth="yes"/>
      <point x="46" y="-119" type="line"/>
      <point x="47" y="-161"/>
      <point x="60" y="-175"/>
      <point x="86" y="-175" type="curve" smooth="yes"/>
      <point x="100" y="-175"/>
      <point x="116" y="-159"/>
      <point x="116" y="-125" type="curve" smooth="yes"/>
      <point x="116" y="-107"/>
      <point x="116" y="-65"/>
    </contour>
    <contour>
      <point x="146" y="82" type="curve" smooth="yes"/>
      <point x="122" y="82"/>
      <point x="116" y="90"/>
      <point x="116" y="152" type="curve"/>
      <point x="115" y="164"/>
      <point x="116" y="179"/>
      <point x="116" y="197" type="curve" smooth="yes"/>
      <point x="116" y="307" type="line"/>
      <point x="135" y="331"/>
      <point x="179" y="353"/>
      <point x="212" y="353" type="curve" smooth="yes"/>
      <point x="275" y="353"/>
      <point x="329" y="322"/>
      <point x="329" y="243" type="curve" smooth="yes"/>
      <point x="329" y="147"/>
      <point x="259" y="83"/>
      <point x="176" y="83" type="curve" smooth="yes"/>
      <point x="164" y="83"/>
      <point x="154" y="82"/>
    </contour>
  </outline>
</glyph>
<glyph name="Dcroat" format="1">
  <advance width="541"/>
  <unicode hex="0110"/>
  <outline>
    <contour>
      <point x="105" y="-8" type="curve" smooth="yes"/>
      <point x="108" y="-8"/>
      <point x="119" y="-3"/>
      <point x="131" y="2" type="curve"/>
      <point x="152" y="-2"/>
      <point x="189" y="-3"/>
      <point x="206" y="-3" type="curve" smooth="yes"/>
      <point x="315" y="-3"/>
      <point x="489" y="79"/>
      <point x="489" y="261" type="curve" smooth="yes"/>
      <point x="489" y="443"/>
      <point x="319" y="560"/>
      <point x="206" y="560" type="curve" smooth="yes"/>
      <point x="139" y="560" type="line" smooth="yes"/>
      <point x="110" y="560"/>
      <point x="73" y="549"/>
      <point x="72" y="482" type="curve" smooth="yes"/>
      <point x="69" y="315" type="line"/>
      <point x="52" y="315"/>
      <point x="60" y="319"/>
      <point x="49" y="319" type="curve" smooth="yes"/>
      <point x="30" y="319"/>
      <point x="17" y="304"/>
      <point x="17" y="278" type="curve" smooth="yes"/>
      <point x="17" y="236"/>
      <point x="36" y="231"/>
      <point x="53" y="231" type="curve" smooth="yes"/>
      <point x="67" y="231" type="line"/>
      <point x="65" y="104" type="line" smooth="yes"/>
      <point x="64" y="63"/>
      <point x="72" y="-8"/>
    </contour>
    <contour>
      <point x="142" y="90" type="curve"/>
      <point x="135" y="127"/>
      <point x="133" y="183"/>
      <point x="132" y="237" type="curve"/>
      <point x="164" y="236"/>
      <point x="192" y="229"/>
      <point x="222" y="229" type="curve" smooth="yes"/>
      <point x="233" y="229"/>
      <point x="264" y="238"/>
      <point x="264" y="271" type="curve" smooth="yes"/>
      <point x="264" y="300"/>
      <point x="252" y="319"/>
      <point x="233" y="319" type="curve" smooth="yes"/>
      <point x="199" y="319"/>
      <point x="165" y="317"/>
      <point x="132" y="316" type="curve"/>
      <point x="132" y="382" type="line" smooth="yes"/>
      <point x="132" y="411"/>
      <point x="134" y="445"/>
      <point x="139" y="473" type="curve"/>
      <point x="158" y="476"/>
      <point x="199" y="477"/>
      <point x="215" y="477" type="curve" smooth="yes"/>
      <point x="313" y="477"/>
      <point x="420" y="375"/>
      <point x="420" y="248" type="curve" smooth="yes"/>
      <point x="420" y="132"/>
      <point x="303" y="87"/>
      <point x="222" y="87" type="curve" smooth="yes"/>
      <point x="168" y="87" type="line" smooth="yes"/>
      <point x="156" y="87"/>
      <point x="144" y="88"/>
    </contour>
  </outline>
</glyph>
<glyph name="dcroat" format="1">
  <advance width="469"/>
  <unicode hex="0111"/>
  <outline>
    <contour>
      <point x="34" y="196" type="curve" smooth="yes"/>
      <point x="34" y="76"/>
      <point x="88" y="-6"/>
      <point x="201" y="-6" type="curve" smooth="yes"/>
      <point x="236" y="-6"/>
      <point x="305" y="9"/>
      <point x="337" y="40" type="curve"/>
      <point x="344" y="20"/>
      <point x="353" y="-7"/>
      <point x="367" y="-7" type="curve" smooth="yes"/>
      <point x="402" y="-7"/>
      <point x="406" y="49"/>
      <point x="407" y="117" type="curve" smooth="yes"/>
      <point x="408" y="196" type="line" smooth="yes"/>
      <point x="408" y="199"/>
      <point x="408" y="202"/>
      <point x="414" y="488" type="curve" smooth="yes"/>
      <point x="414" y="511" type="line"/>
      <point x="460" y="504"/>
      <point x="467" y="504"/>
      <point x="469" y="504" type="curve" smooth="yes"/>
      <point x="478" y="504"/>
      <point x="509" y="528"/>
      <point x="509" y="558" type="curve" smooth="yes"/>
      <point x="509" y="599"/>
      <point x="485" y="605"/>
      <point x="459" y="605" type="curve" smooth="yes"/>
      <point x="448" y="605"/>
      <point x="438" y="604"/>
      <point x="428" y="604" type="curve" smooth="yes"/>
      <point x="415" y="604" type="line"/>
      <point x="415" y="625" type="line" smooth="yes"/>
      <point x="415" y="646"/>
      <point x="409" y="669"/>
      <point x="390" y="669" type="curve" smooth="yes"/>
      <point x="366" y="669"/>
      <point x="355" y="652"/>
      <point x="355" y="621" type="curve" smooth="yes"/>
      <point x="355" y="603" type="line"/>
      <point x="291" y="600"/>
      <point x="275" y="590"/>
      <point x="275" y="555" type="curve" smooth="yes"/>
      <point x="275" y="516"/>
      <point x="291" y="509"/>
      <point x="309" y="509" type="curve" smooth="yes"/>
      <point x="324" y="509"/>
      <point x="339" y="512"/>
      <point x="354" y="514" type="curve"/>
      <point x="354" y="452"/>
      <point x="353" y="383"/>
      <point x="353" y="358" type="curve"/>
      <point x="348" y="408"/>
      <point x="298" y="442"/>
      <point x="243" y="442" type="curve" smooth="yes"/>
      <point x="110" y="442"/>
      <point x="34" y="322"/>
    </contour>
    <contour>
      <point x="98" y="199" type="curve" smooth="yes"/>
      <point x="98" y="290"/>
      <point x="153" y="356"/>
      <point x="244" y="356" type="curve" smooth="yes"/>
      <point x="297" y="356"/>
      <point x="346" y="298"/>
      <point x="346" y="235" type="curve" smooth="yes"/>
      <point x="346" y="208" type="line" smooth="yes"/>
      <point x="346" y="184"/>
      <point x="347" y="157"/>
      <point x="340" y="135" type="curve" smooth="yes"/>
      <point x="334" y="114"/>
      <point x="290" y="76"/>
      <point x="212" y="76" type="curve" smooth="yes"/>
      <point x="148" y="76"/>
      <point x="98" y="122"/>
    </contour>
  </outline>
</glyph>
<glyph name="eogonek" format="1">
  <advance width="440"/>
  <unicode hex="0119"/>
  <outline>
    <contour>
      <point x="94" y="147" type="curve"/>
      <point x="372" y="246" type="line" smooth="yes"/>
      <point x="388" y="251"/>
      <point x="398" y="274"/>
      <point x="398" y="305" type="curve" smooth="yes"/>
      <point x="398" y="401"/>
      <point x="316" y="452"/>
      <point x="248" y="452" type="curve" smooth="yes"/>
      <point x="112" y="452"/>
      <point x="34" y="343"/>
      <point x="34" y="189" type="curve" smooth="yes"/>
      <point x="34" y="77"/>
      <point x="125" y="-9"/>
      <point x="216" y="-9" type="curve" smooth="yes"/>
      <point x="224" y="-9"/>
      <point x="239" y="-9"/>
      <point x="256" y="-8" type="curve"/>
      <point x="224" y="-45"/>
      <point x="196" y="-91"/>
      <point x="196" y="-135" type="curve" smooth="yes"/>
      <point x="196" y="-194"/>
      <point x="242" y="-236"/>
      <point x="302" y="-236" type="curve" smooth="yes"/>
      <point x="337" y="-236"/>
      <point x="385" y="-229"/>
      <point x="385" y="-164" type="curve" smooth="yes"/>
      <point x="385" y="-146"/>
      <point x="380" y="-126"/>
      <point x="367" y="-126" type="curve" smooth="yes"/>
      <point x="337" y="-126"/>
      <point x="338" y="-156"/>
      <point x="309" y="-156" type="curve" smooth="yes"/>
      <point x="292" y="-156"/>
      <point x="270" y="-140"/>
      <point x="261" y="-116" type="curve"/>
      <point x="277" y="-47"/>
      <point x="401" y="-7"/>
      <point x="401" y="62" type="curve" smooth="yes"/>
      <point x="401" y="92"/>
      <point x="390" y="106"/>
      <point x="367" y="106" type="curve" smooth="yes"/>
      <point x="342" y="106"/>
      <point x="295" y="74"/>
      <point x="249" y="74" type="curve" smooth="yes"/>
      <point x="204" y="74"/>
      <point x="116" y="77"/>
    </contour>
    <contour>
      <point x="90" y="216" type="curve"/>
      <point x="105" y="324"/>
      <point x="198" y="366"/>
      <point x="235" y="366" type="curve" smooth="yes"/>
      <point x="282" y="366"/>
      <point x="327" y="352"/>
      <point x="344" y="315" type="curve"/>
      <point x="291" y="294"/>
      <point x="164" y="237"/>
    </contour>
  </outline>
</glyph>
<glyph name="gdotaccent" format="1">
  <advance width="438"/>
  <unicode hex="0121"/>
  <outline>
    <contour>
      <point x="219" y="561" type="line"/>
      <point x="239" y="587" type="line"/>
      <point x="250" y="595"/>
      <point x="255" y="608"/>
      <point x="256" y="614" type="curve"/>
      <point x="254" y="621"/>
      <point x="245" y="638"/>
      <point x="238" y="646" type="curve" smooth="yes"/>
      <point x="218" y="667" type="line"/>
      <point x="217" y="667"/>
      <point x="200" y="653"/>
      <point x="183" y="619" type="curve"/>
      <point x="183" y="618"/>
      <point x="182" y="616"/>
      <point x="182" y="615" type="curve" smooth="yes"/>
      <point x="182" y="604"/>
      <point x="189" y="585"/>
      <point x="211" y="570" type="curve"/>
      <point x="211" y="570"/>
      <point x="216" y="567"/>
      <point x="218" y="567" type="curve"/>
    </contour>
    <component base="g"/>
  </outline>
</glyph>
<glyph name="hbar" format="1">
  <advance width="452"/>
  <unicode hex="0127"/>
  <outline>
    <contour>
      <point x="49" y="46" type="curve" smooth="yes"/>
      <point x="49" y="1"/>
      <point x="73" y="-2"/>
      <point x="84" y="-2" type="curve" smooth="yes"/>
      <point x="113" y="-2"/>
      <point x="113" y="29"/>
      <point x="114" y="55" type="curve"/>
      <point x="114" y="271" type="line" smooth="yes"/>
      <point x="114" y="303"/>
      <point x="168" y="348"/>
      <point x="224" y="348" type="curve" smooth="yes"/>
      <point x="340" y="348"/>
      <point x="349" y="269"/>
      <point x="349" y="212" type="curve" smooth="yes"/>
      <point x="349" y="202" type="line" smooth="yes"/>
      <point x="349" y="146"/>
      <point x="338" y="97"/>
      <point x="338" y="39" type="curve" smooth="yes"/>
      <point x="338" y="11"/>
      <point x="351" y="-11"/>
      <point x="374" y="-11" type="curve" smooth="yes"/>
      <point x="409" y="-11"/>
      <point x="408" y="44"/>
      <point x="409" y="69" type="curve" smooth="yes"/>
      <point x="414" y="219" type="line"/>
      <point x="414" y="311"/>
      <point x="383" y="436"/>
      <point x="225" y="436" type="curve" smooth="yes"/>
      <point x="183" y="436"/>
      <point x="122" y="402"/>
      <point x="114" y="350" type="curve"/>
      <point x="116" y="405" type="line"/>
      <point x="116" y="433"/>
      <point x="116" y="463"/>
      <point x="117" y="492" type="curve"/>
      <point x="209" y="494" type="line" smooth="yes"/>
      <point x="227" y="494"/>
      <point x="247" y="506"/>
      <point x="247" y="542" type="curve" smooth="yes"/>
      <point x="247" y="573"/>
      <point x="231" y="578"/>
      <point x="214" y="578" type="curve" smooth="yes"/>
      <point x="121" y="578" type="line"/>
      <point x="121" y="599"/>
      <point x="122" y="620"/>
      <point x="122" y="640" type="curve" smooth="yes"/>
      <point x="122" y="642" type="line" smooth="yes"/>
      <point x="122" y="663"/>
      <point x="109" y="681"/>
      <point x="94" y="681" type="curve" smooth="yes"/>
      <point x="71" y="681"/>
      <point x="56" y="643"/>
      <point x="56" y="622" type="curve" smooth="yes"/>
      <point x="56" y="577" type="line"/>
      <point x="38" y="577"/>
      <point x="22" y="576"/>
      <point x="12" y="576" type="curve" smooth="yes"/>
      <point x="-2" y="575"/>
      <point x="-16" y="560"/>
      <point x="-16" y="535" type="curve" smooth="yes"/>
      <point x="-16" y="517"/>
      <point x="-4" y="492"/>
      <point x="17" y="491" type="curve"/>
      <point x="55" y="491" type="line"/>
      <point x="53" y="344"/>
      <point x="49" y="169"/>
    </contour>
  </outline>
</glyph>
<glyph name="iogonek" format="1">
  <advance width="183"/>
  <unicode hex="012F"/>
  <outline>
    <contour>
      <point x="118" y="539" type="curve" smooth="yes"/>
      <point x="147" y="539"/>
      <point x="161" y="559"/>
      <point x="161" y="596" type="curve" smooth="yes"/>
      <point x="161" y="639"/>
      <point x="135" y="650"/>
      <point x="114" y="650" type="curve" smooth="yes"/>
      <point x="93" y="650"/>
      <point x="66" y="618"/>
      <point x="66" y="589" type="curve" smooth="yes"/>
      <point x="66" y="547"/>
      <point x="100" y="539"/>
    </contour>
    <contour>
      <point x="40" y="32" type="line"/>
      <point x="6" y="5"/>
      <point x="-55" y="-65"/>
      <point x="-55" y="-150" type="curve" smooth="yes"/>
      <point x="-55" y="-209"/>
      <point x="-9" y="-251"/>
      <point x="51" y="-251" type="curve" smooth="yes"/>
      <point x="86" y="-251"/>
      <point x="144" y="-244"/>
      <point x="144" y="-179" type="curve" smooth="yes"/>
      <point x="144" y="-161"/>
      <point x="139" y="-141"/>
      <point x="126" y="-141" type="curve" smooth="yes"/>
      <point x="96" y="-141"/>
      <point x="97" y="-171"/>
      <point x="58" y="-171" type="curve" smooth="yes"/>
      <point x="41" y="-171"/>
      <point x="10" y="-155"/>
      <point x="10" y="-131" type="curve" smooth="yes"/>
      <point x="10" y="-82"/>
      <point x="80" y="-46"/>
      <point x="115" y="-7" type="curve"/>
      <point x="125" y="0"/>
      <point x="135" y="15"/>
      <point x="135" y="39" type="curve" smooth="yes"/>
      <point x="135" y="85"/>
      <point x="123" y="151"/>
      <point x="123" y="200" type="curve" smooth="yes"/>
      <point x="123" y="266"/>
      <point x="131" y="342"/>
      <point x="133" y="397" type="curve"/>
      <point x="133" y="422"/>
      <point x="131" y="444"/>
      <point x="110" y="444" type="curve" smooth="yes"/>
      <point x="58" y="444"/>
      <point x="58" y="213"/>
      <point x="58" y="131" type="curve" smooth="yes"/>
      <point x="58" y="80"/>
      <point x="59" y="55"/>
      <point x="60" y="44" type="curve"/>
    </contour>
  </outline>
</glyph>
<glyph name="dotlessi" format="1">
  <advance width="184"/>
  <unicode hex="0131"/>
  <outline>
    <contour>
      <point x="102" y="695" type="move" name="top"/>
    </contour>
    <contour>
      <point x="62" y="36" type="curve" smooth="yes"/>
      <point x="68" y="2"/>
      <point x="81" y="-10"/>
      <point x="104" y="-10" type="curve" smooth="yes"/>
      <point x="118" y="-10"/>
      <point x="135" y="7"/>
      <point x="135" y="39" type="curve" smooth="yes"/>
      <point x="135" y="85"/>
      <point x="123" y="151"/>
      <point x="123" y="200" type="curve" smooth="yes"/>
      <point x="123" y="266"/>
      <point x="131" y="342"/>
      <point x="133" y="397" type="curve"/>
      <point x="133" y="422"/>
      <point x="131" y="444"/>
      <point x="110" y="444" type="curve" smooth="yes"/>
      <point x="58" y="444"/>
      <point x="58" y="213"/>
      <point x="58" y="131" type="curve" smooth="yes"/>
      <point x="58" y="63"/>
      <point x="61" y="42"/>
    </contour>
  </outline>
</glyph>
<glyph name="lslash" format="1">
  <advance width="253"/>
  <unicode hex="0142"/>
  <outline>
    <contour>
      <point x="83" y="111" type="line" smooth="yes"/>
      <point x="82" y="39"/>
      <point x="107" y="-2"/>
      <point x="169" y="-2" type="curve" smooth="yes"/>
      <point x="192" y="-2"/>
      <point x="233" y="23"/>
      <point x="233" y="62" type="curve" smooth="yes"/>
      <point x="233" y="82"/>
      <point x="226" y="105"/>
      <point x="208" y="105" type="curve" smooth="yes"/>
      <point x="191" y="105"/>
      <point x="187" y="83"/>
      <point x="170" y="83" type="curve" smooth="yes"/>
      <point x="147" y="83"/>
      <point x="142" y="143"/>
      <point x="143" y="199" type="curve" smooth="yes"/>
      <point x="144" y="296" type="line"/>
      <point x="151" y="302"/>
      <point x="158" y="307"/>
      <point x="166" y="311" type="curve"/>
      <point x="190" y="328"/>
      <point x="231" y="353"/>
      <point x="231" y="394" type="curve" smooth="yes"/>
      <point x="231" y="417"/>
      <point x="211" y="425"/>
      <point x="193" y="425" type="curve" smooth="yes"/>
      <point x="182" y="425"/>
      <point x="163" y="411"/>
      <point x="146" y="396" type="curve"/>
      <point x="149" y="640" type="line" smooth="yes"/>
      <point x="149" y="659"/>
      <point x="139" y="683"/>
      <point x="122" y="683" type="curve" smooth="yes"/>
      <point x="98" y="683"/>
      <point x="88" y="652"/>
      <point x="88" y="615" type="curve" smooth="yes"/>
      <point x="85" y="343" type="line"/>
      <point x="46" y="312" type="line" smooth="yes"/>
      <point x="32" y="301"/>
      <point x="15" y="287"/>
      <point x="15" y="270" type="curve" smooth="yes"/>
      <point x="15" y="242"/>
      <point x="44" y="225"/>
      <point x="54" y="225" type="curve" smooth="yes"/>
      <point x="63" y="225"/>
      <point x="73" y="231"/>
      <point x="84" y="241" type="curve"/>
    </contour>
  </outline>
</glyph>
<glyph name="Eng" format="1">
  <advance width="464"/>
  <unicode hex="014A"/>
  <outline>
    <contour>
      <point x="55" y="70" type="curve" smooth="yes"/>
      <point x="55" y="30"/>
      <point x="59" y="-3"/>
      <point x="95" y="-3" type="curve" smooth="yes"/>
      <point x="119" y="-3"/>
      <point x="128" y="26"/>
      <point x="128" y="62" type="curve" smooth="yes"/>
      <point x="128" y="153"/>
      <point x="120" y="40"/>
      <point x="120" y="323" type="curve"/>
      <point x="177" y="214"/>
      <point x="272" y="60"/>
      <point x="341" y="-24" type="curve"/>
      <point x="341" y="-33" type="line" smooth="yes"/>
      <point x="341" y="-95"/>
      <point x="302" y="-162"/>
      <point x="233" y="-162" type="curve" smooth="yes"/>
      <point x="187" y="-162"/>
      <point x="188" y="-123"/>
      <point x="170" y="-123" type="curve" smooth="yes"/>
      <point x="144" y="-123"/>
      <point x="133" y="-157"/>
      <point x="133" y="-178" type="curve" smooth="yes"/>
      <point x="133" y="-237"/>
      <point x="193" y="-250"/>
      <point x="220" y="-250" type="curve" smooth="yes"/>
      <point x="292" y="-250"/>
      <point x="342" y="-216"/>
      <point x="384" y="-135" type="curve" smooth="yes"/>
      <point x="420" y="-66"/>
      <point x="407" y="169"/>
      <point x="412" y="266" type="curve"/>
      <point x="422" y="499"/>
      <point x="423" y="514"/>
      <point x="423" y="537" type="curve" smooth="yes"/>
      <point x="423" y="586"/>
      <point x="413" y="590"/>
      <point x="390" y="590" type="curve" smooth="yes"/>
      <point x="362" y="590"/>
      <point x="357" y="557"/>
      <point x="356" y="497" type="curve"/>
      <point x="351" y="448"/>
      <point x="353" y="98"/>
      <point x="337" y="98" type="curve" smooth="yes"/>
      <point x="325" y="98"/>
      <point x="176" y="315"/>
      <point x="147" y="459" type="curve" smooth="yes"/>
      <point x="137" y="506"/>
      <point x="124" y="548"/>
      <point x="89" y="548" type="curve" smooth="yes"/>
      <point x="70" y="548"/>
      <point x="60" y="508"/>
      <point x="60" y="490" type="curve" smooth="yes"/>
      <point x="60" y="453"/>
      <point x="62" y="421"/>
      <point x="62" y="389" type="curve" smooth="yes"/>
      <point x="62" y="304"/>
      <point x="57" y="272"/>
      <point x="57" y="225" type="curve"/>
      <point x="55" y="97"/>
      <point x="55" y="85"/>
    </contour>
  </outline>
</glyph>
<glyph name="eng" format="1">
  <advance width="462"/>
  <unicode hex="014B"/>
  <outline>
    <contour>
      <point x="51" y="45" type="line" smooth="yes"/>
      <point x="50" y="-5"/>
      <point x="74" y="-11"/>
      <point x="94" y="-11" type="curve" smooth="yes"/>
      <point x="124" y="-11"/>
      <point x="125" y="14"/>
      <point x="126" y="43" type="curve" smooth="yes"/>
      <point x="126" y="53"/>
      <point x="111" y="110"/>
      <point x="111" y="162" type="curve" smooth="yes"/>
      <point x="111" y="196"/>
      <point x="113" y="239"/>
      <point x="113" y="269" type="curve"/>
      <point x="144" y="319"/>
      <point x="206" y="356"/>
      <point x="244" y="356" type="curve" smooth="yes"/>
      <point x="346" y="356"/>
      <point x="356" y="235"/>
      <point x="356" y="162" type="curve"/>
      <point x="348" y="5" type="line"/>
      <point x="346" y="-93"/>
      <point x="289" y="-105"/>
      <point x="224" y="-105" type="curve" smooth="yes"/>
      <point x="204" y="-105" type="line" smooth="yes"/>
      <point x="178" y="-105"/>
      <point x="161" y="-113"/>
      <point x="161" y="-146" type="curve" smooth="yes"/>
      <point x="161" y="-193"/>
      <point x="207" y="-193"/>
      <point x="225" y="-193" type="curve" smooth="yes"/>
      <point x="389" y="-193"/>
      <point x="416" y="-87"/>
      <point x="418" y="64" type="curve" smooth="yes"/>
      <point x="419" y="147" type="line" smooth="yes"/>
      <point x="421" y="282"/>
      <point x="403" y="444"/>
      <point x="259" y="444" type="curve" smooth="yes"/>
      <point x="220" y="444"/>
      <point x="146" y="390"/>
      <point x="109" y="351" type="curve"/>
      <point x="111" y="365"/>
      <point x="112" y="377"/>
      <point x="112" y="387" type="curve" smooth="yes"/>
      <point x="112" y="425"/>
      <point x="100" y="441"/>
      <point x="81" y="441" type="curve" smooth="yes"/>
      <point x="55" y="441"/>
      <point x="49" y="376"/>
      <point x="49" y="334" type="curve"/>
      <point x="52" y="252"/>
      <point x="53" y="240"/>
      <point x="53" y="230" type="curve" smooth="yes"/>
    </contour>
  </outline>
</glyph>
<glyph name="OE" format="1">
  <advance width="853"/>
  <unicode hex="0152"/>
  <outline>
    <contour>
      <point x="53" y="271" type="curve" smooth="yes"/>
      <point x="53" y="141"/>
      <point x="159" y="-10"/>
      <point x="287" y="-10" type="curve" smooth="yes"/>
      <point x="336" y="-10"/>
      <point x="433" y="24"/>
      <point x="451" y="63" type="curve"/>
      <point x="451" y="3"/>
      <point x="469" y="-6"/>
      <point x="490" y="-6" type="curve" smooth="yes"/>
      <point x="524" y="-6"/>
      <point x="551" y="-1"/>
      <point x="576" y="-1" type="curve" smooth="yes"/>
      <point x="744" y="-1"/>
      <point x="719" y="-13"/>
      <point x="747" y="-13" type="curve" smooth="yes"/>
      <point x="771" y="-13"/>
      <point x="793" y="-2"/>
      <point x="793" y="35" type="curve" smooth="yes"/>
      <point x="793" y="71"/>
      <point x="785" y="89"/>
      <point x="747" y="89" type="curve" smooth="yes"/>
      <point x="669" y="89"/>
      <point x="596" y="95"/>
      <point x="517" y="95" type="curve"/>
      <point x="517" y="126"/>
      <point x="518" y="169"/>
      <point x="518" y="244" type="curve"/>
      <point x="699" y="244" type="line" smooth="yes"/>
      <point x="719" y="244"/>
      <point x="727" y="281"/>
      <point x="727" y="292" type="curve" smooth="yes"/>
      <point x="727" y="325"/>
      <point x="712" y="338"/>
      <point x="696" y="338" type="curve" smooth="yes"/>
      <point x="676" y="338"/>
      <point x="659" y="334"/>
      <point x="643" y="334" type="curve" smooth="yes"/>
      <point x="613" y="334"/>
      <point x="595" y="336"/>
      <point x="515" y="336" type="curve"/>
      <point x="515" y="474" type="line"/>
      <point x="772" y="470" type="line" smooth="yes"/>
      <point x="787" y="470"/>
      <point x="802" y="496"/>
      <point x="802" y="516" type="curve" smooth="yes"/>
      <point x="802" y="556"/>
      <point x="789" y="561"/>
      <point x="749" y="561" type="curve" smooth="yes"/>
      <point x="664" y="561"/>
      <point x="605" y="557"/>
      <point x="546" y="557" type="curve" smooth="yes"/>
      <point x="525" y="557"/>
      <point x="509" y="575"/>
      <point x="490" y="575" type="curve" smooth="yes"/>
      <point x="469" y="575"/>
      <point x="461" y="512"/>
      <point x="458" y="488" type="curve"/>
      <point x="428" y="537"/>
      <point x="359" y="561"/>
      <point x="301" y="561" type="curve" smooth="yes"/>
      <point x="176" y="561"/>
      <point x="53" y="482"/>
    </contour>
    <contour>
      <point x="283" y="80" type="curve" smooth="yes"/>
      <point x="195" y="80"/>
      <point x="117" y="185"/>
      <point x="117" y="283" type="curve" smooth="yes"/>
      <point x="117" y="409"/>
      <point x="210" y="471"/>
      <point x="308" y="471" type="curve" smooth="yes"/>
      <point x="364" y="471"/>
      <point x="429" y="424"/>
      <point x="459" y="374" type="curve"/>
      <point x="459" y="359"/>
      <point x="458" y="332"/>
      <point x="458" y="318" type="curve"/>
      <point x="453" y="312"/>
      <point x="449" y="300"/>
      <point x="449" y="288" type="curve" smooth="yes"/>
      <point x="449" y="278"/>
      <point x="453" y="265"/>
      <point x="456" y="255" type="curve"/>
      <point x="456" y="180" type="line"/>
      <point x="421" y="120"/>
      <point x="341" y="80"/>
    </contour>
  </outline>
</glyph>
<glyph name="uni0162" format="1">
  <advance width="401"/>
  <unicode hex="0162"/>
  <outline>
    <contour>
      <point x="181" y="-57" type="curve" smooth="yes"/>
      <point x="181" y="-121"/>
      <point x="229" y="-160"/>
      <point x="229" y="-171" type="curve" smooth="yes"/>
      <point x="229" y="-182"/>
      <point x="217" y="-183"/>
      <point x="204" y="-183" type="curve" smooth="yes"/>
      <point x="170" y="-183"/>
      <point x="150" y="-162"/>
      <point x="129" y="-152" type="curve"/>
      <point x="118" y="-152"/>
      <point x="105" y="-168"/>
      <point x="105" y="-195" type="curve" smooth="yes"/>
      <point x="105" y="-249"/>
      <point x="178" y="-265"/>
      <point x="200" y="-265" type="curve" smooth="yes"/>
      <point x="249" y="-265"/>
      <point x="287" y="-247"/>
      <point x="287" y="-167" type="curve" smooth="yes"/>
      <point x="287" y="-110"/>
      <point x="238" y="-85"/>
      <point x="232" y="-50" type="curve"/>
      <point x="236" y="-32" type="line" smooth="yes"/>
      <point x="236" y="-30"/>
      <point x="237" y="-28"/>
      <point x="237" y="-25" type="curve" smooth="yes"/>
      <point x="237" y="-21"/>
      <point x="236" y="-13"/>
      <point x="232" y="-6" type="curve"/>
      <point x="254" y="-4"/>
      <point x="257" y="8"/>
      <point x="258" y="37" type="curve"/>
      <point x="250" y="91" type="line" smooth="yes"/>
      <point x="250" y="94"/>
      <point x="250" y="98"/>
      <point x="237" y="475" type="curve"/>
      <point x="259" y="478"/>
      <point x="298" y="478"/>
      <point x="306" y="478" type="curve" smooth="yes"/>
      <point x="321" y="478"/>
      <point x="337" y="458"/>
      <point x="350" y="458" type="curve" smooth="yes"/>
      <point x="369" y="458"/>
      <point x="388" y="497"/>
      <point x="388" y="516" type="curve" smooth="yes"/>
      <point x="388" y="542"/>
      <point x="374" y="564"/>
      <point x="351" y="564" type="curve"/>
      <point x="278" y="559" type="line"/>
      <point x="84" y="557" type="line" smooth="yes"/>
      <point x="57" y="557"/>
      <point x="29" y="545"/>
      <point x="29" y="493" type="curve" smooth="yes"/>
      <point x="29" y="467"/>
      <point x="43" y="457"/>
      <point x="72" y="457" type="curve" smooth="yes"/>
      <point x="101" y="457"/>
      <point x="135" y="464"/>
      <point x="171" y="467" type="curve"/>
      <point x="184" y="89" type="line" smooth="yes"/>
      <point x="184" y="80"/>
      <point x="183" y="70"/>
      <point x="183" y="62" type="curve" smooth="yes"/>
      <point x="183" y="33"/>
      <point x="185" y="12"/>
      <point x="198" y="1" type="curve"/>
      <point x="183" y="-11"/>
      <point x="181" y="-43"/>
    </contour>
  </outline>
</glyph>
<glyph name="uni0163" format="1">
  <advance width="369"/>
  <unicode hex="0163"/>
  <outline>
    <contour>
      <point x="110" y="-114" type="curve"/>
      <point x="99" y="-114"/>
      <point x="86" y="-130"/>
      <point x="86" y="-157" type="curve" smooth="yes"/>
      <point x="86" y="-211"/>
      <point x="159" y="-227"/>
      <point x="181" y="-227" type="curve" smooth="yes"/>
      <point x="230" y="-227"/>
      <point x="268" y="-209"/>
      <point x="268" y="-129" type="curve" smooth="yes"/>
      <point x="268" y="-72"/>
      <point x="219" y="-47"/>
      <point x="213" y="-12" type="curve"/>
      <point x="214" y="-4" type="line"/>
      <point x="219" y="-4"/>
      <point x="223" y="-5"/>
      <point x="228" y="-5" type="curve" smooth="yes"/>
      <point x="261" y="-5"/>
      <point x="319" y="49"/>
      <point x="319" y="89" type="curve" smooth="yes"/>
      <point x="319" y="108"/>
      <point x="315" y="118"/>
      <point x="299" y="118" type="curve" smooth="yes"/>
      <point x="295" y="118"/>
      <point x="258" y="85"/>
      <point x="225" y="85" type="curve" smooth="yes"/>
      <point x="180" y="85"/>
      <point x="173" y="151"/>
      <point x="173" y="222" type="curve" smooth="yes"/>
      <point x="173" y="267"/>
      <point x="175" y="325"/>
      <point x="175" y="348" type="curve"/>
      <point x="317" y="346" type="line" smooth="yes"/>
      <point x="330" y="346"/>
      <point x="348" y="360"/>
      <point x="348" y="388" type="curve" smooth="yes"/>
      <point x="348" y="406"/>
      <point x="342" y="437"/>
      <point x="322" y="437" type="curve" smooth="yes"/>
      <point x="273" y="437"/>
      <point x="224" y="435"/>
      <point x="176" y="435" type="curve"/>
      <point x="179" y="453" type="line" smooth="yes"/>
      <point x="181" y="468"/>
      <point x="186" y="494"/>
      <point x="186" y="553" type="curve" smooth="yes"/>
      <point x="186" y="578"/>
      <point x="170" y="595"/>
      <point x="159" y="595" type="curve" smooth="yes"/>
      <point x="119" y="595"/>
      <point x="115" y="472"/>
      <point x="114" y="436" type="curve"/>
      <point x="94" y="437"/>
      <point x="77" y="438"/>
      <point x="60" y="438" type="curve" smooth="yes"/>
      <point x="40" y="438"/>
      <point x="21" y="417"/>
      <point x="21" y="390" type="curve" smooth="yes"/>
      <point x="21" y="362"/>
      <point x="49" y="346"/>
      <point x="60" y="346" type="curve" smooth="yes"/>
      <point x="79" y="346"/>
      <point x="94" y="348"/>
      <point x="109" y="348" type="curve"/>
      <point x="120" y="246"/>
      <point x="96" y="74"/>
      <point x="166" y="15" type="curve"/>
      <point x="162" y="3"/>
      <point x="162" y="-11"/>
      <point x="162" y="-19" type="curve" smooth="yes"/>
      <point x="162" y="-83"/>
      <point x="210" y="-122"/>
      <point x="210" y="-133" type="curve" smooth="yes"/>
      <point x="210" y="-144"/>
      <point x="198" y="-145"/>
      <point x="185" y="-145" type="curve" smooth="yes"/>
      <point x="151" y="-145"/>
      <point x="131" y="-124"/>
    </contour>
  </outline>
</glyph>
<glyph name="Tbar" format="1">
  <advance width="401"/>
  <unicode hex="0166"/>
  <outline>
    <contour>
      <point x="183" y="62" type="curve" smooth="yes"/>
      <point x="183" y="20"/>
      <point x="188" y="-6"/>
      <point x="225" y="-6" type="curve" smooth="yes"/>
      <point x="254" y="-6"/>
      <point x="257" y="5"/>
      <point x="258" y="37" type="curve"/>
      <point x="250" y="91" type="line" smooth="yes"/>
      <point x="250" y="93"/>
      <point x="250" y="100"/>
      <point x="244" y="269" type="curve"/>
      <point x="292" y="273" type="line" smooth="yes"/>
      <point x="310" y="274"/>
      <point x="326" y="273"/>
      <point x="326" y="318" type="curve" smooth="yes"/>
      <point x="326" y="356"/>
      <point x="312" y="363"/>
      <point x="298" y="363" type="curve" smooth="yes"/>
      <point x="280" y="363"/>
      <point x="260" y="362"/>
      <point x="241" y="360" type="curve"/>
      <point x="237" y="475" type="line"/>
      <point x="259" y="478"/>
      <point x="298" y="478"/>
      <point x="306" y="478" type="curve" smooth="yes"/>
      <point x="321" y="478"/>
      <point x="337" y="458"/>
      <point x="350" y="458" type="curve" smooth="yes"/>
      <point x="369" y="458"/>
      <point x="388" y="497"/>
      <point x="388" y="516" type="curve" smooth="yes"/>
      <point x="388" y="542"/>
      <point x="374" y="564"/>
      <point x="351" y="564" type="curve"/>
      <point x="278" y="559" type="line"/>
      <point x="84" y="557" type="line" smooth="yes"/>
      <point x="57" y="557"/>
      <point x="29" y="545"/>
      <point x="29" y="493" type="curve" smooth="yes"/>
      <point x="29" y="467"/>
      <point x="43" y="457"/>
      <point x="72" y="457" type="curve" smooth="yes"/>
      <point x="101" y="457"/>
      <point x="135" y="464"/>
      <point x="171" y="467" type="curve"/>
      <point x="175" y="354" type="line"/>
      <point x="163" y="353"/>
      <point x="152" y="353"/>
      <point x="142" y="353" type="curve" smooth="yes"/>
      <point x="127" y="353"/>
      <point x="113" y="355"/>
      <point x="103" y="355" type="curve" smooth="yes"/>
      <point x="91" y="355"/>
      <point x="72" y="331"/>
      <point x="72" y="309" type="curve" smooth="yes"/>
      <point x="72" y="289"/>
      <point x="83" y="260"/>
      <point x="107" y="260" type="curve"/>
      <point x="178" y="265" type="line"/>
      <point x="184" y="89" type="line" smooth="yes"/>
      <point x="184" y="80"/>
      <point x="183" y="70"/>
    </contour>
  </outline>
</glyph>
<glyph name="tbar" format="1">
  <advance width="369"/>
  <unicode hex="0167"/>
  <outline>
    <contour>
      <point x="58" y="180" type="curve"/>
      <point x="114" y="183" type="line"/>
      <point x="119" y="85"/>
      <point x="137" y="-5"/>
      <point x="228" y="-5" type="curve" smooth="yes"/>
      <point x="261" y="-5"/>
      <point x="319" y="49"/>
      <point x="319" y="89" type="curve" smooth="yes"/>
      <point x="319" y="108"/>
      <point x="315" y="118"/>
      <point x="299" y="118" type="curve" smooth="yes"/>
      <point x="295" y="118"/>
      <point x="258" y="85"/>
      <point x="225" y="85" type="curve" smooth="yes"/>
      <point x="187" y="85"/>
      <point x="176" y="130"/>
      <point x="173" y="186" type="curve"/>
      <point x="293" y="193" type="line" smooth="yes"/>
      <point x="298" y="193"/>
      <point x="304" y="192"/>
      <point x="308" y="192" type="curve" smooth="yes"/>
      <point x="319" y="192"/>
      <point x="327" y="197"/>
      <point x="327" y="228" type="curve" smooth="yes"/>
      <point x="327" y="266"/>
      <point x="313" y="273"/>
      <point x="299" y="273" type="curve" smooth="yes"/>
      <point x="269" y="273"/>
      <point x="219" y="269"/>
      <point x="173" y="266" type="curve"/>
      <point x="174" y="299"/>
      <point x="175" y="332"/>
      <point x="175" y="348" type="curve"/>
      <point x="317" y="346" type="line" smooth="yes"/>
      <point x="330" y="346"/>
      <point x="348" y="360"/>
      <point x="348" y="388" type="curve" smooth="yes"/>
      <point x="348" y="406"/>
      <point x="342" y="437"/>
      <point x="322" y="437" type="curve" smooth="yes"/>
      <point x="273" y="437"/>
      <point x="224" y="435"/>
      <point x="176" y="435" type="curve"/>
      <point x="179" y="453" type="line" smooth="yes"/>
      <point x="181" y="468"/>
      <point x="186" y="494"/>
      <point x="186" y="553" type="curve" smooth="yes"/>
      <point x="186" y="578"/>
      <point x="170" y="595"/>
      <point x="159" y="595" type="curve" smooth="yes"/>
      <point x="119" y="595"/>
      <point x="115" y="472"/>
      <point x="114" y="436" type="curve"/>
      <point x="94" y="437"/>
      <point x="77" y="438"/>
      <point x="60" y="438" type="curve" smooth="yes"/>
      <point x="40" y="438"/>
      <point x="21" y="417"/>
      <point x="21" y="390" type="curve" smooth="yes"/>
      <point x="21" y="362"/>
      <point x="49" y="346"/>
      <point x="60" y="346" type="curve" smooth="yes"/>
      <point x="79" y="346"/>
      <point x="94" y="348"/>
      <point x="109" y="348" type="curve"/>
      <point x="112" y="323"/>
      <point x="112" y="294"/>
      <point x="113" y="263" type="curve"/>
      <point x="93" y="263" type="line" smooth="yes"/>
      <point x="78" y="263"/>
      <point x="64" y="265"/>
      <point x="54" y="265" type="curve" smooth="yes"/>
      <point x="42" y="265"/>
      <point x="23" y="241"/>
      <point x="23" y="219" type="curve" smooth="yes"/>
      <point x="23" y="199"/>
      <point x="34" y="180"/>
    </contour>
  </outline>
</glyph>
<glyph name="circumflex" format="1">
  <advance width="417"/>
  <unicode hex="02C6"/>
  <outline>
    <contour>
      <point x="220" y="656" type="move" name="_top"/>
    </contour>
    <contour>
      <point x="71" y="466" type="curve" smooth="yes"/>
      <point x="110" y="466"/>
      <point x="173" y="545"/>
      <point x="208" y="570" type="curve"/>
      <point x="250" y="547"/>
      <point x="298" y="459"/>
      <point x="323" y="459" type="curve" smooth="yes"/>
      <point x="350" y="459"/>
      <point x="370" y="488"/>
      <point x="370" y="509" type="curve" smooth="yes"/>
      <point x="370" y="534"/>
      <point x="308" y="575"/>
      <point x="287" y="598" type="curve" smooth="yes"/>
      <point x="266" y="620"/>
      <point x="240" y="655"/>
      <point x="215" y="655" type="curve" smooth="yes"/>
      <point x="179" y="655"/>
      <point x="124" y="599"/>
      <point x="62" y="549" type="curve"/>
      <point x="52" y="543"/>
      <point x="39" y="532"/>
      <point x="39" y="514" type="curve" smooth="yes"/>
      <point x="39" y="480"/>
      <point x="56" y="466"/>
    </contour>
  </outline>
</glyph>
<glyph name="caron" format="1">
  <advance width="417"/>
  <unicode hex="02C7"/>
  <outline>
    <contour>
      <point x="201" y="656" type="move" name="_top"/>
    </contour>
    <contour>
      <point x="194" y="479" type="curve" smooth="yes"/>
      <point x="230" y="479"/>
      <point x="285" y="535"/>
      <point x="347" y="585" type="curve"/>
      <point x="357" y="591"/>
      <point x="370" y="602"/>
      <point x="370" y="620" type="curve" smooth="yes"/>
      <point x="370" y="654"/>
      <point x="353" y="668"/>
      <point x="338" y="668" type="curve" smooth="yes"/>
      <point x="299" y="668"/>
      <point x="236" y="589"/>
      <point x="201" y="564" type="curve"/>
      <point x="159" y="587"/>
      <point x="111" y="675"/>
      <point x="86" y="675" type="curve" smooth="yes"/>
      <point x="59" y="675"/>
      <point x="39" y="646"/>
      <point x="39" y="625" type="curve" smooth="yes"/>
      <point x="39" y="600"/>
      <point x="101" y="559"/>
      <point x="122" y="536" type="curve" smooth="yes"/>
      <point x="142" y="514"/>
      <point x="169" y="479"/>
    </contour>
  </outline>
</glyph>
<glyph name="uni02C9" format="1">
  <advance width="413"/>
  <unicode hex="02C9"/>
  <outline>
    <contour>
      <point x="202" y="656" type="move" name="_top"/>
    </contour>
    <contour>
      <point x="89" y="618" type="curve" smooth="yes"/>
      <point x="315" y="618" type="line" smooth="yes"/>
      <point x="332" y="618"/>
      <point x="348" y="618"/>
      <point x="348" y="665" type="curve" smooth="yes"/>
      <point x="348" y="701"/>
      <point x="338" y="705"/>
      <point x="320" y="705" type="curve" smooth="yes"/>
      <point x="85" y="709" type="line" smooth="yes"/>
      <point x="70" y="709"/>
      <point x="56" y="688"/>
      <point x="56" y="666" type="curve" smooth="yes"/>
      <point x="56" y="646"/>
      <point x="66" y="618"/>
    </contour>
  </outline>
</glyph>
<glyph name="breve" format="1">
  <advance width="287"/>
  <unicode hex="02D8"/>
  <outline>
    <contour>
      <point x="145" y="656" type="move" name="_top"/>
    </contour>
    <contour>
      <point x="145" y="480" type="curve" smooth="yes"/>
      <point x="227" y="480"/>
      <point x="283" y="541"/>
      <point x="283" y="612" type="curve" smooth="yes"/>
      <point x="283" y="643"/>
      <point x="266" y="657"/>
      <point x="252" y="657" type="curve" smooth="yes"/>
      <point x="241" y="657"/>
      <point x="219" y="650"/>
      <point x="219" y="616" type="curve" smooth="yes"/>
      <point x="219" y="574"/>
      <point x="175" y="562"/>
      <point x="141" y="562" type="curve" smooth="yes"/>
      <point x="28" y="562"/>
      <point x="94" y="656"/>
      <point x="37" y="656" type="curve" smooth="yes"/>
      <point x="26" y="656"/>
      <point x="4" y="648"/>
      <point x="4" y="605" type="curve" smooth="yes"/>
      <point x="4" y="508"/>
      <point x="73" y="480"/>
    </contour>
  </outline>
</glyph>
<glyph name="dotaccent" format="1">
  <advance width="169"/>
  <unicode hex="02D9"/>
  <outline>
    <contour>
      <point x="85" y="656" type="move" name="_top"/>
    </contour>
    <contour>
      <point x="88" y="539" type="curve" smooth="yes"/>
      <point x="117" y="539"/>
      <point x="131" y="559"/>
      <point x="131" y="596" type="curve" smooth="yes"/>
      <point x="131" y="639"/>
      <point x="105" y="650"/>
      <point x="84" y="650" type="curve" smooth="yes"/>
      <point x="63" y="650"/>
      <point x="36" y="618"/>
      <point x="36" y="589" type="curve" smooth="yes"/>
      <point x="36" y="547"/>
      <point x="70" y="539"/>
    </contour>
  </outline>
</glyph>
<glyph name="ogonek" format="1">
  <advance width="199"/>
  <unicode hex="02DB"/>
  <outline>
    <contour>
      <point x="100" y="695" type="move" name="_top"/>
    </contour>
    <contour>
      <point x="101" y="60" type="line"/>
      <point x="67" y="33"/>
      <point x="6" y="-37"/>
      <point x="6" y="-122" type="curve" smooth="yes"/>
      <point x="6" y="-181"/>
      <point x="52" y="-223"/>
      <point x="112" y="-223" type="curve" smooth="yes"/>
      <point x="147" y="-223"/>
      <point x="205" y="-216"/>
      <point x="205" y="-151" type="curve" smooth="yes"/>
      <point x="205" y="-133"/>
      <point x="200" y="-113"/>
      <point x="187" y="-113" type="curve" smooth="yes"/>
      <point x="157" y="-113"/>
      <point x="158" y="-143"/>
      <point x="119" y="-143" type="curve" smooth="yes"/>
      <point x="102" y="-143"/>
      <point x="71" y="-127"/>
      <point x="71" y="-103" type="curve" smooth="yes"/>
      <point x="71" y="-38"/>
      <point x="195" y="3"/>
      <point x="195" y="62" type="curve" smooth="yes"/>
      <point x="195" y="85"/>
      <point x="178" y="98"/>
      <point x="166" y="98" type="curve"/>
    </contour>
  </outline>
</glyph>
<glyph name="tilde" format="1">
  <advance width="398"/>
  <unicode hex="02DC"/>
  <outline>
    <contour>
      <point x="203" y="656" type="move" name="_top"/>
    </contour>
    <contour>
      <point x="85" y="526" type="curve" smooth="yes"/>
      <point x="103" y="526"/>
      <point x="107" y="575"/>
      <point x="141" y="575" type="curve" smooth="yes"/>
      <point x="176" y="575"/>
      <point x="216" y="510"/>
      <point x="259" y="510" type="curve" smooth="yes"/>
      <point x="310" y="510"/>
      <point x="337" y="561"/>
      <point x="337" y="603" type="curve" smooth="yes"/>
      <point x="337" y="619"/>
      <point x="331" y="633"/>
      <point x="316" y="633" type="curve" smooth="yes"/>
      <point x="292" y="633"/>
      <point x="293" y="593"/>
      <point x="259" y="593" type="curve" smooth="yes"/>
      <point x="226" y="593"/>
      <point x="207" y="655"/>
      <point x="142" y="655" type="curve" smooth="yes"/>
      <point x="100" y="655"/>
      <point x="57" y="616"/>
      <point x="57" y="564" type="curve" smooth="yes"/>
      <point x="57" y="541"/>
      <point x="70" y="526"/>
    </contour>
  </outline>
</glyph>
<glyph name="pi" format="1">
  <advance width="464"/>
  <unicode hex="03C0"/>
  <outline>
    <contour>
      <point x="62" y="34" type="curve" smooth="yes"/>
      <point x="62" y="15"/>
      <point x="71" y="-12"/>
      <point x="93" y="-12" type="curve" smooth="yes"/>
      <point x="119" y="-12"/>
      <point x="132" y="1"/>
      <point x="147" y="75" type="curve"/>
      <point x="167" y="198" type="line"/>
      <point x="173" y="241"/>
      <point x="180" y="297"/>
      <point x="181" y="339" type="curve"/>
      <point x="255" y="339" type="line"/>
      <point x="250" y="271"/>
      <point x="244" y="216"/>
      <point x="244" y="142" type="curve" smooth="yes"/>
      <point x="244" y="60"/>
      <point x="260" y="-11"/>
      <point x="330" y="-11" type="curve" smooth="yes"/>
      <point x="367" y="-11"/>
      <point x="424" y="23"/>
      <point x="424" y="65" type="curve" smooth="yes"/>
      <point x="424" y="89"/>
      <point x="422" y="102"/>
      <point x="406" y="102" type="curve" smooth="yes"/>
      <point x="386" y="102"/>
      <point x="377" y="87"/>
      <point x="353" y="87" type="curve" smooth="yes"/>
      <point x="318" y="87"/>
      <point x="310" y="125"/>
      <point x="310" y="172" type="curve"/>
      <point x="308" y="218"/>
      <point x="320" y="276"/>
      <point x="320" y="339" type="curve"/>
      <point x="390" y="339" type="line" smooth="yes"/>
      <point x="407" y="339"/>
      <point x="424" y="339"/>
      <point x="424" y="386" type="curve" smooth="yes"/>
      <point x="424" y="421"/>
      <point x="412" y="435"/>
      <point x="395" y="435" type="curve" smooth="yes"/>
      <point x="368" y="435"/>
      <point x="314" y="436"/>
      <point x="258" y="437" type="curve"/>
      <point x="189" y="437"/>
      <point x="134" y="439"/>
      <point x="66" y="439" type="curve" smooth="yes"/>
      <point x="51" y="439"/>
      <point x="38" y="406"/>
      <point x="38" y="385" type="curve" smooth="yes"/>
      <point x="38" y="365"/>
      <point x="48" y="339"/>
      <point x="70" y="339" type="curve" smooth="yes"/>
      <point x="113" y="339" type="line"/>
      <point x="113" y="223"/>
      <point x="100" y="191"/>
      <point x="79" y="114" type="curve" smooth="yes"/>
      <point x="71" y="86"/>
      <point x="62" y="54"/>
    </contour>
  </outline>
</glyph>
<glyph name="uni0902" format="1">
  <advance width="0"/>
  <unicode hex="0902"/>
  <outline>
    <contour>
      <point x="-167" y="765" type="curve" smooth="yes"/>
      <point x="-154" y="765"/>
      <point x="-103" y="822"/>
      <point x="-103" y="838" type="curve" smooth="yes"/>
      <point x="-103" y="853"/>
      <point x="-155" y="907"/>
      <point x="-167" y="907" type="curve" smooth="yes"/>
      <point x="-181" y="907"/>
      <point x="-226" y="854"/>
      <point x="-226" y="838" type="curve" smooth="yes"/>
      <point x="-226" y="821"/>
      <point x="-184" y="765"/>
    </contour>
  </outline>
</glyph>
<glyph name="uni0903" format="1">
  <advance width="300"/>
  <unicode hex="0903"/>
  <outline>
    <contour>
      <point x="146" y="297" type="curve" smooth="yes"/>
      <point x="156" y="297"/>
      <point x="219" y="350"/>
      <point x="219" y="379" type="curve" smooth="yes"/>
      <point x="219" y="401"/>
      <point x="163" y="463"/>
      <point x="146" y="463" type="curve" smooth="yes"/>
      <point x="135" y="463"/>
      <point x="78" y="403"/>
      <point x="78" y="379" type="curve" smooth="yes"/>
      <point x="78" y="371"/>
      <point x="115" y="297"/>
    </contour>
    <contour>
      <point x="78" y="126" type="curve" smooth="yes"/>
      <point x="78" y="107"/>
      <point x="131" y="44"/>
      <point x="146" y="44" type="curve" smooth="yes"/>
      <point x="155" y="44"/>
      <point x="219" y="74"/>
      <point x="219" y="126" type="curve" smooth="yes"/>
      <point x="219" y="151"/>
      <point x="173" y="207"/>
      <point x="146" y="207" type="curve" smooth="yes"/>
      <point x="131" y="207"/>
      <point x="78" y="146"/>
    </contour>
  </outline>
</glyph>
<glyph name="uni0905" format="1">
  <advance width="803"/>
  <unicode hex="0905"/>
  <outline>
    <contour>
      <point x="105" y="166" type="curve" smooth="yes"/>
      <point x="105" y="179"/>
      <point x="121" y="197"/>
      <point x="121" y="213" type="curve" smooth="yes"/>
      <point x="121" y="251"/>
      <point x="88" y="280"/>
      <point x="70" y="280" type="curve" smooth="yes"/>
      <point x="57" y="280"/>
      <point x="52" y="273"/>
      <point x="52" y="261" type="curve" smooth="yes"/>
      <point x="52" y="82"/>
      <point x="161" y="-68"/>
      <point x="307" y="-68" type="curve" smooth="yes"/>
      <point x="393" y="-68"/>
      <point x="466" y="-8"/>
      <point x="466" y="71" type="curve" smooth="yes"/>
      <point x="466" y="90"/>
      <point x="463" y="110"/>
      <point x="454" y="137" type="curve"/>
      <point x="455" y="137" type="line"/>
      <point x="489" y="163"/>
      <point x="554" y="184"/>
      <point x="640" y="192" type="curve" smooth="yes"/>
      <point x="642" y="192" type="line"/>
      <point x="642" y="103"/>
      <point x="618" y="29"/>
      <point x="588" y="29" type="curve" smooth="yes"/>
      <point x="576" y="29"/>
      <point x="565" y="23"/>
      <point x="565" y="16" type="curve" smooth="yes"/>
      <point x="565" y="-12"/>
      <point x="620" y="-68"/>
      <point x="645" y="-68" type="curve" smooth="yes"/>
      <point x="691" y="-68"/>
      <point x="715" y="28"/>
      <point x="715" y="137" type="curve" smooth="yes"/>
      <point x="715" y="253"/>
      <point x="703" y="489"/>
      <point x="703" y="487" type="curve" smooth="yes"/>
      <point x="703" y="501"/>
      <point x="705" y="512"/>
      <point x="710" y="516" type="curve"/>
      <point x="823" y="516" type="line"/>
      <point x="823" y="580" type="line"/>
      <point x="723" y="580" type="line"/>
      <point x="699" y="615"/>
      <point x="684" y="650"/>
      <point x="668" y="650" type="curve" smooth="yes"/>
      <point x="645" y="650"/>
      <point x="629" y="617"/>
      <point x="629" y="580" type="curve"/>
      <point x="588" y="580" type="line" smooth="yes"/>
      <point x="570" y="580"/>
      <point x="525" y="591"/>
      <point x="505" y="591" type="curve" smooth="yes"/>
      <point x="490" y="591"/>
      <point x="484" y="581"/>
      <point x="484" y="566" type="curve" smooth="yes"/>
      <point x="484" y="527"/>
      <point x="515" y="495"/>
      <point x="540" y="495" type="curve" smooth="yes"/>
      <point x="560" y="495"/>
      <point x="592" y="516"/>
      <point x="613" y="516" type="curve" smooth="yes"/>
      <point x="632" y="516" type="line"/>
      <point x="632" y="460"/>
      <point x="642" y="270"/>
      <point x="642" y="218" type="curve"/>
      <point x="639" y="218" type="line"/>
      <point x="596" y="261" type="line"/>
      <point x="543" y="261"/>
      <point x="486" y="248"/>
      <point x="419" y="218" type="curve"/>
      <point x="417" y="218" type="line"/>
      <point x="374" y="263" type="line"/>
      <point x="421" y="308"/>
      <point x="454" y="356"/>
      <point x="454" y="405" type="curve" smooth="yes"/>
      <point x="454" y="504"/>
      <point x="394" y="591"/>
      <point x="313" y="591" type="curve" smooth="yes"/>
      <point x="243" y="591"/>
      <point x="137" y="552"/>
      <point x="137" y="516" type="curve" smooth="yes"/>
      <point x="137" y="484"/>
      <point x="165" y="421"/>
      <point x="188" y="421" type="curve" smooth="yes"/>
      <point x="228" y="421"/>
      <point x="180" y="458"/>
      <point x="259" y="499" type="curve" smooth="yes"/>
      <point x="290" y="515"/>
      <point x="309" y="523"/>
      <point x="340" y="523" type="curve" smooth="yes"/>
      <point x="379" y="523"/>
      <point x="411" y="494"/>
      <point x="411" y="457" type="curve" smooth="yes"/>
      <point x="411" y="416"/>
      <point x="378" y="359"/>
      <point x="308" y="311" type="curve"/>
      <point x="306" y="311" type="line"/>
      <point x="295" y="317"/>
      <point x="275" y="319"/>
      <point x="246" y="319" type="curve" smooth="yes"/>
      <point x="218" y="319"/>
      <point x="190" y="301"/>
      <point x="190" y="280" type="curve" smooth="yes"/>
      <point x="190" y="250"/>
      <point x="232" y="199"/>
      <point x="254" y="199" type="curve" smooth="yes"/>
      <point x="284" y="199"/>
      <point x="321" y="212"/>
      <point x="339" y="235" type="curve"/>
      <point x="341" y="235" type="line"/>
      <point x="370" y="211"/>
      <point x="390" y="165"/>
      <point x="390" y="123" type="curve" smooth="yes"/>
      <point x="390" y="41"/>
      <point x="342" y="10"/>
      <point x="286" y="10" type="curve" smooth="yes"/>
      <point x="172" y="10"/>
      <point x="105" y="84"/>
    </contour>
  </outline>
</glyph>
<glyph name="uni090A" format="1">
  <advance width="838"/>
  <unicode hex="090A"/>
  <outline>
    <contour>
      <point x="122" y="208" type="curve" smooth="yes"/>
      <point x="122" y="222"/>
      <point x="127" y="262"/>
      <point x="127" y="274" type="curve" smooth="yes"/>
      <point x="127" y="290"/>
      <point x="96" y="336"/>
      <point x="81" y="336" type="curve" smooth="yes"/>
      <point x="63" y="336"/>
      <point x="58" y="322"/>
      <point x="58" y="300" type="curve" smooth="yes"/>
      <point x="58" y="97"/>
      <point x="206" y="-60"/>
      <point x="383" y="-60" type="curve" smooth="yes"/>
      <point x="451" y="-60"/>
      <point x="508" y="-3"/>
      <point x="508" y="77" type="curve" smooth="yes"/>
      <point x="508" y="111"/>
      <point x="503" y="146"/>
      <point x="495" y="167" type="curve"/>
      <point x="534" y="248"/>
      <point x="595" y="300"/>
      <point x="646" y="300" type="curve" smooth="yes"/>
      <point x="682" y="300"/>
      <point x="708" y="261"/>
      <point x="708" y="218" type="curve" smooth="yes"/>
      <point x="708" y="126"/>
      <point x="657" y="45"/>
      <point x="584" y="22" type="curve"/>
      <point x="596" y="-16"/>
      <point x="619" y="-44"/>
      <point x="641" y="-44" type="curve" smooth="yes"/>
      <point x="709" y="-44"/>
      <point x="763" y="53"/>
      <point x="763" y="160" type="curve" smooth="yes"/>
      <point x="763" y="251"/>
      <point x="686" y="370"/>
      <point x="618" y="370" type="curve" smooth="yes"/>
      <point x="549" y="370"/>
      <point x="486" y="314"/>
      <point x="445" y="228" type="curve"/>
      <point x="443" y="228" type="line"/>
      <point x="408" y="268" type="line"/>
      <point x="427" y="289"/>
      <point x="430" y="331"/>
      <point x="430" y="376" type="curve"/>
      <point x="427" y="453" type="line"/>
      <point x="427" y="483"/>
      <point x="428" y="505"/>
      <point x="431" y="516" type="curve"/>
      <point x="851" y="516" type="line"/>
      <point x="851" y="580" type="line"/>
      <point x="433" y="580" type="line"/>
      <point x="412" y="612"/>
      <point x="391" y="638"/>
      <point x="380" y="638" type="curve" smooth="yes"/>
      <point x="362" y="638"/>
      <point x="353" y="623"/>
      <point x="353" y="580" type="curve"/>
      <point x="-3" y="580" type="line"/>
      <point x="-3" y="516" type="line"/>
      <point x="358" y="516" type="line"/>
      <point x="362" y="481"/>
      <point x="363" y="448"/>
      <point x="363" y="413" type="curve" smooth="yes"/>
      <point x="363" y="384"/>
      <point x="359" y="357"/>
      <point x="350" y="326" type="curve"/>
      <point x="333" y="330"/>
      <point x="308" y="332"/>
      <point x="287" y="332" type="curve" smooth="yes"/>
      <point x="255" y="332"/>
      <point x="235" y="307"/>
      <point x="235" y="286" type="curve" smooth="yes"/>
      <point x="235" y="256"/>
      <point x="280" y="192"/>
      <point x="302" y="192" type="curve" smooth="yes"/>
      <point x="330" y="192"/>
      <point x="356" y="207"/>
      <point x="386" y="244" type="curve"/>
      <point x="390" y="244" type="line"/>
      <point x="419" y="207"/>
      <point x="436" y="173"/>
      <point x="436" y="143" type="curve" smooth="yes"/>
      <point x="436" y="73"/>
      <point x="382" y="22"/>
      <point x="324" y="22" type="curve" smooth="yes"/>
      <point x="216" y="22"/>
      <point x="122" y="104"/>
    </contour>
  </outline>
</glyph>
<glyph name="uni090F" format="1">
  <advance width="548"/>
  <unicode hex="090F"/>
  <outline>
    <contour>
      <point x="96" y="137" type="curve"/>
      <point x="191" y="82"/>
      <point x="293" y="20"/>
      <point x="388" y="-36" type="curve"/>
      <point x="456" y="-85"/>
      <point x="497" y="-136"/>
      <point x="497" y="-174" type="curve" smooth="yes"/>
      <point x="497" y="-194"/>
      <point x="492" y="-208"/>
      <point x="481" y="-220" type="curve"/>
      <point x="504" y="-255"/>
      <point x="522" y="-271"/>
      <point x="537" y="-271" type="curve" smooth="yes"/>
      <point x="551" y="-271"/>
      <point x="565" y="-240"/>
      <point x="565" y="-198" type="curve" smooth="yes"/>
      <point x="565" y="-110"/>
      <point x="456" y="-13"/>
      <point x="161" y="148" type="curve"/>
      <point x="160" y="148" type="line"/>
      <point x="177" y="170"/>
      <point x="184" y="206"/>
      <point x="184" y="251" type="curve" smooth="yes"/>
      <point x="184" y="275"/>
      <point x="178" y="375"/>
      <point x="178" y="401" type="curve" smooth="yes"/>
      <point x="178" y="460"/>
      <point x="186" y="501"/>
      <point x="202" y="516" type="curve"/>
      <point x="389" y="516" type="line"/>
      <point x="389" y="472" type="line" smooth="yes"/>
      <point x="389" y="447"/>
      <point x="393" y="364"/>
      <point x="393" y="336" type="curve" smooth="yes"/>
      <point x="393" y="302"/>
      <point x="371" y="268"/>
      <point x="348" y="268" type="curve" smooth="yes"/>
      <point x="338" y="268"/>
      <point x="303" y="286"/>
      <point x="297" y="286" type="curve" smooth="yes"/>
      <point x="287" y="286"/>
      <point x="280" y="281"/>
      <point x="280" y="274" type="curve" smooth="yes"/>
      <point x="280" y="242"/>
      <point x="346" y="186"/>
      <point x="372" y="186" type="curve" smooth="yes"/>
      <point x="521" y="186"/>
      <point x="428" y="516"/>
      <point x="504" y="516" type="curve" smooth="yes"/>
      <point x="557" y="516" type="line"/>
      <point x="557" y="580" type="line"/>
      <point x="-3" y="580" type="line"/>
      <point x="-3" y="516" type="line"/>
      <point x="110" y="516" type="line"/>
      <point x="103" y="494"/>
      <point x="97" y="472"/>
      <point x="97" y="453" type="curve" smooth="yes"/>
      <point x="97" y="429"/>
      <point x="105" y="358"/>
      <point x="105" y="336" type="curve" smooth="yes"/>
      <point x="105" y="279"/>
      <point x="87" y="218"/>
      <point x="64" y="184" type="curve"/>
      <point x="64" y="180"/>
      <point x="62" y="176"/>
      <point x="62" y="172" type="curve" smooth="yes"/>
      <point x="62" y="160"/>
      <point x="73" y="146"/>
    </contour>
  </outline>
</glyph>
<glyph name="uni0915" format="1">
  <advance width="830"/>
  <unicode hex="0915"/>
  <outline>
    <contour>
      <point x="479" y="580" type="move" name="mark0"/>
    </contour>
    <contour>
      <point x="51" y="286" type="curve" smooth="yes"/>
      <point x="51" y="215"/>
      <point x="180" y="107"/>
      <point x="272" y="107" type="curve" smooth="yes"/>
      <point x="335" y="107"/>
      <point x="393" y="130"/>
      <point x="449" y="167" type="curve"/>
      <point x="449" y="107" type="line" smooth="yes"/>
      <point x="449" y="66"/>
      <point x="424" y="29"/>
      <point x="384" y="29" type="curve" smooth="yes"/>
      <point x="375" y="29"/>
      <point x="361" y="23"/>
      <point x="361" y="16" type="curve" smooth="yes"/>
      <point x="361" y="-11"/>
      <point x="414" y="-55"/>
      <point x="435" y="-55" type="curve" smooth="yes"/>
      <point x="488" y="-55"/>
      <point x="521" y="-4"/>
      <point x="521" y="65" type="curve" smooth="yes"/>
      <point x="521" y="261" type="line"/>
      <point x="557" y="282"/>
      <point x="608" y="293"/>
      <point x="658" y="293" type="curve" smooth="yes"/>
      <point x="691" y="293"/>
      <point x="718" y="267"/>
      <point x="718" y="228" type="curve" smooth="yes"/>
      <point x="718" y="165"/>
      <point x="674" y="107"/>
      <point x="614" y="107" type="curve" smooth="yes"/>
      <point x="603" y="107"/>
      <point x="592" y="100"/>
      <point x="592" y="90" type="curve" smooth="yes"/>
      <point x="592" y="84"/>
      <point x="595" y="74"/>
      <point x="602" y="68" type="curve"/>
      <point x="634" y="35" type="line"/>
      <point x="707" y="35"/>
      <point x="771" y="93"/>
      <point x="771" y="167" type="curve" smooth="yes"/>
      <point x="771" y="248"/>
      <point x="675" y="370"/>
      <point x="606" y="370" type="curve" smooth="yes"/>
      <point x="572" y="370"/>
      <point x="540" y="366"/>
      <point x="522" y="357" type="curve"/>
      <point x="521" y="465" type="line" smooth="yes"/>
      <point x="521" y="494"/>
      <point x="527" y="516"/>
      <point x="552" y="516" type="curve" smooth="yes"/>
      <point x="844" y="516" type="line"/>
      <point x="844" y="580" type="line"/>
      <point x="540" y="580" type="line"/>
      <point x="516" y="619"/>
      <point x="492" y="641"/>
      <point x="469" y="641" type="curve" smooth="yes"/>
      <point x="459" y="641"/>
      <point x="449" y="622"/>
      <point x="449" y="598" type="curve" smooth="yes"/>
      <point x="449" y="580" type="line"/>
      <point x="-27" y="580" type="line"/>
      <point x="-27" y="516" type="line"/>
      <point x="449" y="516" type="line"/>
      <point x="449" y="336" type="line"/>
      <point x="414" y="389"/>
      <point x="342" y="421"/>
      <point x="264" y="421" type="curve" smooth="yes"/>
      <point x="136" y="421"/>
      <point x="51" y="367"/>
    </contour>
    <contour>
      <point x="100" y="251" type="curve" smooth="yes"/>
      <point x="100" y="293"/>
      <point x="200" y="336"/>
      <point x="289" y="336" type="curve" smooth="yes"/>
      <point x="342" y="336"/>
      <point x="449" y="300"/>
      <point x="449" y="274" type="curve" smooth="yes"/>
      <point x="449" y="237"/>
      <point x="304" y="178"/>
      <point x="225" y="178" type="curve" smooth="yes"/>
      <point x="157" y="178"/>
      <point x="100" y="215"/>
    </contour>
  </outline>
</glyph>
<glyph name="uni0916" format="1">
  <advance width="917"/>
  <unicode hex="0916"/>
  <outline>
    <contour>
      <point x="174" y="68" type="curve" smooth="yes"/>
      <point x="256" y="-20"/>
      <point x="328" y="-60"/>
      <point x="381" y="-60" type="curve" smooth="yes"/>
      <point x="471" y="-60"/>
      <point x="606" y="6"/>
      <point x="758" y="137" type="curve"/>
      <point x="761" y="137" type="line"/>
      <point x="762" y="128"/>
      <point x="762" y="121"/>
      <point x="762" y="112" type="curve" smooth="yes"/>
      <point x="762" y="64"/>
      <point x="729" y="22"/>
      <point x="694" y="22" type="curve" smooth="yes"/>
      <point x="686" y="22"/>
      <point x="683" y="15"/>
      <point x="683" y="-1" type="curve" smooth="yes"/>
      <point x="683" y="-20"/>
      <point x="729" y="-60"/>
      <point x="759" y="-60" type="curve" smooth="yes"/>
      <point x="808" y="-60"/>
      <point x="832" y="33"/>
      <point x="832" y="143" type="curve" smooth="yes"/>
      <point x="832" y="190"/>
      <point x="819" y="355"/>
      <point x="819" y="401" type="curve" smooth="yes"/>
      <point x="819" y="451"/>
      <point x="821" y="516"/>
      <point x="828" y="516" type="curve" smooth="yes"/>
      <point x="955" y="516" type="line"/>
      <point x="955" y="580" type="line"/>
      <point x="831" y="580" type="line"/>
      <point x="810" y="622"/>
      <point x="788" y="643"/>
      <point x="769" y="643" type="curve" smooth="yes"/>
      <point x="757" y="643"/>
      <point x="748" y="630"/>
      <point x="748" y="580" type="curve"/>
      <point x="301" y="580" type="line"/>
      <point x="280" y="622"/>
      <point x="258" y="643"/>
      <point x="239" y="643" type="curve" smooth="yes"/>
      <point x="227" y="643"/>
      <point x="218" y="630"/>
      <point x="218" y="580" type="curve"/>
      <point x="-8" y="580" type="line"/>
      <point x="-8" y="516" type="line"/>
      <point x="218" y="516" type="line"/>
      <point x="218" y="433"/>
      <point x="220" y="380"/>
      <point x="225" y="357" type="curve"/>
      <point x="222" y="357" type="line"/>
      <point x="191" y="370"/>
      <point x="161" y="376"/>
      <point x="146" y="376" type="curve" smooth="yes"/>
      <point x="96" y="376"/>
      <point x="52" y="334"/>
      <point x="52" y="280" type="curve" smooth="yes"/>
      <point x="52" y="221"/>
      <point x="94" y="153"/>
    </contour>
    <contour>
      <point x="179" y="123" type="curve"/>
      <point x="201" y="123" type="line" smooth="yes"/>
      <point x="259" y="123"/>
      <point x="297" y="192"/>
      <point x="297" y="300" type="curve" smooth="yes"/>
      <point x="297" y="324"/>
      <point x="293" y="398"/>
      <point x="293" y="421" type="curve" smooth="yes"/>
      <point x="293" y="468"/>
      <point x="295" y="498"/>
      <point x="305" y="516" type="curve"/>
      <point x="748" y="516" type="line"/>
      <point x="748" y="438" type="line" smooth="yes"/>
      <point x="748" y="402"/>
      <point x="761" y="274"/>
      <point x="761" y="237" type="curve"/>
      <point x="757" y="237" type="line"/>
      <point x="715" y="333"/>
      <point x="644" y="395"/>
      <point x="571" y="395" type="curve" smooth="yes"/>
      <point x="471" y="395"/>
      <point x="390" y="332"/>
      <point x="390" y="256" type="curve" smooth="yes"/>
      <point x="390" y="186"/>
      <point x="459" y="109"/>
      <point x="543" y="71" type="curve"/>
      <point x="487" y="34"/>
      <point x="414" y="7"/>
      <point x="342" y="7" type="curve" smooth="yes"/>
      <point x="287" y="7"/>
      <point x="225" y="50"/>
    </contour>
    <contour>
      <point x="444" y="218" type="curve" smooth="yes"/>
      <point x="444" y="272"/>
      <point x="521" y="319"/>
      <point x="614" y="319" type="curve" smooth="yes"/>
      <point x="675" y="319"/>
      <point x="722" y="275"/>
      <point x="730" y="218" type="curve"/>
      <point x="729" y="218" type="line"/>
      <point x="686" y="170"/>
      <point x="615" y="148"/>
      <point x="532" y="148" type="curve" smooth="yes"/>
      <point x="487" y="148"/>
      <point x="444" y="176"/>
    </contour>
    <contour>
      <point x="135" y="186" type="curve" smooth="yes"/>
      <point x="117" y="186"/>
      <point x="100" y="206"/>
      <point x="100" y="237" type="curve" smooth="yes"/>
      <point x="100" y="281"/>
      <point x="133" y="319"/>
      <point x="170" y="319" type="curve" smooth="yes"/>
      <point x="187" y="319"/>
      <point x="208" y="304"/>
      <point x="224" y="286" type="curve"/>
      <point x="225" y="286" type="line"/>
      <point x="219" y="228"/>
      <point x="178" y="186"/>
    </contour>
  </outline>
</glyph>
<glyph name="uni0918" format="1">
  <advance width="650"/>
  <unicode hex="0918"/>
  <outline>
    <contour>
      <point x="68" y="198" type="curve" smooth="yes"/>
      <point x="68" y="128"/>
      <point x="204" y="29"/>
      <point x="288" y="29" type="curve" smooth="yes"/>
      <point x="346" y="29"/>
      <point x="411" y="66"/>
      <point x="483" y="137" type="curve"/>
      <point x="486" y="137" type="line"/>
      <point x="486" y="80"/>
      <point x="469" y="30"/>
      <point x="450" y="22" type="curve"/>
      <point x="439" y="22"/>
      <point x="426" y="15"/>
      <point x="426" y="-1" type="curve" smooth="yes"/>
      <point x="426" y="-31"/>
      <point x="457" y="-55"/>
      <point x="498" y="-55" type="curve" smooth="yes"/>
      <point x="531" y="-55"/>
      <point x="553" y="9"/>
      <point x="553" y="90" type="curve" smooth="yes"/>
      <point x="553" y="433" type="line" smooth="yes"/>
      <point x="553" y="477"/>
      <point x="571" y="516"/>
      <point x="591" y="516" type="curve" smooth="yes"/>
      <point x="657" y="516" type="line"/>
      <point x="657" y="580" type="line"/>
      <point x="590" y="580" type="line"/>
      <point x="565" y="599" type="line"/>
      <point x="541" y="627"/>
      <point x="521" y="643"/>
      <point x="514" y="643" type="curve" smooth="yes"/>
      <point x="493" y="643"/>
      <point x="472" y="623"/>
      <point x="472" y="598" type="curve" smooth="yes"/>
      <point x="472" y="580" type="line"/>
      <point x="-13" y="580" type="line"/>
      <point x="-13" y="516" type="line"/>
      <point x="128" y="516" type="line"/>
      <point x="93" y="483"/>
      <point x="72" y="447"/>
      <point x="72" y="413" type="curve" smooth="yes"/>
      <point x="72" y="379"/>
      <point x="104" y="350"/>
      <point x="139" y="326" type="curve"/>
      <point x="99" y="298"/>
      <point x="68" y="249"/>
    </contour>
    <contour>
      <point x="121" y="172" type="curve" smooth="yes"/>
      <point x="121" y="219"/>
      <point x="209" y="286"/>
      <point x="255" y="286" type="curve" smooth="yes"/>
      <point x="260" y="286"/>
      <point x="272" y="283"/>
      <point x="284" y="280" type="curve"/>
      <point x="285" y="280" type="line"/>
      <point x="296" y="277"/>
      <point x="304" y="274"/>
      <point x="308" y="274" type="curve" smooth="yes"/>
      <point x="321" y="274"/>
      <point x="330" y="285"/>
      <point x="330" y="300" type="curve" smooth="yes"/>
      <point x="330" y="350"/>
      <point x="310" y="370"/>
      <point x="261" y="370" type="curve" smooth="yes"/>
      <point x="259" y="370"/>
      <point x="256" y="369"/>
      <point x="253" y="367" type="curve"/>
      <point x="202" y="354" type="line" smooth="yes"/>
      <point x="194" y="352"/>
      <point x="186" y="352"/>
      <point x="185" y="352" type="curve" smooth="yes"/>
      <point x="162" y="352"/>
      <point x="147" y="363"/>
      <point x="147" y="381" type="curve" smooth="yes"/>
      <point x="147" y="428"/>
      <point x="212" y="483"/>
      <point x="255" y="483" type="curve" smooth="yes"/>
      <point x="270" y="483"/>
      <point x="286" y="497"/>
      <point x="286" y="516" type="curve"/>
      <point x="485" y="516" type="line"/>
      <point x="485" y="224" type="line"/>
      <point x="481" y="224" type="line"/>
      <point x="460" y="250" type="line"/>
      <point x="462" y="247" type="line"/>
      <point x="458" y="250"/>
      <point x="456" y="251"/>
      <point x="454" y="251" type="curve" smooth="yes"/>
      <point x="449" y="251"/>
      <point x="440" y="233"/>
      <point x="434" y="208" type="curve"/>
      <point x="395" y="146"/>
      <point x="320" y="95"/>
      <point x="242" y="95" type="curve" smooth="yes"/>
      <point x="160" y="95"/>
      <point x="121" y="122"/>
    </contour>
  </outline>
</glyph>
<glyph name="uni091B" format="1">
  <advance width="695"/>
  <unicode hex="091B"/>
  <outline>
    <contour>
      <point x="64" y="155" type="curve" smooth="yes"/>
      <point x="64" y="61"/>
      <point x="216" y="-55"/>
      <point x="322" y="-55" type="curve" smooth="yes"/>
      <point x="407" y="-55"/>
      <point x="494" y="-10"/>
      <point x="559" y="71" type="curve"/>
      <point x="602" y="53" type="line"/>
      <point x="612" y="53"/>
      <point x="620" y="64"/>
      <point x="620" y="77" type="curve" smooth="yes"/>
      <point x="620" y="87"/>
      <point x="593" y="105"/>
      <point x="583" y="114" type="curve"/>
      <point x="582" y="114" type="line"/>
      <point x="601" y="141"/>
      <point x="611" y="168"/>
      <point x="611" y="198" type="curve" smooth="yes"/>
      <point x="611" y="226"/>
      <point x="603" y="258"/>
      <point x="584" y="280" type="curve" smooth="yes"/>
      <point x="580" y="284"/>
      <point x="578" y="289"/>
      <point x="578" y="293" type="curve" smooth="yes"/>
      <point x="578" y="314"/>
      <point x="604" y="285"/>
      <point x="604" y="357" type="curve" smooth="yes"/>
      <point x="604" y="376"/>
      <point x="600" y="446"/>
      <point x="600" y="465" type="curve" smooth="yes"/>
      <point x="600" y="496"/>
      <point x="619" y="516"/>
      <point x="639" y="516" type="curve" smooth="yes"/>
      <point x="697" y="516" type="line"/>
      <point x="697" y="580" type="line"/>
      <point x="620" y="580" type="line"/>
      <point x="571" y="636" type="line" smooth="yes"/>
      <point x="562" y="647"/>
      <point x="551" y="647"/>
      <point x="545" y="649" type="curve"/>
      <point x="532" y="649"/>
      <point x="516" y="632"/>
      <point x="516" y="611" type="curve" smooth="yes"/>
      <point x="516" y="580" type="line"/>
      <point x="-18" y="580" type="line"/>
      <point x="-18" y="516" type="line"/>
      <point x="150" y="516" type="line"/>
      <point x="111" y="487"/>
      <point x="86" y="447"/>
      <point x="86" y="401" type="curve" smooth="yes"/>
      <point x="86" y="359"/>
      <point x="112" y="310"/>
      <point x="150" y="280" type="curve"/>
      <point x="99" y="253"/>
      <point x="64" y="199"/>
    </contour>
    <contour>
      <point x="136" y="114" type="curve" smooth="yes"/>
      <point x="136" y="172"/>
      <point x="211" y="218"/>
      <point x="295" y="218" type="curve" smooth="yes"/>
      <point x="297" y="218"/>
      <point x="304" y="216"/>
      <point x="313" y="214" type="curve"/>
      <point x="314" y="214" type="line"/>
      <point x="325" y="211"/>
      <point x="338" y="208"/>
      <point x="344" y="208" type="curve" smooth="yes"/>
      <point x="348" y="208"/>
      <point x="354" y="210"/>
      <point x="354" y="218" type="curve" smooth="yes"/>
      <point x="354" y="260"/>
      <point x="341" y="300"/>
      <point x="316" y="300" type="curve" smooth="yes"/>
      <point x="290" y="300" type="line" smooth="yes"/>
      <point x="236" y="300"/>
      <point x="202" y="298"/>
      <point x="186" y="293" type="curve" smooth="yes"/>
      <point x="184" y="293" type="line"/>
      <point x="164" y="305"/>
      <point x="156" y="333"/>
      <point x="156" y="357" type="curve" smooth="yes"/>
      <point x="156" y="413"/>
      <point x="202" y="463"/>
      <point x="255" y="478" type="curve"/>
      <point x="279" y="480"/>
      <point x="298" y="497"/>
      <point x="298" y="516" type="curve"/>
      <point x="516" y="516" type="line"/>
      <point x="515" y="506"/>
      <point x="515" y="497"/>
      <point x="515" y="484" type="curve" smooth="yes"/>
      <point x="515" y="449"/>
      <point x="517" y="402"/>
      <point x="526" y="352" type="curve"/>
      <point x="524" y="352" type="line" smooth="yes"/>
      <point x="481" y="352"/>
      <point x="448" y="302"/>
      <point x="448" y="251" type="curve" smooth="yes"/>
      <point x="448" y="195"/>
      <point x="467" y="150"/>
      <point x="498" y="123" type="curve"/>
      <point x="499" y="123" type="line"/>
      <point x="444" y="56"/>
      <point x="368" y="16"/>
      <point x="304" y="16" type="curve" smooth="yes"/>
      <point x="200" y="16"/>
      <point x="136" y="52"/>
    </contour>
    <contour>
      <point x="501" y="218" type="curve" smooth="yes"/>
      <point x="501" y="246"/>
      <point x="519" y="268"/>
      <point x="537" y="268" type="curve" smooth="yes"/>
      <point x="552" y="268"/>
      <point x="563" y="248"/>
      <point x="563" y="224" type="curve" smooth="yes"/>
      <point x="563" y="195"/>
      <point x="547" y="160"/>
      <point x="537" y="160" type="curve" smooth="yes"/>
      <point x="516" y="160"/>
      <point x="501" y="186"/>
    </contour>
  </outline>
</glyph>
<glyph name="uni091C" format="1">
  <advance width="800"/>
  <unicode hex="091C"/>
  <outline>
    <contour>
      <point x="293" y="102" type="curve" smooth="yes"/>
      <point x="201" y="102"/>
      <point x="115" y="188"/>
      <point x="115" y="293" type="curve" smooth="yes"/>
      <point x="115" y="304"/>
      <point x="133" y="339"/>
      <point x="133" y="352" type="curve" smooth="yes"/>
      <point x="133" y="366"/>
      <point x="86" y="395"/>
      <point x="62" y="395" type="curve" smooth="yes"/>
      <point x="51" y="395"/>
      <point x="46" y="385"/>
      <point x="46" y="376" type="curve" smooth="yes"/>
      <point x="46" y="206"/>
      <point x="199" y="16"/>
      <point x="330" y="16" type="curve" smooth="yes"/>
      <point x="423" y="16"/>
      <point x="501" y="80"/>
      <point x="501" y="167" type="curve" smooth="yes"/>
      <point x="501" y="206"/>
      <point x="476" y="254"/>
      <point x="439" y="280" type="curve"/>
      <point x="459" y="288"/>
      <point x="493" y="293"/>
      <point x="536" y="293" type="curve" smooth="yes"/>
      <point x="567" y="293"/>
      <point x="605" y="286"/>
      <point x="633" y="274" type="curve"/>
      <point x="639" y="258"/>
      <point x="641" y="226"/>
      <point x="641" y="160" type="curve" smooth="yes"/>
      <point x="641" y="67"/>
      <point x="621" y="24"/>
      <point x="583" y="24" type="curve" smooth="yes"/>
      <point x="574" y="24"/>
      <point x="566" y="18"/>
      <point x="566" y="11" type="curve" smooth="yes"/>
      <point x="566" y="-21"/>
      <point x="601" y="-55"/>
      <point x="634" y="-55" type="curve" smooth="yes"/>
      <point x="686" y="-55"/>
      <point x="711" y="45"/>
      <point x="711" y="155" type="curve" smooth="yes"/>
      <point x="711" y="201"/>
      <point x="702" y="372"/>
      <point x="702" y="421" type="curve" smooth="yes"/>
      <point x="702" y="510"/>
      <point x="705" y="516"/>
      <point x="721" y="516" type="curve" smooth="yes"/>
      <point x="818" y="516" type="line"/>
      <point x="818" y="580" type="line"/>
      <point x="725" y="580" type="line"/>
      <point x="699" y="612"/>
      <point x="676" y="642"/>
      <point x="662" y="642" type="curve" smooth="yes"/>
      <point x="640" y="642"/>
      <point x="636" y="625"/>
      <point x="636" y="592" type="curve" smooth="yes"/>
      <point x="636" y="580" type="line"/>
      <point x="-29" y="580" type="line"/>
      <point x="-29" y="516" type="line"/>
      <point x="636" y="516" type="line"/>
      <point x="636" y="311" type="line"/>
      <point x="615" y="357"/>
      <point x="602" y="379"/>
      <point x="591" y="385" type="curve"/>
      <point x="584" y="379"/>
      <point x="572" y="376"/>
      <point x="565" y="376" type="curve" smooth="yes"/>
      <point x="330" y="376" type="line"/>
      <point x="330" y="376"/>
      <point x="291" y="381"/>
      <point x="288" y="381" type="curve" smooth="yes"/>
      <point x="281" y="381"/>
      <point x="270" y="374"/>
      <point x="270" y="363" type="curve" smooth="yes"/>
      <point x="270" y="338"/>
      <point x="297" y="268"/>
      <point x="324" y="268" type="curve" smooth="yes"/>
      <point x="330" y="268"/>
      <point x="351" y="286"/>
      <point x="363" y="286" type="curve" smooth="yes"/>
      <point x="396" y="286"/>
      <point x="427" y="260"/>
      <point x="427" y="224" type="curve" smooth="yes"/>
      <point x="427" y="158"/>
      <point x="364" y="102"/>
    </contour>
  </outline>
</glyph>
<glyph name="uni091D" format="1">
  <advance width="795"/>
  <unicode hex="091D"/>
  <outline>
    <contour>
      <point x="80" y="42" type="curve" smooth="yes"/>
      <point x="80" y="1"/>
      <point x="136" y="-54"/>
      <point x="220" y="-55" type="curve" smooth="yes"/>
      <point x="278" y="-56" type="line"/>
      <point x="314" y="-100"/>
      <point x="413" y="-188"/>
      <point x="432" y="-188" type="curve" smooth="yes"/>
      <point x="464" y="-188"/>
      <point x="494" y="-169"/>
      <point x="494" y="-152" type="curve" smooth="yes"/>
      <point x="494" y="-139"/>
      <point x="468" y="-124"/>
      <point x="441" y="-112" type="curve"/>
      <point x="328" y="-38" type="line"/>
      <point x="409" y="-22"/>
      <point x="501" y="37"/>
      <point x="501" y="95" type="curve" smooth="yes"/>
      <point x="501" y="112" type="line" smooth="yes"/>
      <point x="501" y="121"/>
      <point x="502" y="132"/>
      <point x="502" y="143" type="curve" smooth="yes"/>
      <point x="502" y="148"/>
      <point x="502" y="153"/>
      <point x="501" y="155" type="curve"/>
      <point x="504" y="155" type="line"/>
      <point x="536" y="125" type="line"/>
      <point x="550" y="159"/>
      <point x="580" y="178"/>
      <point x="606" y="178" type="curve" smooth="yes"/>
      <point x="625" y="178"/>
      <point x="641" y="166"/>
      <point x="641" y="148" type="curve" smooth="yes"/>
      <point x="641" y="86"/>
      <point x="617" y="29"/>
      <point x="585" y="29" type="curve" smooth="yes"/>
      <point x="574" y="29"/>
      <point x="563" y="23"/>
      <point x="563" y="16" type="curve" smooth="yes"/>
      <point x="563" y="-9"/>
      <point x="635" y="-55"/>
      <point x="664" y="-55" type="curve" smooth="yes"/>
      <point x="702" y="-55"/>
      <point x="710" y="-1"/>
      <point x="710" y="65" type="curve" smooth="yes"/>
      <point x="710" y="136"/>
      <point x="696" y="377"/>
      <point x="696" y="447" type="curve" smooth="yes"/>
      <point x="696" y="483"/>
      <point x="699" y="516"/>
      <point x="714" y="516" type="curve" smooth="yes"/>
      <point x="819" y="516" type="line"/>
      <point x="819" y="580" type="line"/>
      <point x="718" y="580" type="line"/>
      <point x="700" y="622"/>
      <point x="673" y="649"/>
      <point x="664" y="649" type="curve" smooth="yes"/>
      <point x="638" y="649"/>
      <point x="635" y="629"/>
      <point x="635" y="603" type="curve" smooth="yes"/>
      <point x="635" y="580" type="line"/>
      <point x="433" y="580" type="line"/>
      <point x="415" y="618"/>
      <point x="401" y="649"/>
      <point x="378" y="649" type="curve" smooth="yes"/>
      <point x="363" y="649"/>
      <point x="353" y="632"/>
      <point x="353" y="580" type="curve"/>
      <point x="-13" y="580" type="line"/>
      <point x="-13" y="516" type="line"/>
      <point x="356" y="516" type="line"/>
      <point x="358" y="491"/>
      <point x="358" y="464"/>
      <point x="358" y="438" type="curve"/>
      <point x="339" y="438" type="line" smooth="yes"/>
      <point x="314" y="438"/>
      <point x="233" y="453"/>
      <point x="210" y="453" type="curve" smooth="yes"/>
      <point x="137" y="453"/>
      <point x="79" y="404"/>
      <point x="79" y="352" type="curve" smooth="yes"/>
      <point x="79" y="248"/>
      <point x="164" y="160"/>
      <point x="271" y="160" type="curve" smooth="yes"/>
      <point x="298" y="160"/>
      <point x="389" y="186"/>
      <point x="417" y="186" type="curve" smooth="yes"/>
      <point x="438" y="186"/>
      <point x="451" y="173"/>
      <point x="451" y="160" type="curve" smooth="yes"/>
      <point x="451" y="87"/>
      <point x="370" y="47"/>
      <point x="248" y="47" type="curve"/>
      <point x="247" y="47" type="line"/>
      <point x="203" y="93"/>
      <point x="177" y="100"/>
      <point x="154" y="100" type="curve" smooth="yes"/>
      <point x="112" y="100"/>
      <point x="80" y="72"/>
    </contour>
    <contour>
      <point x="195" y="237" type="curve" smooth="yes"/>
      <point x="161" y="237"/>
      <point x="136" y="260"/>
      <point x="136" y="293" type="curve" smooth="yes"/>
      <point x="136" y="332"/>
      <point x="188" y="363"/>
      <point x="255" y="363" type="curve" smooth="yes"/>
      <point x="284" y="363"/>
      <point x="378" y="336"/>
      <point x="408" y="336" type="curve" smooth="yes"/>
      <point x="430" y="336"/>
      <point x="428" y="362"/>
      <point x="428" y="395" type="curve" smooth="yes"/>
      <point x="428" y="409"/>
      <point x="423" y="462"/>
      <point x="423" y="478" type="curve" smooth="yes"/>
      <point x="423" y="497"/>
      <point x="422" y="516"/>
      <point x="433" y="516" type="curve" smooth="yes"/>
      <point x="630" y="516" type="line"/>
      <point x="630" y="445" type="line" smooth="yes"/>
      <point x="630" y="331"/>
      <point x="632" y="261"/>
      <point x="635" y="237" type="curve"/>
      <point x="632" y="237" type="line"/>
      <point x="620" y="245"/>
      <point x="598" y="251"/>
      <point x="566" y="251" type="curve" smooth="yes"/>
      <point x="521" y="251"/>
      <point x="487" y="240"/>
      <point x="467" y="218" type="curve"/>
      <point x="465" y="218" type="line"/>
      <point x="432" y="243"/>
      <point x="399" y="256"/>
      <point x="386" y="256" type="curve" smooth="yes"/>
      <point x="349" y="256"/>
      <point x="232" y="237"/>
    </contour>
  </outline>
</glyph>
